<svg width="64" height="64" viewBox="0 0 64 64" fill="none" xmlns="http://www.w3.org/2000/svg">
<rect width="64" height="64" fill="white" fill-opacity="0.02"/>
<path fill-rule="evenodd" clip-rule="evenodd" d="M32 6.5C17.9167 6.5 6.5 17.9167 6.5 32C6.5 46.0833 17.9167 57.5 32 57.5C46.0833 57.5 57.5 46.0833 57.5 32C57.5 17.9167 46.0833 6.5 32 6.5ZM1.5 32C1.5 15.1553 15.1553 1.5 32 1.5C48.8447 1.5 62.5 15.1553 62.5 32C62.5 48.8447 48.8447 62.5 32 62.5C15.1553 62.5 1.5 48.8447 1.5 32Z" fill="black"/>
<path d="M44.5 23L26.625 41L18.5 33.5" stroke="black" stroke-width="5" stroke-linecap="round" stroke-linejoin="round"/>
</svg>
