<svg width="64" height="64" viewBox="0 0 64 64" fill="none" xmlns="http://www.w3.org/2000/svg">
<rect width="64" height="64" fill="white" fill-opacity="0.02"/>
<path d="M16.375 46C24.266 35.7872 39.734 35.7872 47.625 46M32 60C35.125 60 57 44.4437 57 16.4444C57 10.2222 38.25 4 32 4C25.75 4 7 10.2222 7 16.4444C7 44.4444 28.875 60 32 60ZM41.375 28.8889C41.375 34.0435 37.1777 38.2222 32 38.2222C26.8223 38.2222 22.625 34.0435 22.625 28.8889C22.625 23.7342 26.8223 19.5556 32 19.5556C37.1777 19.5556 41.375 23.7342 41.375 28.8889Z" stroke="black" stroke-width="5" stroke-linecap="round" stroke-linejoin="round"/>
</svg>
