<svg width="66" height="66" viewBox="0 0 66 66" fill="none" xmlns="http://www.w3.org/2000/svg">
<path fill-rule="evenodd" clip-rule="evenodd" d="M54.4528 38.2141C55.521 38.4029 56.6391 37.8728 56.9313 36.828C57.6277 34.3379 58.0001 31.7124 58.0001 29C58.0001 12.9837 45.0164 0 29.0001 0C12.9839 0 0.00012207 12.9837 0.00012207 29C0.00012207 45.0163 12.9839 58 29.0001 58C31.7126 58 34.338 57.6276 36.8282 56.9312C37.8729 56.639 38.403 55.5209 38.2142 54.4527C38.0735 53.6563 38.0001 52.8367 38.0001 52C38.0001 44.268 44.2681 38 52.0001 38C52.8368 38 53.6564 38.0734 54.4528 38.2141Z" fill="black"/>
<path d="M31.579 25.9822H26.42L27.4303 21.4088H31.7981C33.5839 21.4088 34.6169 22.2228 34.6169 23.5704C34.6169 25.1672 33.3648 25.9822 31.579 25.9822ZM29.731 35.2859H24.3643L25.5479 29.9296H29.9189C32.0805 29.9296 33.396 30.837 33.396 32.466C33.396 34.1262 32.0494 35.2859 29.731 35.2859ZM39.6607 22.7876C39.6607 19.8089 37.3942 17.8757 34.2785 17.3171L34.8204 14.7392C34.9357 14.1858 34.5141 13.6667 33.9493 13.6667H30.6664C30.2459 13.6667 29.8836 13.9594 29.7964 14.3706L29.2046 17.1489H23.813C23.5005 17.1489 23.2295 17.3659 23.1621 17.6711L18.516 38.7038C18.4246 39.1201 18.7402 39.5146 19.1669 39.5146H24.2387L23.731 41.8994C23.6147 42.4507 24.0321 42.9709 24.5948 42.9751L27.8829 43C28.3065 43.0031 28.6741 42.7072 28.7613 42.2919L29.3437 39.5146H29.8556C35.1184 39.5146 38.4698 36.6325 38.4698 32.9052C38.4698 30.7124 37.28 28.9267 35.4319 28.0182C37.7503 27.361 39.6607 25.5119 39.6607 22.7876Z" fill="white"/>
<rect x="39.0001" y="39" width="26" height="26" rx="13" fill="#F2F2F2"/>
<rect x="39.0001" y="39" width="26" height="26" rx="13" stroke="white" stroke-width="2"/>
<path fill-rule="evenodd" clip-rule="evenodd" d="M52.0001 43.5C52.5524 43.5 53.0001 43.9477 53.0001 44.5V46.9608L54.293 45.6679C54.6835 45.2774 55.3167 45.2774 55.7072 45.6679C56.0978 46.0584 56.0978 46.6916 55.7072 47.0821L52.7072 50.0821C52.3167 50.4726 51.6835 50.4726 51.293 50.0821L48.293 47.0821C47.9025 46.6916 47.9025 46.0584 48.293 45.6679C48.6835 45.2774 49.3167 45.2774 49.7072 45.6679L51.0001 46.9608V44.5C51.0001 43.9477 51.4478 43.5 52.0001 43.5ZM44.2501 52C44.2501 51.4477 44.6978 51 45.2501 51H58.7501C59.3024 51 59.7501 51.4477 59.7501 52C59.7501 52.5523 59.3024 53 58.7501 53H45.2501C44.6978 53 44.2501 52.5523 44.2501 52ZM48.293 56.9179L51.293 53.9179C51.6835 53.5274 52.3167 53.5274 52.7072 53.9179L55.7072 56.9179C56.0978 57.3084 56.0978 57.9416 55.7072 58.3321C55.3167 58.7226 54.6835 58.7226 54.293 58.3321L53.0001 57.0392V59.5C53.0001 60.0523 52.5524 60.5 52.0001 60.5C51.4478 60.5 51.0001 60.0523 51.0001 59.5V57.0392L49.7072 58.3321C49.3167 58.7226 48.6835 58.7226 48.293 58.3321C47.9025 57.9416 47.9025 57.3084 48.293 56.9179Z" fill="black" fill-opacity="0.5"/>
</svg>
