<svg width="24" height="24" viewBox="0 0 24 24" fill="none" xmlns="http://www.w3.org/2000/svg">
<path fill-rule="evenodd" clip-rule="evenodd" d="M12 4.25C7.71979 4.25 4.25 7.71979 4.25 12C4.25 16.2802 7.71979 19.75 12 19.75C16.2802 19.75 19.75 16.2802 19.75 12C19.75 7.71979 16.2802 4.25 12 4.25ZM1.75 12C1.75 6.33908 6.33908 1.75 12 1.75C17.6609 1.75 22.25 6.33908 22.25 12C22.25 17.6609 17.6609 22.25 12 22.25C6.33908 22.25 1.75 17.6609 1.75 12ZM16.4187 8.35539C16.9404 8.80753 16.9967 9.59697 16.5446 10.1187L11.8646 15.5187C11.4142 16.0383 10.6286 16.0966 10.1065 15.6491L7.58651 13.4891C7.06235 13.0398 7.00165 12.2507 7.45093 11.7265C7.90021 11.2024 8.68933 11.1417 9.21349 11.5909L10.7896 12.9419L14.6554 8.48134C15.1075 7.95964 15.897 7.90325 16.4187 8.35539Z" fill="black"/>
</svg>
