<svg width="24" height="24" viewBox="0 0 24 24" fill="none" xmlns="http://www.w3.org/2000/svg">
<path fill-rule="evenodd" clip-rule="evenodd" d="M12 21C15.866 21 19 17.866 19 14V10C19 9.44772 19.4477 9 20 9C20.5523 9 21 9.44771 21 10V14C21 18.9706 16.9706 23 12 23C11.6199 23 11.2448 22.9764 10.8763 22.9304C10.3282 22.8621 9.93935 22.3624 10.0077 21.8144C10.076 21.2663 10.5757 20.8775 11.1237 20.9458C11.4104 20.9815 11.7028 21 12 21ZM8.32633 21.1785C8.01529 21.6349 7.39318 21.7527 6.93681 21.4416C4.56243 19.8234 3 17.0943 3 14L3 10.002C3 10.0012 3 10.0004 3 9.99962L3 9.99495V9.99457V9.99434C3.00087 8.58617 3.32585 7.25101 3.90529 6.06194C4.14722 5.56546 4.74582 5.35912 5.24229 5.60105C5.73877 5.84299 5.94511 6.44159 5.70318 6.93806C5.25368 7.86048 5.00072 8.89699 5 9.99533M5 9.99557L5 14C5 16.4051 6.21203 18.5273 8.06319 19.789C8.51956 20.1 8.63737 20.7221 8.32633 21.1785M12 17C13.6569 17 15 15.6569 15 14C15 13.4477 15.4477 13 16 13C16.5523 13 17 13.4477 17 14C17 16.7614 14.7614 19 12 19C9.23858 19 7 16.7614 7 14L7 10C7 9.25497 7.1636 8.54542 7.4578 7.90762C7.68912 7.40612 8.2832 7.18709 8.7847 7.41842C9.28621 7.64975 9.50523 8.24382 9.2739 8.74533C9.0984 9.12581 9 9.55005 9 10L9 14C9 15.6569 10.3431 17 12 17ZM12 14.5C11.4477 14.5 11 14.0523 11 13.5V10.5C11 9.94771 11.4477 9.5 12 9.5C12.5523 9.5 13 9.94771 13 10.5V13.5C13 14.0523 12.5523 14.5 12 14.5ZM16 11C15.4477 11 15 10.5523 15 10C15 8.34315 13.6569 7 12 7C11.4477 7 11 6.55229 11 6C11 5.44771 11.4477 5 12 5C14.7614 5 17 7.23858 17 10C17 10.5523 16.5523 11 16 11ZM19.5639 7.20228C19.0739 7.45704 18.4701 7.26631 18.2154 6.77629C17.0478 4.53041 14.7018 3 12 3C10.5386 3 9.18455 3.44674 8.06319 4.21101C7.60682 4.52205 6.98471 4.40424 6.67367 3.94787C6.36263 3.4915 6.48044 2.8694 6.93681 2.55835C8.37967 1.57496 10.1242 0.999999 12 0.999999C15.477 1 18.4917 2.97192 19.9899 5.85376C20.2446 6.34378 20.0539 6.94753 19.5639 7.20228Z" fill="black"/>
</svg>
