<svg width="20" height="20" viewBox="0 0 20 20" fill="none" xmlns="http://www.w3.org/2000/svg">
<rect width="20" height="20" rx="10" fill="black"/>
<g clip-path="url(#clip0_2086_2499)">
<path d="M11.0229 9.00287H8.83497L9.26341 7.06325H11.1158C11.8732 7.06325 12.3113 7.40846 12.3113 7.98C12.3113 8.65722 11.7803 9.00287 11.0229 9.00287ZM10.2392 12.9486H7.96313L8.4651 10.677H10.3189C11.2356 10.677 11.7935 11.0618 11.7935 11.7527C11.7935 12.4568 11.2224 12.9486 10.2392 12.9486ZM14.4504 7.648C14.4504 6.38471 13.4892 5.56483 12.1678 5.32793L12.3976 4.23461C12.4465 3.99992 12.2677 3.77975 12.0282 3.77975H10.6359C10.4576 3.77975 10.3039 3.90393 10.2669 4.07829L10.0159 5.2566H7.72932C7.59678 5.2566 7.48186 5.34863 7.45324 5.47808L5.48279 14.3982C5.44404 14.5747 5.5779 14.7421 5.75887 14.7421H7.90985L7.69453 15.7535C7.64522 15.9873 7.82223 16.2079 8.06088 16.2097L9.45539 16.2202C9.63504 16.2215 9.79091 16.096 9.8279 15.9199L10.0749 14.7421H10.292C12.524 14.7421 13.9454 13.5197 13.9454 11.939C13.9454 11.009 13.4408 10.2516 12.657 9.86635C13.6402 9.58762 14.4504 8.80341 14.4504 7.648Z" fill="white"/>
</g>
<defs>
<clipPath id="clip0_2086_2499">
<rect width="13.5714" height="13.5714" fill="white" transform="translate(3.21436 3.21428)"/>
</clipPath>
</defs>
</svg>
