<svg width="24" height="24" viewBox="0 0 24 24" fill="none" xmlns="http://www.w3.org/2000/svg">
<g clip-path="url(#clip0_127_1363)">
<path d="M12 1.5C12.5566 1.5 12.9961 1.95898 12.9961 2.48633V12.1934L12.918 13.6289L13.4062 12.9746L14.7148 11.5781C14.8809 11.3926 15.125 11.2949 15.3691 11.2949C15.8477 11.2949 16.2578 11.6465 16.2578 12.1445C16.2578 12.3984 16.1602 12.584 15.9746 12.7695L12.7715 15.8457C12.5078 16.1094 12.2637 16.1973 12 16.1973C11.7363 16.1973 11.4824 16.1094 11.2285 15.8457L8.01562 12.7695C7.83984 12.584 7.74219 12.3984 7.74219 12.1445C7.74219 11.6465 8.14258 11.2949 8.61133 11.2949C8.86523 11.2949 9.10938 11.3926 9.28516 11.5781L10.5938 12.9746L11.082 13.6289L10.9941 12.1934V2.48633C10.9941 1.95898 11.4434 1.5 12 1.5ZM6.36523 22.8184C4.20703 22.8184 3.05469 21.6855 3.05469 19.5371V10.0254C3.05469 7.87695 4.20703 6.74414 6.36523 6.74414H9.14844V8.91211H6.55078C5.69141 8.91211 5.23242 9.35156 5.23242 10.25V19.3125C5.23242 20.2109 5.69141 20.6406 6.55078 20.6406H17.4492C18.2988 20.6406 18.7676 20.2109 18.7676 19.3125V10.25C18.7676 9.35156 18.2988 8.91211 17.4492 8.91211H14.8418V6.74414H17.6348C19.8027 6.74414 20.9453 7.88672 20.9453 10.0254V19.5371C20.9453 21.6758 19.8027 22.8184 17.6348 22.8184H6.36523Z" fill="black"/>
</g>
<defs>
<clipPath id="clip0_127_1363">
<rect width="24" height="24" fill="white"/>
</clipPath>
</defs>
</svg>
