<svg width="24" height="24" viewBox="0 0 24 24" fill="none" xmlns="http://www.w3.org/2000/svg">
<path fill-rule="evenodd" clip-rule="evenodd" d="M12.0001 4.25C10.0204 4.25 8.31021 5.41514 7.52275 7.10254C7.47802 7.19839 7.46709 7.22318 7.45208 7.26502C7.43374 7.31617 7.40479 7.4077 7.35074 7.61281L7.3505 7.61372C7.26718 7.93026 7.25338 8.0851 7.21419 8.58392L7.06505 10.4824L7.0643 10.4919C7.05413 10.6213 7.04807 10.6985 7.04094 10.7757C6.91081 12.1837 6.5164 13.5546 5.87839 14.8165C5.84343 14.8856 5.80753 14.9542 5.74738 15.0693L5.74293 15.0778C5.69604 15.1674 5.66544 15.226 5.64283 15.2703C5.62165 15.3119 5.6157 15.3251 5.61569 15.3251L5.61583 15.3248C5.40835 15.7997 5.73363 16.3369 6.25064 16.3732C6.24797 16.373 6.26055 16.3739 6.31138 16.3745C6.36117 16.375 6.42723 16.375 6.52841 16.375H8.62508H15.3751H17.4718C17.5729 16.375 17.639 16.375 17.6888 16.3745C17.7396 16.3739 17.7522 16.373 17.7495 16.3732C18.2665 16.3369 18.5918 15.7997 18.3843 15.3248C18.3854 15.3272 18.3804 15.3156 18.3573 15.2703C18.3347 15.226 18.3041 15.1674 18.2572 15.0778L18.2528 15.0693C18.1926 14.9543 18.1567 14.8856 18.1218 14.8165C17.4838 13.5546 17.0894 12.1837 16.9592 10.7757C16.9521 10.6986 16.946 10.6214 16.9359 10.4921L16.9351 10.4824L16.786 8.58392C16.7468 8.0851 16.733 7.93026 16.6497 7.61371L16.6494 7.61281C16.5954 7.4077 16.5664 7.31617 16.5481 7.26502C16.5331 7.22318 16.5221 7.19839 16.4774 7.10254C15.69 5.41514 13.9798 4.25 12.0001 4.25ZM16.4542 18.875H17.4718C17.4855 18.875 17.4992 18.875 17.5127 18.875C17.6677 18.8751 17.809 18.8751 17.9244 18.867C20.1648 18.7099 21.5744 16.382 20.6753 14.3239C20.629 14.218 20.5634 14.0928 20.4915 13.9554C20.4852 13.9434 20.4789 13.9313 20.4725 13.9191C20.4067 13.7932 20.3791 13.7404 20.3528 13.6884C19.8566 12.707 19.5498 11.6407 19.4486 10.5456C19.4433 10.4876 19.4386 10.4283 19.4274 10.2866L19.2783 8.38812L19.2764 8.36428C19.2374 7.86713 19.2101 7.51993 19.0673 6.97733L19.0669 6.97581C18.9348 6.47438 18.8655 6.30814 18.7429 6.04533C17.56 3.51068 14.9869 1.75 12.0001 1.75C9.01321 1.75 6.44014 3.51068 5.2573 6.04533C5.13465 6.30813 5.06538 6.47438 4.93326 6.97581L4.93286 6.97733C4.79003 7.51993 4.76277 7.86713 4.72374 8.36426L4.72187 8.38812L4.57273 10.2866C4.5616 10.4283 4.55691 10.4876 4.55155 10.5456C4.45034 11.6407 4.14358 12.707 3.64734 13.6884C3.62106 13.7404 3.59349 13.7932 3.52762 13.9191C3.52125 13.9313 3.51492 13.9434 3.50864 13.9554C3.43673 14.0928 3.37119 14.218 3.32489 14.3239C2.42581 16.382 3.83538 18.7099 6.07576 18.867C6.19112 18.8751 6.33242 18.8751 6.48747 18.875C6.50101 18.875 6.51466 18.875 6.52841 18.875H7.54598C8.09127 20.8221 9.87892 22.25 12.0001 22.25C14.1212 22.25 15.9089 20.8221 16.4542 18.875ZM13.7187 18.875H10.2814C10.6678 19.4053 11.2937 19.75 12.0001 19.75C12.7065 19.75 13.3323 19.4053 13.7187 18.875Z" fill="black"/>
</svg>
