<svg width="24" height="24" viewBox="0 0 24 24" fill="none" xmlns="http://www.w3.org/2000/svg">
<path d="M12 3V5.25M12 3C7.02944 3 3 7.02944 3 12M12 3C16.9706 3 21 7.02944 21 12M12 18.75V21M12 21C16.9706 21 21 16.9706 21 12M12 21C7.02944 21 3 16.9706 3 12M5.25 12H3M21 12H18.75M18.3706 18.3706L16.7742 16.7742M5.62947 18.3706L7.22744 16.7726M5.62947 5.7L7.19227 7.26281M18.3706 5.7L13.3499 10.65M13.8 12C13.8 12.9941 12.9941 13.8 12 13.8C11.0059 13.8 10.2 12.9941 10.2 12C10.2 11.0059 11.0059 10.2 12 10.2C12.9941 10.2 13.8 11.0059 13.8 12Z" stroke="black" stroke-width="2.5" stroke-linecap="round" stroke-linejoin="round"/>
</svg>
