<svg width="64" height="64" viewBox="0 0 64 64" fill="none" xmlns="http://www.w3.org/2000/svg">
<path fill-rule="evenodd" clip-rule="evenodd" d="M32 64C49.6731 64 64 49.6731 64 32C64 14.3269 49.6731 0 32 0C14.3269 0 0 14.3269 0 32C0 49.6731 14.3269 64 32 64ZM33.7 14C33.7 12.8954 32.8046 12 31.7 12C30.5954 12 29.7 12.8954 29.7 14V20.8716L25.9142 17.0858C25.1332 16.3047 23.8668 16.3047 23.0858 17.0858C22.3047 17.8668 22.3047 19.1332 23.0858 19.9142L30.2858 27.1142C31.0668 27.8953 32.3332 27.8953 33.1142 27.1142L40.3142 19.9142C41.0953 19.1332 41.0953 17.8668 40.3142 17.0858C39.5332 16.3047 38.2668 16.3047 37.4858 17.0858L33.7 20.8716V14ZM15.5 30C14.3954 30 13.5 30.8954 13.5 32C13.5 33.1046 14.3954 34 15.5 34H47.9C49.0046 34 49.9 33.1046 49.9 32C49.9 30.8954 49.0046 30 47.9 30H15.5ZM30.2858 36.8858L23.0858 44.0858C22.3047 44.8668 22.3047 46.1332 23.0858 46.9142C23.8668 47.6953 25.1332 47.6953 25.9142 46.9142L29.7 43.1284V50C29.7 51.1046 30.5954 52 31.7 52C32.8046 52 33.7 51.1046 33.7 50V43.1284L37.4858 46.9142C38.2668 47.6953 39.5332 47.6953 40.3142 46.9142C41.0953 46.1332 41.0953 44.8668 40.3142 44.0858L33.1142 36.8858C32.3332 36.1047 31.0668 36.1047 30.2858 36.8858Z" fill="black"/>
</svg>
