<svg width="24" height="24" viewBox="0 0 24 24" fill="none" xmlns="http://www.w3.org/2000/svg">
<path fill-rule="evenodd" clip-rule="evenodd" d="M13.0418 5.0202C12.3949 4.65633 11.6051 4.65633 10.9582 5.0202L6.3332 7.62176C5.66408 7.99814 5.25 8.70616 5.25 9.47386V14.5261C5.25 15.2938 5.66408 16.0019 6.33319 16.3782L10.9582 18.9798C11.6051 19.3437 12.3949 19.3437 13.0418 18.9798L17.6668 16.3782C18.3359 16.0019 18.75 15.2938 18.75 14.5261V9.47386C18.75 8.70616 18.3359 7.99814 17.6668 7.62176L13.0418 5.0202ZM9.73254 2.84126C11.1405 2.04931 12.8595 2.04931 14.2675 2.84126L18.8925 5.44282C20.3488 6.262 21.25 7.80297 21.25 9.47386V14.5261C21.25 16.197 20.3488 17.738 18.8925 18.5572L14.2675 21.1587C12.8595 21.9507 11.1405 21.9507 9.73254 21.1587L5.10754 18.5572C3.65124 17.738 2.75 16.197 2.75 14.5261V9.47386C2.75 7.80297 3.65124 6.262 5.10754 5.44282L9.73254 2.84126ZM12 7.75C12.6904 7.75 13.25 8.30965 13.25 9V12.3992L13.7191 12.0239C14.2582 11.5927 15.0448 11.6801 15.4761 12.2191C15.9073 12.7582 15.8199 13.5448 15.2809 13.9761L12.7809 15.9761C12.3243 16.3413 11.6757 16.3413 11.2191 15.9761L8.71913 13.9761C8.18005 13.5448 8.09265 12.7582 8.52391 12.2191C8.95518 11.6801 9.74179 11.5927 10.2809 12.0239L10.75 12.3992V9C10.75 8.30965 11.3096 7.75 12 7.75Z" fill="black"/>
</svg>
