<svg width="24" height="24" viewBox="0 0 24 24" fill="none" xmlns="http://www.w3.org/2000/svg">
<path d="M12.9936 2.65292L12.9936 2.65293L12.9953 2.65467L13.0496 2.70811C13.0498 2.70831 13.05 2.70851 13.0502 2.7087C13.1893 2.84664 13.3773 2.92412 13.5733 2.92412C13.7696 2.92412 13.9578 2.84641 14.097 2.70811L14.0977 2.7074L14.1522 2.65295L14.1524 2.65277C14.8452 1.95931 15.9453 1.95932 16.639 2.65292L16.8865 2.40541L16.639 2.65292C17.3326 3.34635 17.3326 4.44479 16.639 5.13824L16.6389 5.13832L13.574 8.20478L10.5068 5.13823C9.81318 4.44479 9.81318 3.34637 10.5068 2.65292L10.2593 2.40541L10.5068 2.65292C10.8551 2.30468 11.3038 2.13171 11.7502 2.13171C12.1965 2.13171 12.6453 2.30468 12.9936 2.65292ZM17.6252 11.6135C17.2047 11.1569 16.604 10.8668 15.932 10.8668H9.64395C7.78921 10.8668 6.76903 11.8616 5.9774 12.6531L5.97734 12.6532L4.53751 14.0934L4.27771 13.8336C4.27757 13.8335 4.27744 13.8333 4.2773 13.8332C4.20834 13.764 4.12642 13.7091 4.03624 13.6716C3.94581 13.634 3.84889 13.6147 3.75109 13.6147C3.65328 13.6147 3.55637 13.634 3.46594 13.6716C3.37575 13.7091 3.29383 13.764 3.22488 13.8332C3.22474 13.8333 3.2246 13.8335 3.22446 13.8336L0.869693 16.1879C0.869507 16.1881 0.869322 16.1883 0.869136 16.1884C0.799735 16.2574 0.744701 16.3394 0.707123 16.4296C0.669414 16.5201 0.65 16.6172 0.65 16.7153C0.65 16.8133 0.669414 16.9104 0.707123 17.0009C0.744725 17.0912 0.799756 17.173 0.869016 17.2419C0.869242 17.2421 0.869467 17.2424 0.869693 17.2426L6.76237 23.1333L6.76306 23.134C6.90275 23.2728 7.09186 23.3505 7.28882 23.35C7.48578 23.3495 7.67446 23.2707 7.81338 23.1312C7.81339 23.1312 7.8134 23.1312 7.81341 23.1311L10.1686 20.7765C10.1687 20.7764 10.1688 20.7762 10.169 20.7761C10.3084 20.6372 10.387 20.4487 10.3875 20.2519C10.388 20.055 10.3103 19.8659 10.1714 19.7262L10.1707 19.7254L9.90956 19.4644L10.1699 19.204L9.92248 18.9565L10.1699 19.204C10.185 19.189 10.1996 19.1744 10.2138 19.1602C10.3976 18.976 10.5163 18.8572 10.6546 18.772C10.7852 18.6916 10.9452 18.6361 11.2162 18.6361H16.7162C18.1973 18.6361 19.4259 17.8973 20.2805 16.6599C20.7466 15.9851 21.2069 15.2301 21.6366 14.5236L21.6636 14.4792C22.0861 13.7843 22.4759 13.1434 22.8214 12.6537C23.1228 12.2263 23.3289 11.7199 23.3486 11.1813C23.3686 10.6344 23.1772 10.0626 22.7399 9.62532C22.3092 9.19473 21.7416 8.9796 21.1765 8.9796C20.6112 8.9796 20.0445 9.19471 19.6138 9.62524L17.6252 11.6135ZM11.751 0.65C10.9214 0.65 10.0912 0.966133 9.45864 1.59862C8.19341 2.86356 8.19342 4.91758 9.45865 6.18252L12.9562 9.67931C13.2212 10.0631 13.7777 10.1112 14.1043 9.76854L17.688 6.18257C17.688 6.18253 17.688 6.1825 17.6881 6.18246C18.9532 4.91751 18.9531 2.86361 17.688 1.59871C17.0554 0.966288 16.2262 0.650128 15.3964 0.650045C14.7598 0.650001 14.1226 0.83625 13.5746 1.2093C13.0259 0.836402 12.3875 0.65 11.751 0.65ZM21.1772 10.459C21.359 10.459 21.5428 10.5291 21.6894 10.6757C21.8258 10.812 21.87 10.9447 21.8633 11.1273C21.8564 11.3165 21.7742 11.5607 21.6071 11.7975C21.2127 12.3567 20.7902 13.0519 20.3626 13.7555L20.3614 13.7575L20.361 13.758C19.93 14.4672 19.4921 15.1877 19.0585 15.8156C18.4232 16.7354 17.6869 17.1504 16.7162 17.1504H11.2162C10.1481 17.1504 9.51968 17.7534 9.1195 18.1535L8.859 18.4139L5.58806 15.1437L7.02632 13.7051C7.02633 13.7051 7.02634 13.7051 7.02635 13.7051C7.02636 13.705 7.02637 13.705 7.02637 13.705C7.03829 13.6931 7.05013 13.6813 7.06191 13.6695C7.44695 13.2844 7.76444 12.9669 8.14735 12.7346C8.52822 12.5037 8.98483 12.3523 9.64395 12.3523H15.932C16.3985 12.3523 16.759 12.7129 16.759 13.1791C16.759 13.6468 16.397 14.0097 15.932 14.0097H12.3932C12.1673 14.0097 11.9721 14.0979 11.8369 14.2499C11.7075 14.3955 11.6502 14.5797 11.6502 14.7525C11.6502 14.9253 11.7075 15.1095 11.8369 15.2551C11.9721 15.4071 12.1673 15.4953 12.3932 15.4953H15.932C17.2075 15.4953 18.2447 14.4528 18.2447 13.1791C18.2447 13.1513 18.2442 13.1236 18.2432 13.0962L20.6643 10.6756C20.8106 10.5293 20.9952 10.459 21.1772 10.459ZM2.44371 16.7149L3.75109 15.4078L8.59412 20.2498L7.28611 21.557L2.44371 16.7149Z" fill="black" stroke="black" stroke-width="0.7"/>
</svg>
