<svg width="24" height="24" viewBox="0 0 24 24" fill="none" xmlns="http://www.w3.org/2000/svg">
<path fill-rule="evenodd" clip-rule="evenodd" d="M4.5 1C5.05228 1 5.5 1.44772 5.5 2V3.5H7C7.55228 3.5 8 3.94772 8 4.5C8 5.05228 7.55228 5.5 7 5.5H5.5V7C5.5 7.55228 5.05228 8 4.5 8C3.94772 8 3.5 7.55228 3.5 7V5.5H2C1.44772 5.5 1 5.05228 1 4.5C1 3.94772 1.44772 3.5 2 3.5H3.5V2C3.5 1.44772 3.94772 1 4.5 1ZM13.6599 3.81481C13.885 3.77597 14.115 3.77597 14.3401 3.81481C15.1257 3.95039 15.5464 4.60216 15.7941 5.06907C16.0601 5.57042 16.3292 6.27013 16.6436 7.08773L16.6675 7.14988C16.9679 7.93093 17.0623 8.156 17.1914 8.33759C17.321 8.5198 17.4802 8.67899 17.6624 8.80855C17.844 8.93768 18.0691 9.03207 18.8501 9.33248L18.9122 9.35636C19.7298 9.67079 20.4296 9.93987 20.9309 10.2059C21.3978 10.4536 22.0496 10.8743 22.1852 11.6599C22.224 11.885 22.224 12.115 22.1852 12.3401C22.0496 13.1257 21.3978 13.5464 20.9309 13.7941C20.4296 14.0601 19.7298 14.3292 18.9122 14.6436L18.8501 14.6675C18.0691 14.9679 17.844 15.0623 17.6624 15.1914C17.4802 15.321 17.321 15.4802 17.1914 15.6624C17.0623 15.844 16.9679 16.0691 16.6675 16.8501L16.6436 16.9122C16.3292 17.7298 16.0601 18.4296 15.7941 18.9309C15.5464 19.3978 15.1257 20.0496 14.3401 20.1852C14.115 20.224 13.885 20.224 13.6599 20.1852C12.8743 20.0496 12.4536 19.3978 12.2059 18.9309C11.9399 18.4296 11.6708 17.7299 11.3564 16.9123L11.3325 16.8501C11.0321 16.0691 10.9377 15.844 10.8086 15.6624C10.679 15.4802 10.5198 15.321 10.3376 15.1914C10.156 15.0623 9.93093 14.9679 9.14988 14.6675L9.08774 14.6436C8.27013 14.3292 7.57042 14.0601 7.06907 13.7941C6.60216 13.5464 5.95039 13.1257 5.81481 12.3401C5.77597 12.115 5.77597 11.885 5.81481 11.6599C5.95039 10.8743 6.60216 10.4536 7.06907 10.2059C7.57042 9.93987 8.27013 9.67079 9.08774 9.35637L9.14988 9.33248C9.93093 9.03207 10.156 8.93768 10.3376 8.80855C10.5198 8.67899 10.679 8.5198 10.8086 8.33759C10.9377 8.156 11.0321 7.93093 11.3325 7.14988L11.3564 7.08779C11.6708 6.27016 11.9399 5.57043 12.2059 5.06907C12.4536 4.60216 12.8743 3.95039 13.6599 3.81481ZM13.9726 6.00641C13.7706 6.38723 13.5442 6.97076 13.1992 7.86784C13.1859 7.90231 13.1728 7.93634 13.1599 7.96993C12.9164 8.60419 12.7324 9.0833 12.4385 9.49658C12.1794 9.861 11.861 10.1794 11.4966 10.4385C11.0833 10.7324 10.6042 10.9164 9.96995 11.1599C9.93635 11.1728 9.90232 11.1859 9.86784 11.1992C8.97076 11.5442 8.38723 11.7706 8.00641 11.9726C7.98854 11.9821 7.97171 11.9912 7.95587 12C7.97171 12.0088 7.98854 12.0179 8.00641 12.0274C8.38723 12.2294 8.97076 12.4558 9.86784 12.8008C9.90232 12.8141 9.93634 12.8272 9.96993 12.8401C10.6042 13.0836 11.0833 13.2676 11.4966 13.5615C11.861 13.8206 12.1794 14.139 12.4385 14.5034C12.7324 14.9167 12.9164 15.3958 13.1599 16.0301C13.1728 16.0637 13.1859 16.0977 13.1992 16.1322C13.5442 17.0292 13.7706 17.6128 13.9726 17.9936C13.9821 18.0115 13.9912 18.0283 14 18.0441C14.0088 18.0283 14.0179 18.0115 14.0274 17.9936C14.2294 17.6128 14.4558 17.0292 14.8008 16.1322C14.8141 16.0977 14.8272 16.0637 14.8401 16.0301C15.0836 15.3958 15.2676 14.9167 15.5615 14.5034C15.8206 14.139 16.139 13.8206 16.5034 13.5615C16.9167 13.2676 17.3958 13.0836 18.0301 12.8401C18.0637 12.8272 18.0977 12.8141 18.1322 12.8008C19.0292 12.4558 19.6128 12.2294 19.9936 12.0274C20.0115 12.0179 20.0283 12.0088 20.0441 12C20.0283 11.9912 20.0115 11.9821 19.9936 11.9726C19.6128 11.7706 19.0292 11.5442 18.1322 11.1992C18.0977 11.1859 18.0637 11.1728 18.0301 11.1599C17.3958 10.9164 16.9167 10.7324 16.5034 10.4385C16.139 10.1794 15.8206 9.861 15.5615 9.49658C15.2676 9.08331 15.0836 8.60419 14.8401 7.96994C14.8272 7.93635 14.8141 7.90232 14.8008 7.86784C14.4558 6.97076 14.2294 6.38723 14.0274 6.00641C14.0179 5.98854 14.0088 5.97171 14 5.95587C13.9912 5.97171 13.9821 5.98854 13.9726 6.00641ZM4.5 16C5.05228 16 5.5 16.4477 5.5 17V18.5H7C7.55228 18.5 8 18.9477 8 19.5C8 20.0523 7.55228 20.5 7 20.5H5.5V22C5.5 22.5523 5.05228 23 4.5 23C3.94772 23 3.5 22.5523 3.5 22V20.5H2C1.44772 20.5 1 20.0523 1 19.5C1 18.9477 1.44772 18.5 2 18.5H3.5V17C3.5 16.4477 3.94772 16 4.5 16Z" fill="black"/>
</svg>
