<svg width="24" height="24" viewBox="0 0 24 24" fill="none" xmlns="http://www.w3.org/2000/svg">
<path fill-rule="evenodd" clip-rule="evenodd" d="M18.5979 4.50787C18.4552 4.58719 18.2854 4.68383 18.0792 4.80144C17.2145 5.29457 16.0033 5.76421 14.8284 6.10949C14.0426 6.34043 13.2085 6.5349 12.45 6.63669V12.764C13.2085 12.8658 14.0426 13.0603 14.8284 13.2912C16.0033 13.6365 17.2145 14.1061 18.0792 14.5993C18.2854 14.7169 18.4552 14.8135 18.5979 14.8928C18.5998 14.729 18.6 14.5317 18.6 14.2896V5.11108C18.6 4.86897 18.5998 4.67165 18.5979 4.50787ZM12.45 15.2927C12.9482 15.3781 13.523 15.5133 14.1235 15.6898C15.1936 16.0042 16.2048 16.4083 16.8406 16.7709L16.8812 16.794C17.2838 17.0237 17.6478 17.2313 17.9468 17.3725C18.2108 17.4971 18.6843 17.7054 19.2183 17.637C19.85 17.5561 20.3636 17.2282 20.7138 16.7159C20.9987 16.2993 21.0526 15.8212 21.0754 15.5213C21.1001 15.1967 21.1 14.7876 21.1 14.3349V14.2896V5.11108V5.06583C21.1 4.61311 21.1001 4.20396 21.0754 3.87944C21.0526 3.57954 20.9987 3.10143 20.7138 2.68481C20.3636 2.17251 19.85 1.84463 19.2183 1.76368C18.6843 1.69525 18.2108 1.90358 17.9468 2.02823C17.6478 2.16938 17.2839 2.37697 16.8812 2.60666L16.8406 2.62983C16.2048 2.99241 15.1936 3.39645 14.1235 3.71092C13.0412 4.029 12.0422 4.21298 11.425 4.21298H11.2H8.05C5.07021 4.21298 2.75 6.72364 2.75 9.70035C2.75 11.3539 3.466 12.8637 4.61333 13.8792L6.00141 19.6884C6.00399 19.6992 6.00657 19.71 6.00914 19.7208C6.04107 19.8547 6.07206 19.9847 6.11131 20.1059C6.48817 21.27 7.50897 22.1328 8.75209 22.2392C8.88061 22.2502 9.01513 22.2501 9.14536 22.25C9.15641 22.25 9.16743 22.25 9.17841 22.25C9.19248 22.25 9.20658 22.25 9.22071 22.25C9.38252 22.2501 9.54777 22.2503 9.69995 22.2348L9.57377 20.9912L9.69997 22.2348C11.1901 22.0836 12.3017 20.8657 12.4363 19.4139C12.4502 19.2635 12.4501 19.0993 12.45 18.9274C12.45 18.9133 12.45 18.8991 12.45 18.8849V15.2927ZM9.95 12.6877V6.71298H8.05C6.55628 6.71298 5.25 7.99659 5.25 9.70035C5.25 11.4041 6.55628 12.6877 8.05 12.6877H9.95ZM9.95 15.1877V18.8849C9.95 19.1282 9.94866 19.1645 9.94693 19.1831C9.91538 19.5235 9.67178 19.7242 9.44875 19.7475C9.44609 19.7477 9.43239 19.7485 9.39869 19.7491C9.35 19.75 9.28566 19.75 9.17841 19.75C9.09247 19.75 9.04213 19.75 9.00388 19.7494C8.97771 19.749 8.9671 19.7484 8.96485 19.7482C8.77708 19.732 8.57347 19.5944 8.48978 19.3359C8.48503 19.3212 8.47795 19.2957 8.43296 19.1074L7.4892 15.1577C7.67317 15.1775 7.86025 15.1877 8.05 15.1877H9.95Z" fill="black"/>
</svg>
