<svg width="24" height="24" viewBox="0 0 24 24" fill="none" xmlns="http://www.w3.org/2000/svg">
<path fill-rule="evenodd" clip-rule="evenodd" d="M8.91484 22.25C8.94313 22.25 8.97152 22.25 9 22.25H9.5C10.1904 22.25 10.75 21.6904 10.75 21C10.75 20.3096 10.1904 19.75 9.5 19.75H9C7.55045 19.75 6.58904 19.7473 5.87475 19.6513C5.19642 19.5601 4.93094 19.4058 4.76257 19.2374C4.59419 19.0691 4.43989 18.8036 4.34869 18.1253C4.25266 17.411 4.25 16.4496 4.25 15V14.5C4.25 13.8096 3.69036 13.25 3 13.25C2.30965 13.25 1.75 13.8096 1.75 14.5V15C1.75 15.0285 1.75 15.0569 1.75 15.0852C1.74995 16.4267 1.7499 17.5578 1.87098 18.4584C1.99945 19.4139 2.2845 20.2949 2.9948 21.0052C3.7051 21.7155 4.58608 22.0005 5.54163 22.129C6.44223 22.2501 7.57331 22.2501 8.91484 22.25ZM17.897 19.6486C17.0436 19.7481 15.9413 19.75 14.5 19.75C13.8096 19.75 13.25 20.3096 13.25 21C13.25 21.6904 13.8096 22.25 14.5 22.25L14.5639 22.25C15.9261 22.25 17.172 22.2501 18.1866 22.1318C19.1879 22.015 20.2525 21.7579 21.0052 21.0052C21.7579 20.2525 22.015 19.1879 22.1318 18.1866C22.2501 17.172 22.25 15.9261 22.25 14.564V14.5C22.25 13.8096 21.6904 13.25 21 13.25C20.3096 13.25 19.75 13.8096 19.75 14.5C19.75 15.9413 19.7481 17.0436 19.6486 17.897C19.5457 18.7796 19.3634 19.1115 19.2374 19.2374C19.1115 19.3634 18.7796 19.5457 17.897 19.6486ZM6.75 12C6.75 12.6904 7.30965 13.25 8 13.25H16C16.6904 13.25 17.25 12.6904 17.25 12C17.25 11.3096 16.6904 10.75 16 10.75H8C7.30965 10.75 6.75 11.3096 6.75 12ZM3 10.75C3.69036 10.75 4.25 10.1904 4.25 9.5C4.25 8.05865 4.25191 6.95642 4.35143 6.10296C4.45433 5.22042 4.63659 4.88853 4.76257 4.76256C4.88854 4.63659 5.22042 4.45433 6.10296 4.35142C6.95642 4.25191 8.05866 4.25 9.5 4.25C10.1904 4.25 10.75 3.69036 10.75 3C10.75 2.30964 10.1904 1.75 9.5 1.75H9.43604C8.07391 1.74997 6.82797 1.74994 5.81341 1.86825C4.81207 1.98501 3.74751 2.24209 2.9948 2.99479C2.24209 3.7475 1.98501 4.81207 1.86825 5.81341C1.74995 6.82797 1.74997 8.07392 1.75 9.43606L1.75 9.5C1.75 10.1904 2.30965 10.75 3 10.75ZM21 10.75C21.6904 10.75 22.25 10.1904 22.25 9.5V9.43604C22.25 8.07391 22.2501 6.82797 22.1318 5.81341C22.015 4.81207 21.7579 3.7475 21.0052 2.99479C20.2525 2.24209 19.1879 1.98501 18.1866 1.86825C17.172 1.74994 15.9261 1.74997 14.564 1.75H14.5C13.8096 1.75 13.25 2.30964 13.25 3C13.25 3.69036 13.8096 4.25 14.5 4.25C15.9413 4.25 17.0436 4.25191 17.897 4.35142C18.7796 4.45433 19.1115 4.63659 19.2374 4.76256C19.3634 4.88853 19.5457 5.22042 19.6486 6.10296C19.7481 6.95642 19.75 8.05865 19.75 9.5C19.75 10.1904 20.3096 10.75 21 10.75Z" fill="black"/>
</svg>
