<svg width="40" height="40" viewBox="0 0 40 40" fill="none" xmlns="http://www.w3.org/2000/svg">
<rect width="40" height="40" fill="white" fill-opacity="0.02"/>
<path fill-rule="evenodd" clip-rule="evenodd" d="M8.28745 10.7623C6.28104 13.3028 5.0835 16.5116 5.0835 20.0002C5.0835 23.4878 6.28045 26.696 8.28598 29.2361L12.4044 25.1177C10.321 22.0343 10.321 17.9627 12.4044 14.8793L8.28745 10.7623ZM6.9408 7.01453C3.62968 10.3443 1.5835 14.9333 1.5835 20.0002C1.5835 30.1714 9.82892 38.4168 20.0002 38.4168C30.1714 38.4168 38.4168 30.1714 38.4168 20.0002C38.4168 9.82892 30.1714 1.5835 20.0002 1.5835C14.9333 1.5835 10.3443 3.62968 7.01453 6.9408C7.00192 6.95269 6.98946 6.9648 6.97713 6.97713C6.9648 6.98946 6.95269 7.00193 6.9408 7.01453ZM10.7623 8.28745L14.8793 12.4044C17.9627 10.321 22.0343 10.321 25.1177 12.4044L29.2361 8.28598C26.696 6.28045 23.4878 5.0835 20.0002 5.0835C16.5116 5.0835 13.3028 6.28104 10.7623 8.28745ZM31.7114 10.7605L27.5926 14.8793C29.676 17.9627 29.676 22.0343 27.5926 25.1177L31.7129 29.238C33.7193 26.6975 34.9168 23.4887 34.9168 20.0002C34.9168 16.5108 33.7187 13.3012 31.7114 10.7605ZM29.238 31.7129L25.1177 27.5926C22.0343 29.676 17.9627 29.676 14.8793 27.5926L10.7605 31.7114C13.3012 33.7187 16.5108 34.9168 20.0002 34.9168C23.4887 34.9168 26.6975 33.7193 29.238 31.7129ZM23.9984 15.9986C21.7893 13.7896 18.2077 13.7896 15.9986 15.9986C13.7896 18.2077 13.7896 21.7893 15.9986 23.9984C18.2077 26.2074 21.7893 26.2074 23.9984 23.9984C26.2074 21.7893 26.2074 18.2077 23.9984 15.9986Z" fill="#008096"/>
</svg>
