<svg width="24" height="24" viewBox="0 0 24 24" fill="none" xmlns="http://www.w3.org/2000/svg">
<path fill-rule="evenodd" clip-rule="evenodd" d="M17.4032 6.44723C14.9824 4.08574 11.2004 3.51495 8.12874 5.28942C5.90053 6.57664 4.55259 8.80389 4.29909 11.1869C4.22606 11.8733 3.61036 12.3706 2.92388 12.2976C2.23739 12.2246 1.74009 11.6089 1.81312 10.9224C2.14744 7.77959 3.9286 4.82864 6.87819 3.12468C11.218 0.617575 16.629 1.64928 19.7741 5.32415L19.7926 5.25504C19.9712 4.58818 20.6566 4.19235 21.3234 4.37093C21.9903 4.54951 22.3861 5.23487 22.2075 5.90173L21.433 8.79394C21.3472 9.11424 21.1377 9.38733 20.8506 9.55313C20.5634 9.71892 20.2221 9.76382 19.9019 9.67795L17.0114 8.90299C16.3446 8.72421 15.9489 8.03873 16.1277 7.37193C16.2836 6.79036 16.825 6.41507 17.4032 6.44723ZM21.0757 11.7024C21.7622 11.7754 22.2595 12.3911 22.1864 13.0776C21.8521 16.2204 20.0709 19.1714 17.1214 20.8753C12.7817 23.3823 7.3711 22.3508 4.22589 18.6764L4.20752 18.745C4.02894 19.4118 3.34358 19.8077 2.67672 19.6291C2.00986 19.4505 1.61403 18.7652 1.79261 18.0983L2.56712 15.2061C2.65289 14.8858 2.86241 14.6127 3.14957 14.4469C3.43673 14.2811 3.778 14.2362 4.09827 14.3221L6.98877 15.097C7.65557 15.2758 8.0512 15.9613 7.87242 16.6281C7.71645 17.2099 7.17477 17.5852 6.5963 17.5528C9.01712 19.9143 12.7991 20.4851 15.8708 18.7106C18.099 17.4234 19.447 15.1961 19.7005 12.8132C19.7735 12.1267 20.3892 11.6294 21.0757 11.7024Z" fill="black"/>
</svg>
