<svg width="28" height="28" viewBox="0 0 28 28" fill="none" xmlns="http://www.w3.org/2000/svg">
<path fill-rule="evenodd" clip-rule="evenodd" d="M13.8813 6.14684C14.111 6.09178 14.3506 6.09178 14.5804 6.14684C14.7779 6.19418 15.001 6.31624 16.0613 7.02311L23.8988 12.2481C24.5881 12.7076 25.5194 12.5213 25.9789 11.832C26.4384 11.1428 26.2522 10.2114 25.5629 9.75192L17.7254 4.52696L17.5581 4.41517C16.7645 3.88448 16.0672 3.4182 15.2795 3.22944C14.5901 3.06425 13.8715 3.06425 13.1821 3.22944C12.3945 3.4182 11.6972 3.88448 10.9035 4.41517L10.7362 4.52696L2.89876 9.75192C2.20947 10.2114 2.02321 11.1428 2.48274 11.832C2.94226 12.5213 3.87357 12.7076 4.56286 12.2481L12.4003 7.02311C13.4606 6.31624 13.6837 6.19418 13.8813 6.14684ZM9.73081 14.5C9.73081 13.6716 9.05924 13 8.23081 13C7.40238 13 6.73081 13.6716 6.73081 14.5L6.73081 22.5C6.73081 23.3284 7.40238 24 8.23081 24C9.05924 24 9.73081 23.3284 9.73081 22.5L9.73081 14.5ZM15.7308 14.5C15.7308 13.6716 15.0592 13 14.2308 13C13.4024 13 12.7308 13.6716 12.7308 14.5V22.5C12.7308 23.3284 13.4024 24 14.2308 24C15.0592 24 15.7308 23.3284 15.7308 22.5V14.5ZM20.2308 13C21.0592 13 21.7308 13.6716 21.7308 14.5V22.5C21.7308 23.3284 21.0592 24 20.2308 24C19.4024 24 18.7308 23.3284 18.7308 22.5V14.5C18.7308 13.6716 19.4024 13 20.2308 13Z" fill="#111111"/>
</svg>
