<svg width="24" height="24" viewBox="0 0 24 24" fill="none" xmlns="http://www.w3.org/2000/svg">
<path fill-rule="evenodd" clip-rule="evenodd" d="M13.0418 5.0202C12.3949 4.65633 11.6051 4.65633 10.9582 5.0202L6.3332 7.62176C5.66408 7.99814 5.25 8.70616 5.25 9.47386V14.5261C5.25 15.2938 5.66408 16.0019 6.33319 16.3782L10.9582 18.9798C11.6051 19.3437 12.3949 19.3437 13.0418 18.9798L17.6668 16.3782C18.3359 16.0019 18.75 15.2938 18.75 14.5261V9.47386C18.75 8.70616 18.3359 7.99814 17.6668 7.62176L13.0418 5.0202ZM9.73254 2.84126C11.1405 2.04931 12.8595 2.04931 14.2675 2.84126L18.8925 5.44282C20.3488 6.262 21.25 7.80297 21.25 9.47386V14.5261C21.25 16.197 20.3488 17.738 18.8925 18.5572L14.2675 21.1587C12.8595 21.9507 11.1405 21.9507 9.73254 21.1587L5.10754 18.5572C3.65124 17.738 2.75 16.197 2.75 14.5261V9.47386C2.75 7.80297 3.65124 6.262 5.10754 5.44282L9.73254 2.84126ZM11.2191 8.02392C11.6757 7.6587 12.3243 7.6587 12.7809 8.02392L15.2809 10.0239C15.8199 10.4552 15.9073 11.2418 15.4761 11.7809C15.0448 12.3199 14.2582 12.4073 13.7191 11.9761L13.25 11.6008V15C13.25 15.6904 12.6904 16.25 12 16.25C11.3096 16.25 10.75 15.6904 10.75 15V11.6008L10.2809 11.9761C9.74179 12.4073 8.95518 12.3199 8.52391 11.7809C8.09265 11.2418 8.18005 10.4552 8.71913 10.0239L11.2191 8.02392Z" fill="black"/>
</svg>
