<svg width="24" height="24" viewBox="0 0 24 24" fill="none" xmlns="http://www.w3.org/2000/svg">
<path fill-rule="evenodd" clip-rule="evenodd" d="M9.59255 2.13375C10.4708 1.90605 11.3416 1.75 12 1.75C12.6584 1.75 13.5292 1.90605 14.4075 2.13375C15.3084 2.36733 16.3059 2.69973 17.2424 3.10107C18.1678 3.49766 19.0912 3.98599 19.8058 4.55015C20.4533 5.06134 21.25 5.88655 21.25 7C21.25 11.8403 19.3642 15.6055 17.3557 18.1495C16.3527 19.4199 15.3091 20.3992 14.4308 21.071C13.9929 21.4059 13.5812 21.6757 13.2224 21.8686C13.0438 21.9646 12.8616 22.0506 12.6838 22.1156C12.5301 22.1718 12.2811 22.25 12 22.25C11.7189 22.25 11.4699 22.1718 11.3162 22.1156C11.1384 22.0506 10.9562 21.9646 10.7776 21.8686C10.4188 21.6757 10.0071 21.4059 9.56924 21.071C8.69087 20.3993 7.64733 19.42 6.64433 18.1496C4.63576 15.6056 2.75 11.8405 2.75 7C2.75 5.88655 3.54669 5.06134 4.19419 4.55015C4.90879 3.98599 5.83222 3.49766 6.7576 3.10107C7.69406 2.69973 8.6916 2.36733 9.59255 2.13375ZM5.25003 7.03333C5.25863 11.1768 6.86944 14.4003 8.60648 16.6004C9.47862 17.705 10.3727 18.5382 11.0879 19.0852C11.4468 19.3597 11.746 19.5509 11.9613 19.6666C11.9748 19.6738 11.9877 19.6806 12 19.687C12.0123 19.6806 12.0252 19.6738 12.0387 19.6666C12.2539 19.5509 12.5531 19.3597 12.9121 19.0852C13.6273 18.5381 14.5214 17.705 15.3935 16.6003C17.1306 14.4002 18.7414 11.1767 18.75 7.03333C18.7418 7.02334 18.6767 6.84392 18.2567 6.51235C17.7838 6.13901 17.0822 5.75234 16.2576 5.39893C15.4441 5.05027 14.5666 4.75767 13.78 4.55375C12.9708 4.34395 12.3416 4.25 12 4.25C11.6584 4.25 11.0292 4.34395 10.22 4.55375C9.4334 4.75767 8.55594 5.05027 7.7424 5.39893C6.91778 5.75234 6.21621 6.13901 5.74331 6.51235C5.32332 6.84392 5.25822 7.02334 5.25003 7.03333ZM11.8056 19.7741C11.8056 19.7739 11.8097 19.7725 11.8174 19.7704C11.8093 19.7732 11.8055 19.7743 11.8056 19.7741ZM12.1826 19.7704C12.1903 19.7725 12.1943 19.7739 12.1944 19.7741C12.1945 19.7743 12.1907 19.7733 12.1826 19.7704ZM15.4811 8.61612C15.9692 9.10427 15.9692 9.89573 15.4811 10.3839L11.885 13.98C11.3968 14.4681 10.6054 14.4681 10.1172 13.98L8.51895 12.3817C8.03079 11.8935 8.03079 11.1021 8.51895 10.6139C9.0071 10.1258 9.79856 10.1258 10.2867 10.6139L11.0011 11.3283L13.7133 8.61612C14.2014 8.12796 14.9929 8.12796 15.4811 8.61612Z" fill="black"/>
</svg>
