<svg width="24" height="24" viewBox="0 0 24 24" fill="none" xmlns="http://www.w3.org/2000/svg">
<path fill-rule="evenodd" clip-rule="evenodd" d="M9.92943 1.00482L10 1.00482H14.3889C14.6634 1.00482 14.9257 1.11761 15.1146 1.31675L20.7256 7.23426C20.9018 7.42004 21 7.66631 21 7.92233V16.9951V17.0657C21 18.4198 21.0001 19.5364 20.8813 20.4202C20.7565 21.348 20.4845 22.1674 19.8284 22.8235C19.1723 23.4796 18.3529 23.7516 17.4251 23.8764C16.5413 23.9952 15.4247 23.9951 14.0706 23.9951H14H10H9.9294C8.57529 23.9951 7.45869 23.9952 6.57494 23.8764C5.64711 23.7516 4.82768 23.4796 4.17158 22.8235C3.51547 22.1674 3.2435 21.348 3.11875 20.4202C2.99994 19.5364 2.99997 18.4198 3 17.0657L3 16.9951V8.00482L3 7.93425C2.99997 6.58013 2.99994 5.46352 3.11875 4.57976C3.2435 3.65193 3.51547 2.83251 4.17158 2.1764C4.82768 1.52029 5.64711 1.24832 6.57494 1.12358C7.4587 1.00476 8.57531 1.00479 9.92943 1.00482ZM6.84143 3.10574C6.13538 3.20067 5.80836 3.36804 5.58579 3.59061C5.36322 3.81318 5.19585 4.1402 5.10092 4.84626C5.00213 5.58108 5 6.56234 5 8.00482V16.9951C5 18.4376 5.00213 19.4189 5.10092 20.1537C5.19585 20.8597 5.36322 21.1868 5.58579 21.4093C5.80836 21.6319 6.13538 21.7993 6.84143 21.8942C7.57625 21.993 8.55752 21.9951 10 21.9951H14C15.4425 21.9951 16.4238 21.993 17.1586 21.8942C17.8646 21.7993 18.1916 21.6319 18.4142 21.4093C18.6368 21.1868 18.8042 20.8597 18.8991 20.1537C18.9979 19.4189 19 18.4376 19 16.9951V8.92233H16.3889C16.3708 8.92233 16.3526 8.92233 16.3345 8.92233C15.9104 8.92242 15.4983 8.9225 15.1584 8.8768C14.7752 8.82528 14.3379 8.69976 13.9747 8.33654C13.6115 7.97332 13.486 7.53605 13.4344 7.15284C13.3887 6.81293 13.3888 6.4008 13.3889 5.97674C13.3889 5.95862 13.3889 5.94048 13.3889 5.92232V3.00482H10C8.55752 3.00482 7.57625 3.00695 6.84143 3.10574ZM15.3889 4.51278L17.6737 6.92233H16.3889C15.8892 6.92233 15.6151 6.9202 15.4249 6.89463C15.4224 6.8943 15.42 6.89397 15.4176 6.89363C15.4173 6.89126 15.4169 6.88883 15.4166 6.88635C15.391 6.69616 15.3889 6.422 15.3889 5.92232V4.51278ZM7.5 14.9563C7.5 14.404 7.94772 13.9563 8.5 13.9563H11.5C12.0523 13.9563 12.5 14.404 12.5 14.9563C12.5 15.5086 12.0523 15.9563 11.5 15.9563H8.5C7.94772 15.9563 7.5 15.5086 7.5 14.9563ZM7.5 18.4733C7.5 17.921 7.94772 17.4733 8.5 17.4733H15.5C16.0523 17.4733 16.5 17.921 16.5 18.4733C16.5 19.0256 16.0523 19.4733 15.5 19.4733H8.5C7.94772 19.4733 7.5 19.0256 7.5 18.4733Z" fill="black"/>
</svg>
