<svg width="24" height="24" viewBox="0 0 24 24" fill="none" xmlns="http://www.w3.org/2000/svg">
<path fill-rule="evenodd" clip-rule="evenodd" d="M9.92943 1.11109L10 1.11109H14.3889C14.6625 1.11109 14.9242 1.22319 15.1129 1.42126L20.724 7.31018C20.9012 7.49614 21 7.74315 21 8V17V17.0705C21 18.4247 21.0001 19.5413 20.8813 20.425C20.7565 21.3529 20.4845 22.1723 19.8284 22.8284C19.1723 23.4845 18.3529 23.7565 17.4251 23.8812C16.5413 24 15.4247 24 14.0705 24H14H10H9.92946C8.57533 24 7.4587 24 6.57494 23.8812C5.64711 23.7565 4.82768 23.4845 4.17158 22.8284C3.51547 22.1723 3.2435 21.3529 3.11875 20.425C2.99994 19.5413 2.99997 18.4247 3 17.0705L3 17V8.11108L3 8.04051C2.99997 6.68639 2.99994 5.56978 3.11875 4.68602C3.2435 3.75819 3.51547 2.93877 4.17158 2.28266C4.82768 1.62655 5.64711 1.35458 6.57494 1.22984C7.4587 1.11102 8.57531 1.11105 9.92943 1.11109ZM6.84143 3.212C6.13538 3.30693 5.80836 3.4743 5.58579 3.69687C5.36322 3.91944 5.19585 4.24647 5.10092 4.95252C5.00213 5.68734 5 6.6686 5 8.11108V17C5 18.4425 5.00213 19.4237 5.10092 20.1585C5.19585 20.8646 5.36322 21.1916 5.58579 21.4142C5.80836 21.6368 6.13538 21.8041 6.84143 21.8991C7.57625 21.9979 8.55752 22 10 22H14C15.4425 22 16.4238 21.9979 17.1586 21.8991C17.8646 21.8041 18.1916 21.6368 18.4142 21.4142C18.6368 21.1916 18.8042 20.8646 18.8991 20.1585C18.9979 19.4237 19 18.4425 19 17V9H16.3889C16.3708 9 16.3526 9.00001 16.3345 9.00001C15.9104 9.00009 15.4983 9.00017 15.1584 8.95447C14.7752 8.90295 14.3379 8.77743 13.9747 8.41422C13.6115 8.051 13.486 7.61372 13.4344 7.23052C13.3887 6.89061 13.3888 6.47848 13.3889 6.05441C13.3889 6.0363 13.3889 6.01816 13.3889 6V3.11109H10C8.55752 3.11109 7.57625 3.11321 6.84143 3.212ZM15.3889 4.61025L17.6659 7H16.3889C15.8892 7 15.6151 6.99788 15.4249 6.97231C15.4224 6.97197 15.42 6.97164 15.4176 6.97131C15.4173 6.96893 15.4169 6.9665 15.4166 6.96403C15.391 6.77383 15.3889 6.49968 15.3889 6V4.61025ZM6.5 13C6.5 12.4477 6.94772 12 7.5 12H11C11.5523 12 12 12.4477 12 13C12 13.5523 11.5523 14 11 14H7.5C6.94772 14 6.5 13.5523 6.5 13ZM6.5 16.5C6.5 15.9477 6.94772 15.5 7.5 15.5H16.5C17.0523 15.5 17.5 15.9477 17.5 16.5C17.5 17.0523 17.0523 17.5 16.5 17.5H7.5C6.94772 17.5 6.5 17.0523 6.5 16.5Z" fill="black"/>
</svg>
