<svg width="24" height="24" viewBox="0 0 24 24" fill="none" xmlns="http://www.w3.org/2000/svg">
<path fill-rule="evenodd" clip-rule="evenodd" d="M8.91484 1.75C8.94313 1.75 8.97152 1.75 9 1.75H10C10.6904 1.75 11.25 2.30965 11.25 3C11.25 3.69036 10.6904 4.25 10 4.25H9C7.55045 4.25 6.58904 4.25266 5.87475 4.34869C5.19642 4.43989 4.93095 4.59419 4.76257 4.76257C4.59419 4.93095 4.43989 5.19642 4.34869 5.87475C4.25266 6.58904 4.25 7.55045 4.25 9V15C4.25 16.4496 4.25266 17.411 4.34869 18.1253C4.43989 18.8036 4.59419 19.0691 4.76257 19.2374C4.93095 19.4058 5.19642 19.5601 5.87475 19.6513C6.58904 19.7473 7.55045 19.75 9 19.75H15C16.4496 19.75 17.411 19.7473 18.1253 19.6513C18.8036 19.5601 19.0691 19.4058 19.2374 19.2374C19.4058 19.0691 19.5601 18.8036 19.6513 18.1253C19.7473 17.411 19.75 16.4496 19.75 15V14C19.75 13.3096 20.3096 12.75 21 12.75C21.6904 12.75 22.25 13.3096 22.25 14V15L22.25 15.0852C22.2501 16.4267 22.2501 17.5578 22.129 18.4584C22.0006 19.4139 21.7155 20.2949 21.0052 21.0052C20.2949 21.7155 19.4139 22.0006 18.4584 22.129C17.5578 22.2501 16.4267 22.2501 15.0852 22.25L15 22.25H9L8.91483 22.25C7.57331 22.2501 6.44223 22.2501 5.54163 22.129C4.58608 22.0006 3.7051 21.7155 2.9948 21.0052C2.2845 20.2949 1.99946 19.4139 1.87099 18.4584C1.7499 17.5578 1.74995 16.4267 1.75 15.0852L1.75 15V9C1.75 8.97152 1.75 8.94313 1.75 8.91484C1.74995 7.57331 1.7499 6.44223 1.87099 5.54163C1.99946 4.58608 2.2845 3.7051 2.9948 2.9948C3.7051 2.2845 4.58608 1.99946 5.54163 1.87099C6.44223 1.7499 7.57331 1.74995 8.91484 1.75ZM15 4.25C14.3096 4.25 13.75 3.69036 13.75 3C13.75 2.30965 14.3096 1.75 15 1.75H21C21.6904 1.75 22.25 2.30965 22.25 3V9C22.25 9.69036 21.6904 10.25 21 10.25C20.3096 10.25 19.75 9.69036 19.75 9V6.01777L12.8839 12.8839C12.3957 13.372 11.6043 13.372 11.1161 12.8839C10.628 12.3957 10.628 11.6043 11.1161 11.1161L17.9822 4.25H15Z" fill="black"/>
</svg>
