<svg width="24" height="24" viewBox="0 0 24 24" fill="none" xmlns="http://www.w3.org/2000/svg">
<path fill-rule="evenodd" clip-rule="evenodd" d="M1.75 15.0852C1.75 15.0569 1.75 15.0285 1.75 15L1.75 14C1.75 13.3096 2.30965 12.75 3 12.75C3.69036 12.75 4.25 13.3096 4.25 14L4.25 15C4.25001 16.4496 4.25266 17.411 4.34869 18.1253C4.43989 18.8036 4.59419 19.0691 4.76257 19.2374C4.93095 19.4058 5.19642 19.5601 5.87475 19.6513C6.58904 19.7473 7.55045 19.75 9.00001 19.75H15C16.4496 19.75 17.411 19.7473 18.1253 19.6513C18.8036 19.5601 19.0691 19.4058 19.2374 19.2374C19.4058 19.0691 19.5601 18.8036 19.6513 18.1253C19.7473 17.411 19.75 16.4495 19.75 15V14C19.75 13.3096 20.3096 12.75 21 12.75C21.6904 12.75 22.25 13.3096 22.25 14V15L22.25 15.0852C22.2501 16.4267 22.2501 17.5578 22.129 18.4584C22.0006 19.4139 21.7155 20.2949 21.0052 21.0052C20.2949 21.7155 19.4139 22.0005 18.4584 22.129C17.5578 22.2501 16.4267 22.2501 15.0852 22.25L15 22.25H9.00001C8.97152 22.25 8.94314 22.25 8.91484 22.25C7.57332 22.2501 6.44223 22.2501 5.54163 22.129C4.58608 22.0005 3.7051 21.7155 2.9948 21.0052C2.2845 20.2949 1.99946 19.4139 1.87099 18.4584C1.7499 17.5578 1.74995 16.4267 1.75 15.0852ZM6.11612 8.88388C5.62797 8.39573 5.62797 7.60427 6.11612 7.11612L11.1161 2.11612C11.3505 1.8817 11.6685 1.75 12 1.75C12.3315 1.75 12.6495 1.8817 12.8839 2.11612L17.8839 7.11612C18.372 7.60427 18.372 8.39573 17.8839 8.88388C17.3957 9.37204 16.6043 9.37204 16.1161 8.88388L13.25 6.01777L13.25 15C13.25 15.6904 12.6904 16.25 12 16.25C11.3096 16.25 10.75 15.6904 10.75 15L10.75 6.01777L7.88389 8.88388C7.39573 9.37204 6.60428 9.37204 6.11612 8.88388Z" fill="black"/>
</svg>
