<svg width="24" height="24" viewBox="0 0 24 24" fill="none" xmlns="http://www.w3.org/2000/svg">
<path fill-rule="evenodd" clip-rule="evenodd" d="M1.75 12C1.75 6.33908 6.33908 1.75 12 1.75C17.6609 1.75 22.25 6.33908 22.25 12C22.25 17.6609 17.6609 22.25 12 22.25C10.6389 22.25 9.3368 21.984 8.14514 21.5001C8.07336 21.4709 8.02404 21.4509 7.98699 21.4363C7.98487 21.4367 7.9827 21.437 7.98047 21.4374C7.94979 21.4423 7.91432 21.4482 7.86815 21.4559L4.31026 22.0489C4.29987 22.0506 4.28931 22.0524 4.27859 22.0542C4.1212 22.0805 3.93074 22.1123 3.76286 22.125C3.57762 22.1389 3.25926 22.1462 2.91845 22C2.5058 21.823 2.17696 21.4942 1.99997 21.0815C1.85379 20.7407 1.86105 20.4224 1.87504 20.2371C1.88771 20.0693 1.91954 19.8788 1.94585 19.7214C1.94764 19.7107 1.9494 19.7001 1.95113 19.6897L2.54412 16.1319C2.55181 16.0857 2.55772 16.0502 2.56264 16.0195C2.563 16.0173 2.56335 16.0151 2.56369 16.013C2.54906 15.9759 2.52908 15.9266 2.49993 15.8549C2.01597 14.6632 1.75 13.3611 1.75 12ZM12 4.25C7.71979 4.25 4.25 7.71979 4.25 12C4.25 13.0332 4.45151 14.0162 4.8162 14.9142C4.82205 14.9286 4.82824 14.9437 4.83468 14.9595C4.89419 15.1049 4.97555 15.3037 5.01773 15.4919C5.05555 15.6606 5.07218 15.8108 5.07221 15.9837C5.07223 16.1758 5.03956 16.3687 5.01668 16.5038C5.01438 16.5174 5.01217 16.5305 5.0101 16.5428L4.52069 19.4793L7.45715 18.9899C7.46955 18.9878 7.48259 18.9856 7.49622 18.9833C7.63131 18.9604 7.82419 18.9278 8.01629 18.9278C8.18923 18.9278 8.33937 18.9444 8.50812 18.9823C8.6963 19.0245 8.89515 19.1058 9.04056 19.1653C9.05631 19.1718 9.07143 19.178 9.08584 19.1838C9.98381 19.5485 10.9668 19.75 12 19.75C16.2802 19.75 19.75 16.2802 19.75 12C19.75 7.71979 16.2802 4.25 12 4.25ZM4.36779 20.4277C4.36779 20.4277 4.36781 20.4271 4.3679 20.4259L4.36779 20.4277Z" fill="black"/>
</svg>
