<svg width="56" height="56" viewBox="0 0 56 56" fill="none" xmlns="http://www.w3.org/2000/svg">
<rect width="56" height="56" rx="20" fill="#008096"/>
<path fill-rule="evenodd" clip-rule="evenodd" d="M28.1419 9.17173C27.7447 8.94276 27.2553 8.94276 26.8581 9.17173L19.6411 13.3323C19.2444 13.561 19 13.9834 19 14.4405V22.7635C19 23.2207 19.2444 23.6431 19.6411 23.8718L24.535 26.6931C24.9317 26.9218 25.1761 27.3443 25.1761 27.8014V43.72V44.04C25.1761 44.5702 25.6069 45 26.1384 45H26.4591H28.5409H28.8657C29.3971 45 29.8279 44.5702 29.8279 44.04V27.7001C29.8611 27.2826 30.0977 26.9048 30.465 26.6931L35.3589 23.8718C35.7556 23.6431 36 23.2207 36 22.7635V14.4405C36 13.9834 35.7556 13.561 35.3589 13.3323L28.1419 9.17173ZM27.9867 14.4493C27.6872 14.2751 27.3168 14.2751 27.0173 14.4493L24.1298 16.1291C23.8341 16.3011 23.6523 16.6169 23.6523 16.9584V20.3344C23.6523 20.6759 23.8341 20.9917 24.1298 21.1637L27.0173 22.8435C27.3168 23.0177 27.6872 23.0177 27.9867 22.8435L30.8742 21.1637C31.1699 20.9917 31.3517 20.6759 31.3517 20.3344V16.9584C31.3517 16.6169 31.1699 16.3011 30.8742 16.1291L27.9867 14.4493ZM32.7962 36.0823C32.1547 35.709 31.3491 36.1706 31.3491 36.9115L31.3491 37.4801L31.3491 41.9602V42.5288C31.3491 43.2697 32.1547 43.7313 32.7962 43.358L34.7207 42.238C35.0163 42.066 35.1981 41.7502 35.1981 41.4088V38.0315C35.1981 37.6901 35.0163 37.3744 34.7207 37.2023L32.7962 36.0823Z" fill="white"/>
</svg>
