<svg width="152" height="52" viewBox="0 0 152 52" fill="none" xmlns="http://www.w3.org/2000/svg">
<path d="M150 50L148.763 45.0306C148.557 44.2034 148.143 43.4427 147.56 42.8206L147.271 42.5119C147.144 42.3764 147.037 42.2239 146.952 42.0587L146.248 40.6848C145.851 39.9103 144.761 39.8657 144.302 40.6053V40.6053C143.841 41.3492 142.742 41.2987 142.351 40.5157L140.402 36.6141C140.351 36.5125 140.308 36.4074 140.272 36.2997L139.726 34.6557C139.247 33.2149 137.258 33.0885 136.601 34.4571V34.4571C136.032 35.6421 134.387 35.7511 133.666 34.6515L133.562 34.4927C132.821 33.3613 131.142 33.4246 130.488 34.6087L130.129 35.2591C129.765 35.9185 128.929 36.1489 128.278 35.7692V35.7692L127.479 35.2077C126.303 34.3819 124.748 34.3372 123.527 35.094V35.094C122.822 35.5307 122.291 36.1977 122.022 36.9819L120.219 42.2515C119.922 43.1181 119.026 43.6273 118.13 43.4385L117.949 43.4003C117.448 43.2949 116.929 43.4553 116.575 43.8245V43.8245C115.898 44.5313 114.733 44.3976 114.234 43.5556L112.845 41.2152C112.437 40.5278 111.809 39.9983 111.063 39.7124L108.7 38.8071C108.368 38.6797 108.05 38.5157 107.754 38.318V38.318C106.642 37.5759 105.27 37.3319 103.97 37.6449L103.727 37.7035C103.124 37.8488 102.55 38.0976 102.032 38.4389L100.139 39.6855C99.9761 39.7924 99.8215 39.9111 99.6762 40.0404L99.4245 40.2643C97.878 41.6401 95.5036 41.4793 94.1567 39.9076L93.6425 39.3074C93.2661 38.8682 92.7166 38.6154 92.1381 38.6154V38.6154C91.5063 38.6154 90.9124 38.9168 90.5393 39.4267L90.1723 39.9283C89.0435 41.471 86.6962 41.3252 85.7671 39.6546L85.5295 39.2273C85.2138 38.6597 84.6152 38.3077 83.9657 38.3077V38.3077C83.2251 38.3077 82.561 38.764 82.2954 39.4553L82.1912 39.7266C81.4117 41.7555 78.4799 41.5616 77.9744 39.4477L77.5288 37.5841C77.3568 36.8649 76.908 36.2427 76.2798 35.8526L76.2043 35.8057C75.7599 35.5297 75.3947 35.1431 75.1445 34.6836L73.8427 32.2933C73.3673 31.4205 72.2604 31.12 71.409 31.6326V31.6326C70.8069 31.995 70.0462 31.9612 69.4787 31.5466L69.3098 31.4233C69.1352 31.2957 68.9416 31.1965 68.7362 31.1291L68.5333 31.0626C67.8017 30.8228 67.1728 30.3423 66.7491 29.6995V29.6995C65.6354 28.0099 63.3035 27.6562 61.7391 28.94L61.1973 29.3846L60.9677 29.6058C60.0781 30.4627 58.6354 30.3312 57.9154 29.3276V29.3276C57.3349 28.5184 56.2526 28.251 55.362 28.6966L55.2367 28.7594C54.4747 29.1407 53.5606 29.0455 52.8934 28.5154L51.633 27.5138C51.089 27.0815 50.4147 26.8462 49.7199 26.8462H49.224C48.5472 26.8462 47.9116 26.5209 47.5158 25.972V25.972C46.5532 24.6374 44.5005 24.8726 43.8649 26.3904L43.4222 27.4477C43.2288 27.9097 42.9127 28.31 42.5083 28.6054L40.9656 29.7323C40.6168 29.9871 40.1483 30.0047 39.7813 29.7768V29.7768C39.2039 29.4182 38.4429 29.6882 38.2206 30.3305L34.9901 39.6659C34.8987 39.93 34.603 40.0619 34.3454 39.9533V39.9533C34.1878 39.8869 34.077 39.7422 34.0541 39.5727L31.0111 17.0938C30.9959 16.981 30.9595 16.872 30.904 16.7726L30.8785 16.7269C30.5796 16.1915 29.8363 16.123 29.4445 16.5947V16.5947C28.9872 17.1454 28.0979 16.9419 27.9255 16.2471L26.568 10.7752C26.4144 10.1557 25.6754 9.89771 25.1695 10.287V10.287C24.6759 10.6668 23.9548 10.4314 23.7804 9.8334L21.9381 3.51529C21.7767 2.96164 21.0245 2.88363 20.7529 3.39236V3.39236C20.7017 3.4882 20.6271 3.56952 20.536 3.62874L17.9909 5.28356C17.6578 5.50012 17.2691 5.61538 16.8718 5.61538H16.5617C16.1601 5.61538 15.7784 5.79066 15.5166 6.09533V6.09533C14.837 6.88639 13.5589 6.66484 13.1852 5.69118L13.0533 5.34756C13.0234 5.26982 12.9876 5.19453 12.946 5.12238L12.2447 3.90545C11.8313 3.18811 10.8744 3.01055 10.2312 3.53183V3.53183C9.61551 4.03077 8.70419 3.89247 8.26429 3.23333L8.04053 2.89806C7.67429 2.34929 7.02549 2.05957 6.37241 2.15317L2 2.77978" stroke="#F4F4F4" stroke-width="3" stroke-linecap="round"/>
</svg>
