<svg width="24" height="24" viewBox="0 0 24 24" fill="none" xmlns="http://www.w3.org/2000/svg">
<path fill-rule="evenodd" clip-rule="evenodd" d="M12 4.25C7.71979 4.25 4.25 7.71979 4.25 12C4.25 16.2802 7.71979 19.75 12 19.75C16.2802 19.75 19.75 16.2802 19.75 12C19.75 7.71979 16.2802 4.25 12 4.25ZM1.75 12C1.75 6.33908 6.33908 1.75 12 1.75C17.6609 1.75 22.25 6.33908 22.25 12C22.25 17.6609 17.6609 22.25 12 22.25C6.33908 22.25 1.75 17.6609 1.75 12ZM10 7.75C10.6904 7.75 11.25 8.30964 11.25 9V15C11.25 15.6904 10.6904 16.25 10 16.25C9.30964 16.25 8.75 15.6904 8.75 15V9C8.75 8.30964 9.30964 7.75 10 7.75ZM14 7.75C14.6904 7.75 15.25 8.30964 15.25 9V15C15.25 15.6904 14.6904 16.25 14 16.25C13.3096 16.25 12.75 15.6904 12.75 15V9C12.75 8.30964 13.3096 7.75 14 7.75Z" fill="black"/>
</svg>
