<svg width="24" height="24" viewBox="0 0 24 24" fill="none" xmlns="http://www.w3.org/2000/svg">
<path fill-rule="evenodd" clip-rule="evenodd" d="M4.76255 4.4535C5.00378 4.01929 5.46145 3.75 5.95817 3.75H12H18.0418C18.5386 3.75 18.9962 4.0193 19.2375 4.45351L19.3214 4.60457C20.0041 5.83348 21.0895 6.78952 22.3948 7.31163C22.9113 7.51823 23.25 8.01848 23.25 8.57478V15.4252C23.25 15.9815 22.9113 16.4818 22.3948 16.6884C21.0895 17.2105 20.0041 18.1665 19.3214 19.3954L19.2375 19.5465C18.9962 19.9807 18.5385 20.25 18.0418 20.25H5.95817C5.46145 20.25 5.00378 19.9807 4.76255 19.5465L4.67862 19.3954C3.99589 18.1665 2.91046 17.2105 1.60519 16.6884C1.08869 16.4818 0.75 15.9815 0.75 15.4252V8.57478C0.75 8.01848 1.08869 7.51823 1.60519 7.31163C2.91046 6.78952 3.99589 5.83348 4.67862 4.60457L4.76255 4.4535ZM6.60768 6.25C5.78132 7.55256 4.62096 8.608 3.25 9.30761V14.6924C4.62096 15.392 5.78132 16.4474 6.60768 17.75H17.3923C18.2187 16.4474 19.379 15.392 20.75 14.6924V9.30761C19.379 8.608 18.2187 7.55256 17.3923 6.25H12H6.60768ZM9.93766 7.74999C9.95847 7.74999 9.97925 7.75 10 7.75H14C14.0207 7.75 14.0415 7.74999 14.0623 7.74999C14.479 7.74987 14.9067 7.74974 15.2638 7.79776C15.6748 7.85301 16.1736 7.9916 16.591 8.40901C17.0084 8.82642 17.147 9.32524 17.2022 9.73617C17.2503 10.0933 17.2501 10.521 17.25 10.9376C17.25 10.9585 17.25 10.9793 17.25 11V13C17.25 13.0207 17.25 13.0415 17.25 13.0624C17.2501 13.479 17.2503 13.9067 17.2022 14.2638C17.147 14.6748 17.0084 15.1736 16.591 15.591C16.1736 16.0084 15.6748 16.147 15.2638 16.2022C14.9067 16.2503 14.479 16.2501 14.0624 16.25C14.0415 16.25 14.0207 16.25 14 16.25H10C9.97925 16.25 9.95846 16.25 9.93765 16.25C9.52102 16.2501 9.09329 16.2503 8.73617 16.2022C8.32524 16.147 7.82642 16.0084 7.40901 15.591C6.9916 15.1736 6.85301 14.6748 6.79776 14.2638C6.74974 13.9067 6.74987 13.479 6.74999 13.0623C6.74999 13.0415 6.75 13.0207 6.75 13V11C6.75 10.9793 6.74999 10.9585 6.74999 10.9377C6.74987 10.521 6.74974 10.0933 6.79776 9.73617C6.85301 9.32524 6.9916 8.82642 7.40901 8.40901C7.82642 7.9916 8.32524 7.85301 8.73617 7.79776C9.0933 7.74974 9.52102 7.74987 9.93766 7.74999ZM9.25961 10.2596C9.25743 10.3029 9.25559 10.3522 9.25418 10.4082C9.25008 10.5706 9.25 10.7597 9.25 11V13C9.25 13.2403 9.25008 13.4294 9.25418 13.5918C9.25559 13.6478 9.25743 13.6971 9.25961 13.7404C9.30294 13.7426 9.35216 13.7444 9.40824 13.7458C9.57058 13.7499 9.75965 13.75 10 13.75H14C14.2403 13.75 14.4294 13.7499 14.5918 13.7458C14.6478 13.7444 14.6971 13.7426 14.7404 13.7404C14.7426 13.6971 14.7444 13.6478 14.7458 13.5918C14.7499 13.4294 14.75 13.2403 14.75 13V11C14.75 10.7597 14.7499 10.5706 14.7458 10.4082C14.7444 10.3522 14.7426 10.3029 14.7404 10.2596C14.6971 10.2574 14.6478 10.2556 14.5918 10.2542C14.4294 10.2501 14.2403 10.25 14 10.25H10C9.75965 10.25 9.57058 10.2501 9.40824 10.2542C9.35216 10.2556 9.30294 10.2574 9.25961 10.2596Z" fill="black"/>
</svg>
