<svg width="24" height="24" viewBox="0 0 24 24" fill="none" xmlns="http://www.w3.org/2000/svg">
<path fill-rule="evenodd" clip-rule="evenodd" d="M8.91484 3.75072C8.94313 3.75072 8.97152 3.75072 9 3.75072H14.9986L15.0837 3.75072C16.4252 3.75066 17.5563 3.75062 18.4569 3.8717C19.4125 4.00017 20.2935 4.28521 21.0038 4.99552C21.7141 5.70582 21.9991 6.58679 22.1276 7.54234C22.2487 8.44294 22.2486 9.57402 22.2486 10.9155L22.2486 11.0007V13.0007L22.2486 13.0859C22.2486 14.4274 22.2487 15.5585 22.1276 16.4591C21.9991 17.4146 21.7141 18.2956 21.0038 19.0059C20.2935 19.7162 19.4125 20.0013 18.4569 20.1297C17.5563 20.2508 16.4253 20.2508 15.0837 20.2507L14.9986 20.2507H9L8.91483 20.2507C7.57331 20.2508 6.44222 20.2508 5.54163 20.1297C4.58608 20.0013 3.7051 19.7162 2.9948 19.0059C2.2845 18.2956 1.99945 17.4146 1.87098 16.4591C1.7499 15.5585 1.74995 14.4274 1.75 13.0859L1.75 13.0007V11.0007C1.75 10.9722 1.75 10.9438 1.75 10.9156C1.74995 9.57403 1.7499 8.44294 1.87098 7.54234C1.99945 6.58679 2.2845 5.70582 2.9948 4.99552C3.7051 4.28521 4.58608 4.00017 5.54163 3.8717C6.44223 3.75062 7.57331 3.75066 8.91484 3.75072ZM5.87475 6.34941C5.19642 6.44061 4.93094 6.5949 4.76257 6.76328C4.61937 6.90647 4.48637 7.11989 4.39369 7.59772L9.89884 10.7001C10.5795 11.0837 11.0137 11.3268 11.3661 11.4826C11.6934 11.6274 11.8618 11.655 11.9906 11.655C12.1194 11.6551 12.2877 11.6276 12.6152 11.4832C12.9678 11.3277 13.4022 11.085 14.0833 10.702L19.6048 7.59735C19.5121 7.11977 19.3791 6.90644 19.236 6.76328C19.0676 6.5949 18.8021 6.44061 18.1238 6.34941C17.4095 6.25337 16.4481 6.25072 14.9986 6.25072H9C7.55045 6.25072 6.58904 6.25337 5.87475 6.34941ZM19.7481 10.3849L15.3086 12.8812L15.2608 12.908C14.6414 13.2564 14.1009 13.5603 13.6241 13.7706C13.1101 13.9973 12.5857 14.1553 11.9894 14.155C11.3931 14.1548 10.8689 13.9963 10.355 13.769C9.87847 13.5583 9.33835 13.2539 8.71932 12.905L8.67147 12.878L4.25047 10.3867C4.25006 10.5811 4.25 10.7855 4.25 11.0007V13.0007C4.25 14.4503 4.25266 15.4117 4.34869 16.126C4.43989 16.8043 4.59419 17.0698 4.76257 17.2382C4.93094 17.4065 5.19642 17.5608 5.87475 17.652C6.58904 17.7481 7.55045 17.7507 9 17.7507H14.9986C16.4481 17.7507 17.4095 17.7481 18.1238 17.652C18.8021 17.5608 19.0676 17.4065 19.236 17.2382C19.4044 17.0698 19.5587 16.8043 19.6499 16.126C19.7459 15.4117 19.7486 14.4503 19.7486 13.0007V11.0007C19.7486 10.7849 19.7485 10.5799 19.7481 10.3849Z" fill="black"/>
</svg>
