<svg width="24" height="24" viewBox="0 0 24 24" fill="none" xmlns="http://www.w3.org/2000/svg">
<path fill-rule="evenodd" clip-rule="evenodd" d="M13.4651 1.86166C13.9664 2.08906 14.2599 2.61759 14.188 3.1633L13.4255 8.95H18.918C18.9307 8.95 18.9435 8.95 18.9564 8.94999C19.1807 8.94994 19.4224 8.94987 19.6228 8.96708C19.8058 8.9828 20.2167 9.02616 20.5843 9.30796C20.9996 9.62632 21.2585 10.1275 21.2498 10.6767C21.242 11.1689 20.9903 11.5272 20.8842 11.673C20.7665 11.8347 20.6083 12.0146 20.4661 12.1764C20.4574 12.1863 20.4487 12.1961 20.4402 12.2059L11.9904 21.825C11.6271 22.2385 11.0361 22.3657 10.5349 22.1383C10.0336 21.9109 9.7401 21.3824 9.812 20.8367L10.5745 15.05H5.08202C5.06927 15.05 5.05646 15.05 5.04358 15.05C4.81933 15.0501 4.5776 15.0501 4.37722 15.0329C4.19424 15.0172 3.7833 14.9738 3.41571 14.692C3.00042 14.3737 2.74148 13.8725 2.75021 13.3233C2.75804 12.8311 3.00968 12.4728 3.11583 12.327C3.23354 12.1653 3.39168 11.9854 3.53395 11.8236C3.54265 11.8137 3.55128 11.8039 3.55984 11.7941L12.0096 2.17504C12.3729 1.76151 12.9639 1.63426 13.4651 1.86166ZM6.22343 12.55H12C12.36 12.55 12.7025 12.7052 12.9398 12.9759C13.1772 13.2465 13.2863 13.6064 13.2393 13.9633L12.8282 17.0832L17.7766 11.45H12C11.64 11.45 11.2975 11.2948 11.0602 11.0241C10.8228 10.7535 10.7137 10.3936 10.7607 10.0367L11.1718 6.91684L6.22343 12.55ZM19.4239 11.4595C19.4238 11.4595 19.4231 11.4594 19.4218 11.4592ZM18.8671 10.196C18.8682 10.1942 18.8688 10.1933 18.8689 10.1933C18.8689 10.1933 18.8683 10.1942 18.8671 10.196ZM4.57826 12.5408C4.57677 12.5406 4.57606 12.5405 4.57608 12.5405ZM5.13115 13.8067C5.13112 13.8067 5.13169 13.8058 5.13295 13.804C5.13182 13.8058 5.13119 13.8067 5.13115 13.8067Z" fill="black"/>
</svg>
