<svg width="64" height="65" viewBox="0 0 64 65" fill="none" xmlns="http://www.w3.org/2000/svg">
<rect y="1" width="64" height="64" rx="32"/>
<path d="M31.9997 1C14.6246 1 0.5 15.182 0.5 32.6277C0.5 40.6702 3.56275 48.4084 9.04079 54.2701C9.08835 54.334 9.14057 54.3947 9.1964 54.4518C9.54383 54.8027 10.0169 55 10.5101 55C11.0033 55 11.4759 54.8027 11.8238 54.4518L16.3222 49.9352C16.6717 49.5858 16.8681 49.1114 16.8681 48.6161C16.8681 48.1209 16.6717 47.6459 16.3222 47.2971C15.9753 46.9467 15.5038 46.7495 15.0121 46.7484C14.5189 46.7484 14.0458 46.9457 13.6984 47.2971L10.586 50.4221C6.86985 45.9112 4.66063 40.3375 4.27086 34.4953H9.51119C10.0049 34.4974 10.4795 34.3012 10.8285 33.9503C11.178 33.5999 11.3734 33.1233 11.3714 32.6276C11.3693 32.1339 11.1723 31.6615 10.8233 31.3143C10.4744 30.9665 10.0023 30.7723 9.51119 30.7744H4.26728C4.67882 24.457 7.17545 18.7173 11.0747 14.2443L14.7914 17.987C15.1388 18.3379 15.6118 18.5351 16.1051 18.5351C16.5983 18.5351 17.0708 18.3379 17.4188 17.987C17.7672 17.6376 17.9632 17.1637 17.9632 16.6695C17.9632 16.1753 17.7672 15.7014 17.4188 15.3525L13.6912 11.6171C18.1462 7.70206 23.8611 5.19789 30.1544 4.7858V10.051C30.1524 10.5442 30.3457 11.0181 30.6921 11.3685C31.038 11.7189 31.5084 11.9167 32.0001 11.9187C32.4938 11.9208 32.9684 11.7246 33.3174 11.3737C33.6669 11.0233 33.8623 10.5468 33.8603 10.051V4.7858C40.1491 5.20108 45.8562 7.70672 50.3089 11.6208L46.5958 15.3527C46.2474 15.7015 46.0514 16.1754 46.0514 16.6696C46.0514 17.1638 46.2474 17.6377 46.5958 17.9871C46.9432 18.337 47.4152 18.5337 47.9074 18.5337C48.3996 18.5337 48.8716 18.337 49.2196 17.9871L52.929 14.2517C56.8256 18.7237 59.3212 24.4592 59.7327 30.7739H54.4852C53.4672 30.7775 52.6437 31.6049 52.6396 32.627C52.6375 33.1202 52.8308 33.5941 53.1772 33.9445C53.5231 34.2949 53.9936 34.4927 54.4852 34.4947H59.7291C59.3409 40.3367 57.1396 45.9102 53.4248 50.4216L50.3016 47.2965C49.9537 46.9451 49.4811 46.7478 48.9879 46.7478C48.4999 46.7515 48.033 46.9487 47.6887 47.2965C47.3392 47.6454 47.1422 48.1203 47.1422 48.6156C47.1422 49.1108 47.3392 49.5853 47.6887 49.9346L52.1871 54.4513C52.1943 54.4575 52.2015 54.4632 52.2088 54.4694C52.2114 54.4731 52.2139 54.4772 52.2165 54.4808C52.2238 54.4855 52.231 54.4907 52.2382 54.4954C52.3458 54.5966 52.4647 54.6843 52.5929 54.757C52.6022 54.7632 52.612 54.7695 52.6213 54.7752C53.3431 55.1671 54.2354 55.0352 54.8144 54.4518C54.8671 54.3983 54.9168 54.3412 54.9628 54.281C60.4476 48.4188 63.5 40.6758 63.5 32.628C63.5 15.1822 49.3754 1.00022 32.0003 1.00022L31.9997 1ZM42.8314 19.8982C42.3381 19.8982 41.8651 20.0955 41.5177 20.4469L34.1639 27.8305C33.5017 27.5253 32.7701 27.3545 31.9997 27.3545C29.1216 27.3545 26.745 29.7372 26.745 32.6271C26.745 35.5169 29.1216 37.9032 31.9997 37.9032C34.8778 37.9032 37.2509 35.5169 37.2509 32.6271C37.2509 31.8577 37.0819 31.1274 36.7804 30.4649L44.1451 23.0703C44.8638 22.3446 44.8638 21.1725 44.1451 20.4468C43.7972 20.0954 43.3247 19.8981 42.8314 19.8981L42.8314 19.8982ZM31.9997 31.0755C32.4014 31.0755 32.7571 31.2187 33.0275 31.457C33.0487 31.4814 33.0704 31.5058 33.0926 31.5297C33.1118 31.5458 33.1309 31.5613 33.1505 31.5764C33.1542 31.5805 33.1583 31.5842 33.1619 31.5878C33.4023 31.8598 33.5455 32.2211 33.5455 32.627C33.5455 33.5059 32.8755 34.1787 32.0002 34.1787C31.1249 34.1787 30.4548 33.5059 30.4548 32.627C30.4548 31.7482 31.1249 31.0754 32.0002 31.0754L31.9997 31.0755Z" fill="black" stroke="black"/>
<defs>
<linearGradient id="paint0_linear_7157_97089" x1="32" y1="1" x2="32" y2="65" gradientUnits="userSpaceOnUse">
<stop stop-color="#F3F4F400"/>
<stop offset="1" stop-color="#F3F4F400" stop-opacity="0"/>
</linearGradient>
</defs>
</svg>
