<svg width="24" height="24" viewBox="0 0 24 24" fill="none" xmlns="http://www.w3.org/2000/svg">
<path fill-rule="evenodd" clip-rule="evenodd" d="M12 22C17.5228 22 22 17.5228 22 12C22 6.47715 17.5228 2 12 2C6.47715 2 2 6.47715 2 12C2 17.5228 6.47715 22 12 22ZM16.9446 9.81866C17.3967 9.29697 17.3404 8.50753 16.8187 8.05539C16.297 7.60325 15.5075 7.65964 15.0554 8.18134L10.6696 13.2419L8.81349 11.6509C8.28933 11.2017 7.50021 11.2624 7.05093 11.7865C6.60165 12.3107 6.66235 13.0998 7.18651 13.5491L9.98649 15.9491C10.5086 16.3966 11.2942 16.3383 11.7446 15.8187L16.9446 9.81866Z" fill="black"/>
</svg>
