<svg width="40" height="40" viewBox="0 0 40 40" fill="none" xmlns="http://www.w3.org/2000/svg">
<rect width="40" height="40" rx="20" fill="black"/>
<path d="M12.0488 19.417C10.502 19.417 9.73926 18.665 9.73926 17.0752V12.5742C9.73926 10.9844 10.502 10.2324 12.0488 10.2324H16.6143C18.1611 10.2324 18.9238 10.9844 18.9238 12.5742V17.0752C18.9238 18.665 18.1611 19.417 16.6143 19.417H12.0488ZM22.9199 19.417C21.3623 19.417 20.6104 18.665 20.6104 17.0752V12.5742C20.6104 10.9844 21.3623 10.2324 22.9199 10.2324H27.4854C29.0322 10.2324 29.7949 10.9844 29.7949 12.5742V17.0752C29.7949 18.665 29.0322 19.417 27.4854 19.417H22.9199ZM12.0059 17.7197H16.6465C17.0332 17.7197 17.2266 17.5264 17.2266 17.1289V12.5205C17.2266 12.123 17.0332 11.9297 16.6465 11.9297H12.0059C11.6191 11.9297 11.4365 12.123 11.4365 12.5205V17.1289C11.4365 17.5264 11.6191 17.7197 12.0059 17.7197ZM22.877 17.7197H27.5283C27.915 17.7197 28.0977 17.5264 28.0977 17.1289V12.5205C28.0977 12.123 27.915 11.9297 27.5283 11.9297H22.877C22.4902 11.9297 22.2969 12.123 22.2969 12.5205V17.1289C22.2969 17.5264 22.4902 17.7197 22.877 17.7197ZM13.3701 16.0117C13.1982 16.0117 13.1445 15.9365 13.1445 15.7432V13.8955C13.1445 13.7129 13.1982 13.6377 13.3701 13.6377H15.2822C15.4434 13.6377 15.5186 13.7129 15.5186 13.8955V15.7432C15.5186 15.9365 15.4434 16.0117 15.2822 16.0117H13.3701ZM24.2842 16.0117C24.123 16.0117 24.0693 15.9365 24.0693 15.7432V13.8955C24.0693 13.7129 24.123 13.6377 24.2842 13.6377H26.1963C26.3682 13.6377 26.4326 13.7129 26.4326 13.8955V15.7432C26.4326 15.9365 26.3682 16.0117 26.1963 16.0117H24.2842ZM12.0488 30.2881C10.502 30.2881 9.73926 29.5361 9.73926 27.9355V23.4453C9.73926 21.8555 10.502 21.1035 12.0488 21.1035H16.6143C18.1611 21.1035 18.9238 21.8555 18.9238 23.4453V27.9355C18.9238 29.5361 18.1611 30.2881 16.6143 30.2881H12.0488ZM21.3516 23.9717C21.1904 23.9717 21.1367 23.8965 21.1367 23.7031V21.8447C21.1367 21.6729 21.1904 21.5977 21.3516 21.5977H23.2637C23.4355 21.5977 23.5 21.6729 23.5 21.8447V23.7031C23.5 23.8965 23.4355 23.9717 23.2637 23.9717H21.3516ZM27.1094 23.9717C26.9375 23.9717 26.8838 23.8965 26.8838 23.7031V21.8447C26.8838 21.6729 26.9375 21.5977 27.1094 21.5977H29.0215C29.1826 21.5977 29.2471 21.6729 29.2471 21.8447V23.7031C29.2471 23.8965 29.1826 23.9717 29.0215 23.9717H27.1094ZM12.0059 28.5908H16.6465C17.0332 28.5908 17.2266 28.3975 17.2266 28V23.3916C17.2266 22.9834 17.0332 22.8008 16.6465 22.8008H12.0059C11.6191 22.8008 11.4365 22.9834 11.4365 23.3916V28C11.4365 28.3975 11.6191 28.5908 12.0059 28.5908ZM24.252 26.8398C24.0908 26.8398 24.0371 26.7754 24.0371 26.582V24.7236C24.0371 24.541 24.0908 24.4766 24.252 24.4766H26.1748C26.3359 24.4766 26.4004 24.541 26.4004 24.7236V26.582C26.4004 26.7754 26.3359 26.8398 26.1748 26.8398H24.252ZM13.3701 26.8721C13.1982 26.8721 13.1445 26.8076 13.1445 26.6143V24.7559C13.1445 24.5732 13.1982 24.5088 13.3701 24.5088H15.2822C15.4434 24.5088 15.5186 24.5732 15.5186 24.7559V26.6143C15.5186 26.8076 15.4434 26.8721 15.2822 26.8721H13.3701ZM21.3516 29.7188C21.1904 29.7188 21.1367 29.6436 21.1367 29.4502V27.6025C21.1367 27.4199 21.1904 27.3447 21.3516 27.3447H23.2637C23.4355 27.3447 23.5 27.4199 23.5 27.6025V29.4502C23.5 29.6436 23.4355 29.7188 23.2637 29.7188H21.3516ZM27.1094 29.7188C26.9375 29.7188 26.8838 29.6436 26.8838 29.4502V27.6025C26.8838 27.4199 26.9375 27.3447 27.1094 27.3447H29.0215C29.1826 27.3447 29.2471 27.4199 29.2471 27.6025V29.4502C29.2471 29.6436 29.1826 29.7188 29.0215 29.7188H27.1094Z" fill="white"/>
</svg>
