<svg width="24" height="24" viewBox="0 0 24 24" fill="none" xmlns="http://www.w3.org/2000/svg">
<path fill-rule="evenodd" clip-rule="evenodd" d="M12 4.25C7.71979 4.25 4.25 7.71979 4.25 12C4.25 16.2802 7.71979 19.75 12 19.75C16.2802 19.75 19.75 16.2802 19.75 12C19.75 7.71979 16.2802 4.25 12 4.25ZM1.75 12C1.75 6.33908 6.33908 1.75 12 1.75C17.6609 1.75 22.25 6.33908 22.25 12C22.25 17.6609 17.6609 22.25 12 22.25C6.33908 22.25 1.75 17.6609 1.75 12ZM11.9389 7.39796H10.8024C10.2372 7.39796 9.74234 7.77725 9.59542 8.32303L8.77692 11.3635L8.7718 11.3832L7.98585 14.5039C7.89175 14.8775 7.97522 15.2737 8.21207 15.5776C8.44893 15.8815 8.8127 16.0592 9.198 16.0592H9.83441L9.82154 16.1121C9.65855 16.7829 10.0702 17.4589 10.7411 17.6219C11.4119 17.7849 12.0879 17.3732 12.2509 16.7024L12.4071 16.0592H13.0613C14.6936 16.0592 15.9798 14.6685 15.8526 13.0412C15.8223 12.6536 15.7141 12.2894 15.5439 11.9637C15.5652 11.9367 15.5857 11.9099 15.6054 11.8833C15.9889 11.3637 16.25 10.679 16.25 10V9.999C16.2495 9.34279 16.0628 8.67185 15.583 8.15358C15.2647 7.80969 14.8732 7.5937 14.4571 7.48458C14.4625 6.91658 14.0777 6.39892 13.502 6.25904C12.8312 6.09604 12.1552 6.50772 11.9922 7.17856L11.9389 7.39796ZM13.0633 12.9594L11.3841 12.948L10.9565 12.9451L10.8018 13.5592H13.0613C13.2361 13.5592 13.3738 13.4102 13.3602 13.2359C13.3481 13.0806 13.2191 12.9605 13.0633 12.9594ZM11.612 10.4495L13.0803 10.4595L13.5397 10.4626C13.5544 10.4479 13.573 10.427 13.594 10.3985C13.6414 10.3343 13.6842 10.254 13.7136 10.1706C13.7435 10.0857 13.7499 10.0254 13.75 10.0004C13.7499 9.95822 13.7473 9.92436 13.7439 9.89796H11.7604L11.612 10.4495Z" fill="black"/>
</svg>
