<svg width="24" height="24" viewBox="0 0 24 24" fill="none" xmlns="http://www.w3.org/2000/svg">
<path fill-rule="evenodd" clip-rule="evenodd" d="M12 2C6.47715 2 2 6.47715 2 12C2 17.5228 6.47715 22 12 22C17.5228 22 22 17.5228 22 12C22 6.47715 17.5228 2 12 2ZM11.8242 15.2383C11.8242 15.7715 12.1816 16.123 12.7031 16.123C13.2246 16.123 13.5762 15.7715 13.5762 15.2383V8.40625C13.5762 7.79688 13.2012 7.41602 12.5742 7.41602C12.2109 7.41602 11.9297 7.46875 11.5195 7.75L9.84375 8.91016C9.56836 9.10352 9.46289 9.30273 9.46289 9.57227C9.46289 9.94727 9.72656 10.2051 10.084 10.2051C10.2656 10.2051 10.3887 10.1641 10.5527 10.0469L11.7891 9.18555H11.8242V15.2383Z" fill="black"/>
</svg>
