<svg width="24" height="24" viewBox="0 0 24 24" fill="none" xmlns="http://www.w3.org/2000/svg">
<path fill-rule="evenodd" clip-rule="evenodd" d="M9.10819 4.56656C7.08403 3.97121 5.699 4.26955 4.98423 4.98432C4.26945 5.6991 3.97112 7.08412 4.56646 9.10828C5.14661 11.0808 6.51228 13.3623 8.57494 15.425C9.6808 16.5308 10.8496 17.4364 11.9999 18.1279C13.1502 17.4364 14.319 16.5308 15.4249 15.425C15.7086 15.1413 15.9796 14.8529 16.2375 14.5613C16.6949 14.0441 17.4849 13.9957 18.002 14.4531C18.5191 14.9104 18.5676 15.7004 18.1102 16.2175C17.8183 16.5475 17.5123 16.8731 17.1926 17.1927C16.3818 18.0035 15.5297 18.7298 14.659 19.3618C14.737 19.3869 14.8145 19.4108 14.8916 19.4335C16.9158 20.0288 18.3008 19.7305 19.0156 19.0157C19.7304 18.3009 20.0287 16.9159 19.4334 14.8917C19.225 14.1834 18.9154 13.4353 18.5086 12.6718C18.4783 12.6237 18.4514 12.5739 18.428 12.5225C17.7066 11.2061 16.6987 9.84882 15.4249 8.57503C14.319 7.46917 13.1502 6.56365 11.9999 5.87212C10.8496 6.56365 9.6808 7.46917 8.57494 8.57504C8.27839 8.87158 7.99569 9.17324 7.72725 9.47846C7.27133 9.99685 6.4815 10.0475 5.96311 9.59158C5.44472 9.13566 5.39407 8.34582 5.84999 7.82743C6.15377 7.48204 6.47299 7.14145 6.80717 6.80727C7.61798 5.99646 8.47013 5.27023 9.34085 4.63818C9.26285 4.61311 9.18528 4.58923 9.10819 4.56656ZM11.9999 3.0274C11.2638 2.66731 10.5307 2.37905 9.8136 2.16814C7.41918 1.4639 4.8814 1.55162 3.21646 3.21656C1.55152 4.88149 1.46381 7.41928 2.16805 9.8137C2.37896 10.5308 2.66723 11.2639 3.02733 12.0001C2.2859 13.5158 1.83499 15.0473 1.76078 16.468C1.67672 18.0772 2.07806 19.6451 3.21646 20.7835L4.10034 19.8996L3.21646 20.7835C4.8814 22.4484 7.41918 22.5361 9.8136 21.8319C10.5307 21.621 11.2638 21.3327 11.9999 20.9726C12.736 21.3327 13.4691 21.621 14.1862 21.8319C16.5806 22.5361 19.1184 22.4484 20.7834 20.7835C22.4483 19.1185 22.536 16.5807 21.8318 14.1863C21.6209 13.4692 21.3326 12.7361 20.9725 12C21.7134 10.4853 22.1641 8.95502 22.2389 7.53538C22.3237 5.92495 21.9226 4.35575 20.7834 3.21656C19.1184 1.55162 16.5806 1.4639 14.1862 2.16814C13.4691 2.37905 12.736 2.66731 11.9999 3.0274ZM14.659 4.63817C15.5297 5.27023 16.3818 5.99646 17.1926 6.80727C18.0035 7.61808 18.7297 8.47022 19.3617 9.34095C19.5857 8.64403 19.7114 7.9913 19.7423 7.40394C19.8022 6.2674 19.509 5.47773 19.0156 4.98432C18.3008 4.26955 16.9158 3.97122 14.8916 4.56656C14.8145 4.58923 14.737 4.61311 14.659 4.63817ZM9.34085 19.3618C8.47013 18.7298 7.61798 18.0035 6.80717 17.1927C5.99637 16.3819 5.27013 15.5298 4.63808 14.6591C4.41384 15.3569 4.28809 16.0105 4.25738 16.5984C4.19807 17.7337 4.49115 18.5226 4.98423 19.0157C5.699 19.7305 7.08403 20.0288 9.10819 19.4335C9.18528 19.4108 9.26285 19.3869 9.34085 19.3618ZM9.7187 12.0032C9.7187 10.7519 10.733 9.73757 11.9843 9.73757C13.2356 9.73757 14.2499 10.7519 14.2499 12.0032C14.2499 13.2544 13.2356 14.2688 11.9843 14.2688C10.733 14.2688 9.7187 13.2544 9.7187 12.0032Z" fill="black"/>
</svg>
