<svg width="24" height="24" viewBox="0 0 24 24" fill="none" xmlns="http://www.w3.org/2000/svg">
<path fill-rule="evenodd" clip-rule="evenodd" d="M22 12C22 17.5228 17.5228 22 12 22C6.47715 22 2 17.5228 2 12C2 6.47715 6.47715 2 12 2C17.5228 2 22 6.47715 22 12ZM10.25 8.4C10.25 7.70965 9.69036 7.15 9 7.15C8.30964 7.15 7.75 7.70965 7.75 8.4V15.6C7.75 16.2904 8.30964 16.85 9 16.85C9.69036 16.85 10.25 16.2904 10.25 15.6V8.4ZM16.25 8.4C16.25 7.70965 15.6904 7.15 15 7.15C14.3096 7.15 13.75 7.70965 13.75 8.4V15.6C13.75 16.2904 14.3096 16.85 15 16.85C15.6904 16.85 16.25 16.2904 16.25 15.6V8.4Z" fill="black"/>
</svg>
