<svg width="64" height="64" viewBox="0 0 64 64" fill="none" xmlns="http://www.w3.org/2000/svg">
<rect width="64" height="64" fill="white" fill-opacity="0.02"/>
<path fill-rule="evenodd" clip-rule="evenodd" d="M32 62C48.5685 62 62 48.5685 62 32C62 15.4315 48.5685 2 32 2C15.4315 2 2 15.4315 2 32C2 48.5685 15.4315 62 32 62ZM46.2739 24.7616C47.2468 23.7819 47.2413 22.199 46.2616 21.2261C45.2819 20.2532 43.699 20.2587 42.7261 21.2384L26.5495 37.5281L20.1957 31.663C19.1811 30.7265 17.5995 30.7897 16.663 31.8043C15.7265 32.8189 15.7897 34.4005 16.8043 35.337L24.9293 42.837C25.9178 43.7494 27.451 43.7161 28.3989 42.7616L46.2739 24.7616Z" fill="black"/>
</svg>
