<svg width="24" height="24" viewBox="0 0 24 24" fill="none" xmlns="http://www.w3.org/2000/svg">
<path fill-rule="evenodd" clip-rule="evenodd" d="M5.70763 7.4754C4.79035 8.74874 4.25 10.3117 4.25 12.0009C4.25 13.6896 4.79006 15.2522 5.70688 16.5254L7.50968 14.7226C6.49677 13.055 6.49677 10.945 7.50968 9.27744L5.70763 7.4754ZM4.72921 4.77571C2.8878 6.62888 1.75 9.18202 1.75 12.0009C1.75 17.6623 6.33948 22.2518 12.0009 22.2518C17.6623 22.2518 22.2518 17.6623 22.2518 12.0009C22.2518 6.33948 17.6623 1.75 12.0009 1.75C9.18202 1.75 6.62888 2.8878 4.7757 4.72921C4.76778 4.73673 4.75993 4.74438 4.75216 4.75216C4.74438 4.75993 4.73673 4.76778 4.72921 4.77571ZM7.4754 5.70763L9.27744 7.50968C10.945 6.49678 13.055 6.49678 14.7226 7.50968L16.5254 5.70688C15.2522 4.79006 13.6896 4.25 12.0009 4.25C10.3117 4.25 8.74874 4.79035 7.4754 5.70763ZM18.2934 7.47435L16.4903 9.27744C17.5032 10.945 17.5032 13.055 16.4903 14.7226L18.2942 16.5264C19.2115 15.2531 19.7518 13.6901 19.7518 12.0009C19.7518 10.3113 19.2112 8.74789 18.2934 7.47435ZM16.5264 18.2942L14.7226 16.4903C13.055 17.5032 10.945 17.5032 9.27744 16.4903L7.47435 18.2934C8.74789 19.2112 10.3113 19.7518 12.0009 19.7518C13.6901 19.7518 15.2531 19.2115 16.5264 18.2942ZM13.9445 10.0555C12.8706 8.98152 11.1294 8.98152 10.0555 10.0555C8.98151 11.1294 8.98151 12.8706 10.0555 13.9445C11.1294 15.0185 12.8706 15.0185 13.9445 13.9445C15.0185 12.8706 15.0185 11.1294 13.9445 10.0555Z" fill="black"/>
</svg>
