<svg width="24" height="24" viewBox="0 0 24 24" fill="none" xmlns="http://www.w3.org/2000/svg">
<path fill-rule="evenodd" clip-rule="evenodd" d="M12 4.25C7.71979 4.25 4.25 7.71979 4.25 12C4.25 16.2802 7.71979 19.75 12 19.75C16.2802 19.75 19.75 16.2802 19.75 12C19.75 7.71979 16.2802 4.25 12 4.25ZM1.75 12C1.75 6.33908 6.33908 1.75 12 1.75C17.6609 1.75 22.25 6.33908 22.25 12C22.25 17.6609 17.6609 22.25 12 22.25C6.33908 22.25 1.75 17.6609 1.75 12ZM8.41612 8.41612C8.90427 7.92796 9.69573 7.92796 10.1839 8.41612L12 10.2322L13.8161 8.41612C14.3043 7.92796 15.0957 7.92796 15.5839 8.41612C16.072 8.90427 16.072 9.69573 15.5839 10.1839L13.7678 12L15.5839 13.8161C16.072 14.3043 16.072 15.0957 15.5839 15.5839C15.0957 16.072 14.3043 16.072 13.8161 15.5839L12 13.7678L10.1839 15.5839C9.69573 16.072 8.90427 16.072 8.41612 15.5839C7.92796 15.0957 7.92796 14.3043 8.41612 13.8161L10.2322 12L8.41612 10.1839C7.92796 9.69573 7.92796 8.90427 8.41612 8.41612Z" fill="black"/>
</svg>
