<svg width="24" height="24" viewBox="0 0 24 24" fill="none" xmlns="http://www.w3.org/2000/svg">
<path fill-rule="evenodd" clip-rule="evenodd" d="M8.91484 1.75C8.94313 1.75 8.97152 1.75 9 1.75H10.6013L10.6864 1.75C12.028 1.74995 13.159 1.7499 14.0596 1.87099C15.0152 1.99946 15.8962 2.2845 16.6065 2.9948C17.3168 3.7051 17.6018 4.58608 17.7303 5.54163C17.795 6.02318 17.8251 6.57063 17.8391 7.18092C19.0932 7.2422 20.2404 7.45319 21.0948 8.30755C21.7612 8.97396 22.0243 9.79766 22.1418 10.6716C22.2519 11.4906 22.2519 12.516 22.2518 13.7175L22.2518 13.8011V15.6013L22.2518 15.6848C22.2519 16.8863 22.2519 17.9117 22.1418 18.7308C22.0243 19.6047 21.7612 20.4284 21.0948 21.0948C20.4284 21.7612 19.6047 22.0243 18.7308 22.1418C17.9117 22.2519 16.8863 22.2519 15.6848 22.2518L15.6013 22.2518H13.8011L13.7175 22.2518C12.516 22.2519 11.4906 22.2519 10.6716 22.1418C9.79766 22.0243 8.97396 21.7612 8.30755 21.0948C7.45224 20.2395 7.24219 19.0917 7.18102 17.8391C6.5707 17.8251 6.02321 17.795 5.54163 17.7303C4.58608 17.6018 3.7051 17.3168 2.9948 16.6065C2.2845 15.8962 1.99946 15.0152 1.87099 14.0596C1.7499 13.159 1.74995 12.028 1.75 10.6864L1.75 10.6013V9C1.75 8.97152 1.75 8.94313 1.75 8.91484C1.74995 7.57331 1.7499 6.44223 1.87099 5.54163C1.99946 4.58608 2.2845 3.7051 2.9948 2.9948C3.7051 2.2845 4.58608 1.99946 5.54163 1.87099C6.44223 1.7499 7.57331 1.74995 8.91484 1.75ZM9.68889 17.8513C9.75291 18.8539 9.89717 19.1489 10.0753 19.327C10.1998 19.4515 10.408 19.5839 11.0047 19.6641C11.6374 19.7491 12.4928 19.7518 13.8011 19.7518H15.6013C16.9095 19.7518 17.765 19.7491 18.3976 19.6641C18.9943 19.5839 19.2025 19.4515 19.327 19.327C19.4515 19.2025 19.5839 18.9943 19.6641 18.3976C19.7491 17.765 19.7518 16.9095 19.7518 15.6013V13.8011C19.7518 12.4928 19.7491 11.6374 19.6641 11.0047C19.5839 10.408 19.4515 10.1998 19.327 10.0753C19.1481 9.8964 18.8528 9.7529 17.8513 9.68898V10.6013L17.8513 10.6864C17.8513 12.028 17.8514 13.159 17.7303 14.0596C17.6018 15.0152 17.3168 15.8962 16.6065 16.6065C15.8962 17.3168 15.0152 17.6018 14.0596 17.7303C13.159 17.8514 12.028 17.8513 10.6864 17.8513L10.6013 17.8513H9.68889ZM5.87475 4.34869C5.19642 4.43989 4.93095 4.59419 4.76257 4.76257C4.59419 4.93095 4.43989 5.19642 4.34869 5.87475C4.25266 6.58904 4.25 7.55045 4.25 9V10.6013C4.25 12.0508 4.25266 13.0122 4.34869 13.7265C4.43989 14.4049 4.59419 14.6703 4.76257 14.8387C4.93095 15.0071 5.19642 15.1614 5.87475 15.2526C6.58904 15.3486 7.55045 15.3513 9 15.3513H10.6013C12.0508 15.3513 13.0122 15.3486 13.7265 15.2526C14.4049 15.1614 14.6703 15.0071 14.8387 14.8387C15.0071 14.6703 15.1614 14.4049 15.2526 13.7265C15.3486 13.0122 15.3513 12.0508 15.3513 10.6013V9C15.3513 7.55045 15.3486 6.58904 15.2526 5.87475C15.1614 5.19642 15.0071 4.93095 14.8387 4.76257C14.6703 4.59419 14.4049 4.43989 13.7265 4.34869C13.0122 4.25266 12.0508 4.25 10.6013 4.25H9C7.55045 4.25 6.58904 4.25266 5.87475 4.34869Z" fill="black"/>
</svg>
