<svg width="24" height="24" viewBox="0 0 24 24" fill="none" xmlns="http://www.w3.org/2000/svg">
<rect width="24" height="24" transform="translate(24 24) rotate(-180)" fill="white" fill-opacity="0.02"/>
<path fill-rule="evenodd" clip-rule="evenodd" d="M12 19.75C16.2802 19.75 19.75 16.2802 19.75 12C19.75 7.71979 16.2802 4.25 12 4.25C7.71979 4.25 4.25 7.71979 4.25 12C4.25 16.2802 7.71979 19.75 12 19.75ZM22.25 12C22.25 17.6609 17.6609 22.25 12 22.25C6.33908 22.25 1.75 17.6609 1.75 12C1.75 6.33908 6.33908 1.75 12 1.75C17.6609 1.75 22.25 6.33908 22.25 12ZM13.25 15.75C13.25 16.4404 12.6904 17 12 17L11.99 17C11.2996 17 10.74 16.4404 10.74 15.75C10.74 15.0596 11.2996 14.5 11.99 14.5L12 14.5C12.6904 14.5 13.25 15.0596 13.25 15.75ZM11.561 11.5657C11.5621 11.5654 11.5632 11.565 11.5643 11.5646C11.5644 11.5646 11.5645 11.5645 11.5646 11.5645L11.5644 11.5646L11.5643 11.5646L11.5633 11.5649L11.5617 11.5655L11.5675 11.5634C11.5757 11.5605 11.5911 11.555 11.6126 11.5468C11.6559 11.5303 11.7225 11.5037 11.8046 11.4672C11.9724 11.3927 12.1866 11.2847 12.3918 11.1479C12.8784 10.8235 12.9593 10.5875 12.9593 10.5017L12.9593 10.4998C12.9597 10.2641 12.8766 10.0358 12.7248 9.85541C12.5729 9.67504 12.3622 9.55423 12.1298 9.51437C11.8974 9.47452 11.6584 9.51818 11.4552 9.63764C11.2519 9.7571 11.0975 9.94463 11.0193 10.167C10.7902 10.8183 10.0765 11.1605 9.42529 10.9314C8.77406 10.7023 8.43184 9.98867 8.66093 9.33743C8.93509 8.55808 9.47622 7.90091 10.1885 7.48231C10.9007 7.0637 11.7382 6.91069 12.5524 7.05036C13.3667 7.19003 14.1053 7.61337 14.6373 8.2454C15.1692 8.8772 15.4603 9.67677 15.4593 10.5026C15.4589 11.9151 14.416 12.803 13.7786 13.228C13.4217 13.4659 13.0738 13.6389 12.82 13.7517C12.6913 13.8089 12.5823 13.8526 12.5026 13.883C12.4626 13.8982 12.4297 13.9102 12.405 13.919L12.3742 13.9298L12.3636 13.9334L12.3595 13.9348L12.3578 13.9354L12.357 13.9356C12.3567 13.9357 12.3563 13.9359 11.961 12.75L12.3563 13.9359C11.7014 14.1542 10.9935 13.8002 10.7752 13.1453C10.5574 12.4919 10.9091 11.7858 11.561 11.5657ZM15.4593 10.5026C15.4593 10.5029 15.4593 10.5032 15.4593 10.5035L14.2093 10.5017L15.4593 10.5017C15.4593 10.502 15.4593 10.5023 15.4593 10.5026Z" fill="black"/>
</svg>
