<svg width="40" height="40" viewBox="0 0 40 40" fill="none" xmlns="http://www.w3.org/2000/svg">
<path fill-rule="evenodd" clip-rule="evenodd" d="M17.3337 1.25L17.4553 1.25001H22.5452L22.6668 1.25C24.7917 1.24993 26.5614 1.24988 27.9658 1.43869C29.4472 1.63786 30.7814 2.07555 31.853 3.14723C32.9247 4.2189 33.3624 5.55306 33.5616 7.03449C33.7504 8.43886 33.7503 10.2085 33.7503 12.3334L33.7502 12.455V27.545L33.7503 27.6666C33.7503 29.7915 33.7504 31.5611 33.5616 32.9655C33.3624 34.4469 32.9247 35.7811 31.853 36.8528C30.7814 37.9245 29.4472 38.3621 27.9658 38.5613C26.5614 38.7501 24.7917 38.7501 22.6668 38.75H22.5452H17.4553H17.3337C15.2088 38.7501 13.4391 38.7501 12.0347 38.5613C10.5533 38.3621 9.21915 37.9245 8.14747 36.8528C7.0758 35.7811 6.63811 34.4469 6.43894 32.9655C6.25012 31.5611 6.25018 29.7915 6.25025 27.6665L6.25025 27.545V12.455L6.25025 12.3335C6.25018 10.2085 6.25012 8.43887 6.43894 7.03449C6.63811 5.55306 7.0758 4.2189 8.14747 3.14723C9.21915 2.07555 10.5533 1.63786 12.0347 1.43869C13.4391 1.24988 15.2088 1.24993 17.3337 1.25ZM12.5011 4.90748C11.4078 5.05447 10.9353 5.30912 10.6223 5.6221C10.3094 5.93508 10.0547 6.40754 9.90773 7.50085C9.75397 8.64451 9.75025 10.177 9.75025 12.455V27.545C9.75025 29.823 9.75397 31.3555 9.90773 32.4992C10.0547 33.5925 10.3094 34.0649 10.6223 34.3779C10.9353 34.6909 11.4078 34.9455 12.5011 35.0925C13.6448 35.2463 15.1772 35.25 17.4553 35.25H22.5452C24.8233 35.25 26.3557 35.2463 27.4994 35.0925C28.5927 34.9455 29.0652 34.6909 29.3782 34.3779C29.6911 34.0649 29.9458 33.5925 30.0928 32.4992C30.2465 31.3555 30.2502 29.823 30.2502 27.545V12.455C30.2502 10.177 30.2465 8.64451 30.0928 7.50085C29.9458 6.40754 29.6911 5.93508 29.3782 5.6221C29.0652 5.30912 28.5927 5.05447 27.4994 4.90748C26.3557 4.75372 24.8233 4.75001 22.5452 4.75001H17.4553C15.1772 4.75001 13.6448 4.75372 12.5011 4.90748Z" fill="#008096"/>
<path d="M20 19V29.5H23.5" stroke="#008096" stroke-width="3.5" stroke-linecap="round" stroke-linejoin="round"/>
<path d="M20 24.5H22.5" stroke="#008096" stroke-width="3.5" stroke-linecap="round" stroke-linejoin="round"/>
<path d="M20 10L23.8971 12.25V16.75L20 19L16.1029 16.75V12.25L20 10Z" stroke="#008096" stroke-width="3.5" stroke-linecap="round" stroke-linejoin="round"/>
</svg>
