<svg width="24" height="24" viewBox="0 0 24 24" fill="none" xmlns="http://www.w3.org/2000/svg">
<path d="M15.4089 8.60881L15.4189 8.60881M8.02115 11.775L3.73268 16.0635C3.09974 16.6964 2.74416 17.5549 2.74416 18.45L2.74416 19.2835C2.74416 20.2216 2.74416 20.6907 3.0356 20.9821C3.32704 21.2736 3.79611 21.2736 4.73424 21.2736L5.56778 21.2736C6.46289 21.2736 7.32133 20.918 7.95427 20.2851L12.2427 15.9966L12.6618 15.5776C13.1648 15.0746 13.897 14.8766 14.585 15.0576L15.7052 15.3524C16.3931 15.5335 17.1254 15.3355 17.6284 14.8325L20.929 11.5319C21.432 11.0289 21.63 10.2966 21.449 9.60868L20.2792 5.16367C20.0958 4.46647 19.5513 3.92198 18.8541 3.7385L14.4091 2.56876C13.7212 2.38773 12.9889 2.58571 12.4859 3.0887L9.18524 6.38933C8.68225 6.89231 8.48427 7.62461 8.6653 8.31253L8.96011 9.43278C9.14114 10.1207 8.94316 10.853 8.44017 11.356L8.02115 11.775Z" stroke="black" stroke-width="2.5" stroke-linecap="round" stroke-linejoin="round"/>
</svg>
