<svg width="1283" height="474" viewBox="0 0 1283 474" fill="none" xmlns="http://www.w3.org/2000/svg">
<path d="M1114.11 401.709L1127.2 368.876C1127.72 367.56 1127.74 366.095 1127.24 364.769L1031.78 111.684C1030.38 107.97 1033.12 104.001 1037.09 104.001H1086.54C1088.94 104.001 1091.09 105.515 1091.89 107.781L1152.01 277.259C1153.81 282.314 1160.96 282.294 1162.73 277.23L1221.79 107.81C1222.59 105.529 1224.74 104.001 1227.15 104.001H1274.24C1278.22 104.001 1281.01 107.872 1279.59 111.59C1263.04 154.985 1180.61 371.192 1165.3 412.018C1148.26 457.447 1120.85 474.491 1082.36 473.99C1069.14 473.818 1059.34 470.612 1057.18 469.846C1056.88 469.739 1056.58 469.654 1056.28 469.548C1055.17 469.16 1052.43 467.799 1052.43 463.838V429.831C1052.43 426.14 1055.81 423.064 1059.5 423.679C1060.65 423.761 1061.88 423.864 1063.16 423.972C1066.71 424.27 1070.66 424.602 1074.27 424.602C1101.27 424.602 1107.33 416.372 1114.11 401.709Z" fill="black"/>
<path d="M971.693 284.599C972.536 282.146 974.769 280.373 977.364 280.373H1019.25C1022.77 280.373 1025.45 283.549 1024.67 286.98C1013.99 334.074 977.155 365.677 918.199 365.677C846.728 365.677 797.159 311.497 797.159 232.534C797.159 155.875 847.304 98.2372 917.046 98.2372C989.093 98.2372 1028.29 149.535 1028.29 224.464V239.535C1028.29 242.671 1025.74 245.214 1022.61 245.214H859.546C856.324 245.214 853.733 247.905 854.018 251.114C857.706 292.531 882.954 317.261 918.199 317.261C944.244 317.261 964.159 306.534 971.693 284.599ZM917.622 146.653C887.892 146.653 865.26 163.889 856.855 196.459C855.967 199.902 858.66 203.138 862.216 203.138H965.441C968.618 203.138 971.2 200.527 970.914 197.363C968.343 168.936 950.579 146.653 917.622 146.653Z" fill="black"/>
<path d="M709.151 217.083L804.908 349.756C807.984 354.063 804.908 359.908 799.678 359.908H748.207C746.053 359.908 744.207 358.985 742.977 357.139L671.216 256.153L656.142 234.003C650.912 226.62 636.383 230.004 636.383 239.233V353.448C636.383 356.832 633.614 359.908 629.922 359.908H585.078C581.079 359.908 578.002 356.832 578.002 352.832L578.002 43.1406C578.002 39.7566 580.771 36.6803 584.462 36.6803H630.229C633.613 36.6803 636.69 39.449 636.69 43.1406L636.69 184.782C636.69 193.395 649.989 197.395 655.834 191.242L737.357 105.412C738.588 104.181 740.126 103.566 741.972 103.566H797.75C803.287 103.566 806.056 110.334 802.365 114.333L710.074 209.392C707.613 211.238 707.613 214.622 709.151 217.083Z" fill="black"/>
<path fill-rule="evenodd" clip-rule="evenodd" d="M5.53896 5.95798C2.47988 5.95798 0 8.43787 0 11.497V354.358C0 357.418 2.47988 359.897 5.53896 359.897H5.53912V359.913H135.449C209.226 359.913 255.336 324.754 255.336 258.471C255.336 221.006 231.128 188.152 197.698 177.201C223.635 167.979 243.808 140.313 243.808 102.272C243.808 38.8702 197.698 6.01658 123.922 6.01658H58.159V5.95798H5.53896ZM123.345 154.722H58.2144V57.8907H123.345C164.268 57.8907 186.171 72.3002 186.171 105.73C186.171 139.16 164.268 154.722 123.345 154.722ZM58.2144 308.039V204.291H134.296C174.643 204.291 196.545 223.888 196.545 256.165C196.545 287.866 174.643 308.039 134.296 308.039H58.2144Z" fill="black"/>
<path d="M290.692 110.208C290.692 107.072 293.235 104.529 296.371 104.529H344.639C347.775 104.529 350.318 107.072 350.318 110.208V354.108C350.318 357.244 347.775 359.786 344.639 359.786H296.371C293.235 359.786 290.692 357.244 290.692 354.108V110.208Z" fill="black"/>
<path d="M354.369 34.1618C354.369 53.0289 339.075 68.3236 320.208 68.3236C301.34 68.3236 286.046 53.0289 286.046 34.1618C286.046 15.2948 301.34 0 320.208 0C339.075 0 354.369 15.2948 354.369 34.1618Z" fill="black"/>
<path d="M426.093 291.223V157.994C426.093 154.858 423.551 152.315 420.415 152.315H391.425C388.289 152.315 385.747 149.773 385.747 146.637V110.154C385.747 107.018 388.289 104.476 391.425 104.476H420.415C423.551 104.476 426.093 101.933 426.093 98.7972V41.5654C426.093 38.4292 428.636 35.8868 431.772 35.8868H478.053C481.189 35.8868 483.731 38.4292 483.731 41.5654V98.7973C483.731 101.933 486.274 104.476 489.41 104.476H535.69C538.827 104.476 541.369 107.018 541.369 110.154V146.637C541.369 149.773 538.827 152.315 535.69 152.315H489.41C486.274 152.315 483.731 154.858 483.731 157.994V284.882C483.731 305.632 495.259 314.854 514.279 314.854C521.924 314.854 530.33 312.826 537.479 309.779C541.728 307.967 547.133 310.895 547.133 315.514V353.682C547.133 355.694 546.079 357.579 544.273 358.467C534.44 363.303 520.122 366.152 503.904 366.152C458.37 366.152 426.093 341.944 426.093 291.223Z" fill="black"/>
</svg>
