<svg width="24" height="24" viewBox="0 0 24 24" fill="none" xmlns="http://www.w3.org/2000/svg">
<path fill-rule="evenodd" clip-rule="evenodd" d="M8.08784 2.81361C8.48485 2.17508 9.19279 1.75 10 1.75H14C14.8072 1.75 15.5152 2.17508 15.9122 2.81361C16.1027 2.82881 16.2848 2.84765 16.4584 2.87098C17.4139 2.99945 18.2949 3.2845 19.0052 3.9948C19.7155 4.7051 20.0005 5.58607 20.129 6.54163C20.2501 7.44222 20.2501 8.5733 20.25 9.91483L20.25 10V15L20.25 15.0852C20.2501 16.4267 20.2501 17.5578 20.129 18.4584C20.0005 19.4139 19.7155 20.2949 19.0052 21.0052C18.2949 21.7155 17.4139 22.0005 16.4584 22.129C15.5578 22.2501 14.4267 22.2501 13.0852 22.25L13 22.25H11L10.9148 22.25C9.57331 22.2501 8.44222 22.2501 7.54163 22.129C6.58607 22.0005 5.7051 21.7155 4.9948 21.0052C4.2845 20.2949 3.99945 19.4139 3.87098 18.4584C3.7499 17.5578 3.74995 16.4267 3.75 15.0852L3.75 15V10L3.75 9.91484C3.74995 8.57331 3.7499 7.44222 3.87098 6.54163C3.99945 5.58607 4.2845 4.7051 4.9948 3.9948C5.7051 3.2845 6.58608 2.99945 7.54163 2.87098C7.71519 2.84765 7.89731 2.82881 8.08784 2.81361ZM8.17411 5.31505C8.06955 5.32475 7.96995 5.33589 7.87475 5.34869C7.19642 5.43989 6.93094 5.59418 6.76257 5.76256C6.59419 5.93094 6.43989 6.19641 6.34869 6.87474C6.25266 7.58903 6.25 8.55045 6.25 10V15C6.25 16.4496 6.25266 17.411 6.34869 18.1253C6.43989 18.8036 6.59419 19.0691 6.76257 19.2374C6.93094 19.4058 7.19642 19.5601 7.87475 19.6513C8.58904 19.7473 9.55045 19.75 11 19.75H13C14.4496 19.75 15.411 19.7473 16.1253 19.6513C16.8036 19.5601 17.0691 19.4058 17.2374 19.2374C17.4058 19.0691 17.5601 18.8036 17.6513 18.1253C17.7473 17.411 17.75 16.4496 17.75 15V10C17.75 8.55045 17.7473 7.58903 17.6513 6.87474C17.5601 6.19641 17.4058 5.93094 17.2374 5.76256C17.0691 5.59418 16.8036 5.43989 16.1253 5.34869C16.0301 5.33589 15.9305 5.32475 15.8259 5.31505C15.4173 5.88138 14.7517 6.25 14 6.25H10C9.24831 6.25 8.58271 5.88138 8.17411 5.31505Z" fill="black"/>
</svg>
