<svg width="24" height="24" viewBox="0 0 24 24" fill="none" xmlns="http://www.w3.org/2000/svg">
<path fill-rule="evenodd" clip-rule="evenodd" d="M9.5 5.25C6.04822 5.25 3.25 8.04822 3.25 11.5C3.25 14.9518 6.04822 17.75 9.5 17.75H9.51536H9.53069H9.54601H9.56132H9.5766H9.59187H9.60712H9.62235H9.63756H9.65275H9.66793H9.68309H9.69824H9.71336H9.72847H9.74356H9.75863H9.77369H9.78873H9.80375H9.81876H9.83375H9.84872H9.86368H9.87862H9.89354H9.90845H9.92334H9.93821H9.95307H9.96791H9.98273H9.99754H10.0123H10.0271H10.0419H10.0566H10.0714H10.0861H10.1008H10.1154H10.1301H10.1448H10.1594H10.174H10.1886H10.2032H10.2178H10.2324H10.2469H10.2614H10.276H10.2905H10.3049H10.3194H10.3339H10.3483H10.3628H10.3772H10.3916H10.406H10.4203H10.4347H10.449H10.4634H10.4777H10.492H10.5063H10.5206H10.5348H10.5491H10.5633H10.5775H10.5917H10.6059H10.6201H10.6343H10.6484H10.6626H10.6767H10.6908H10.7049H10.719H10.7331H10.7472H10.7612H10.7753H10.7893H10.8033H10.8173H10.8313H10.8453H10.8593H10.8733H10.8872H10.9011H10.9151H10.929H10.9429H10.9568H10.9706H10.9845H10.9984H11.0122H11.026H11.0399H11.0537H11.0675H11.0813H11.095H11.1088H11.1226H11.1363H11.15H11.1638H11.1775H11.1912H11.2049H11.2186H11.2322H11.2459H11.2595H11.2732H11.2868H11.3004H11.3141H11.3277H11.3413H11.3548H11.3684H11.382H11.3955H11.4091H11.4226H11.4362H11.4497H11.4632H11.4767H11.4902H11.5037H11.5171H11.5306H11.5441H11.5575H11.571H11.5844H11.5978H11.6112H11.6247H11.6381H11.6514H11.6648H11.6782H11.6916H11.7049H11.7183H11.7316H11.745H11.7583H11.7716H11.785H11.7983H11.8116H11.8249H11.8381H11.8514H11.8647H11.878H11.8912H11.9045H11.9177H11.931H11.9442H11.9574H11.9706H11.9839H11.9971H12.0103H12.0235H12.0367H12.0498H12.063H12.0762H12.0894H12.1025H12.1157H12.1288H12.142H12.1551H12.1682H12.1814H12.1945H12.2076H12.2207H12.2338H12.2469H12.26H12.2731H12.2862H12.2993H12.3124H12.3254H12.3385H12.3516H12.3646H12.3777H12.3908H12.4038H12.4168H12.4299H12.4429H12.456H12.469H12.482H12.495H12.508H12.5211H12.5341H12.5471H12.5601H12.5731H12.5861H12.5991H12.6121H12.6251H12.638H12.651H12.664H12.677H12.6899H12.7029H12.7159H12.7289H12.7418H12.7548H12.7677H12.7807H12.7937H12.8066H12.8196H12.8325H12.8455H12.8584H12.8713H12.8843H12.8972H12.9102H12.9231H12.936H12.949H12.9619H12.9749H12.9878H13.0007H13.0136H13.0266H13.0395H13.0524H13.0654H13.0783H13.0912H13.1041H13.1171H13.13H13.1429H13.1558H13.1688H13.1817H13.1946H13.2075H13.2205H13.2334H13.2463H13.2592H13.2722H13.2851H13.298H13.3109H13.3239H13.3368H13.3497H13.3626H13.3756H13.3885H13.4014H13.4144H13.4273H13.4403H13.4532H13.4661H13.4791H13.492H13.505H13.5179H13.5309H13.5438H13.5568H13.5697H13.5827H13.5956H13.6086H13.6215H13.6345H13.6475H13.6604H13.6734H13.6864H13.6994H13.7124H13.7253H13.7383H13.7513H13.7643H13.7773H13.7903H13.8033H13.8163H13.8293H13.8423H13.8553H13.8684H13.8814H13.8944H13.9074H13.9205H13.9335H13.9465H13.9596H13.9726H13.9857H13.9987H14.0118H14.0249H14.0379H14.051H14.0641H14.0772H14.0903H14.1034H14.1165H14.1296H14.1427H14.1558H14.1689H14.182H14.1952H14.2083H14.2214H14.2346H14.2477H14.2609H14.274H14.2872H14.3004H14.3136H14.3267H14.3399H14.3531H14.3663H14.3795H14.3928H14.406H14.4192H14.4324H14.4457H14.4589H14.4722H14.4854H14.4987H14.512H14.5253H14.5386H14.5519H14.5652H14.5785H14.5918H14.6051H14.6184H14.6318H14.6451H14.6585H14.6719H14.6852H14.6986H14.712H14.7254H14.7388H14.7522H14.7656H14.779H14.7925H14.8059H14.8194H14.8328H14.8463H14.8598H14.8733H14.8868H14.9003H14.9138H14.9273H14.9408H14.9544H14.9679H14.9815H14.995H15.0086H15.0222H15.0358H15.0494H15.063H15.0767H15.0903H15.1039H15.1176H15.1313H15.1449H15.1586H15.1723H15.186H15.1997H15.2135H15.2272H15.2409H15.2547H15.2685H15.2822H15.296H15.3098H15.3236H15.3375H15.3513H15.3651H15.379H15.3929H15.4068H15.4206H15.4345H15.4485H15.4624H15.4763H15.4903H15.5042H15.5182H15.5322H15.5462H15.5602H15.5742H15.5882H15.6023H15.6164H15.6304H15.6445H15.6586H15.6727H15.6868H15.701H15.7151H15.7293H15.7434H15.7576H15.7718H15.786H15.8003H15.8145H15.8288H15.843H15.8573H15.8716H15.8859H15.9002H15.9145H15.9289H15.9433H15.9576H15.972H15.9864H16.0008H16.0153H16.0297H16.0442H16.0587H16.0731H16.0877H16.1022H16.1167H16.1313H16.1458H16.1604H16.175H16.1896H16.2042H16.2189H16.2335H16.2482H16.2629H16.2776H16.2923H16.307H16.3218H16.3365H16.3513H16.3661H16.3809H16.3958H16.4106H16.4255H16.4403H16.4552H16.4701H16.4851H16.5C18.8472 17.75 20.75 15.8472 20.75 13.5C20.75 11.1528 18.8472 9.25 16.5 9.25C16.4062 9.25 16.3133 9.25302 16.2214 9.25894C15.7293 9.29064 15.2646 9.0301 15.0349 8.59376C13.987 6.60295 11.9005 5.25 9.5 5.25ZM0.75 11.5C0.75 6.66751 4.66751 2.75 9.5 2.75C12.587 2.75 15.2988 4.3489 16.8554 6.7592C20.4181 6.94402 23.25 9.8913 23.25 13.5C23.25 17.2279 20.2279 20.25 16.5 20.25H16.4851H16.4701H16.4552H16.4403H16.4255H16.4106H16.3958H16.3809H16.3661H16.3513H16.3365H16.3218H16.307H16.2923H16.2776H16.2629H16.2482H16.2335H16.2189H16.2042H16.1896H16.175H16.1604H16.1458H16.1313H16.1167H16.1022H16.0877H16.0731H16.0587H16.0442H16.0297H16.0153H16.0008H15.9864H15.972H15.9576H15.9433H15.9289H15.9145H15.9002H15.8859H15.8716H15.8573H15.843H15.8288H15.8145H15.8003H15.786H15.7718H15.7576H15.7434H15.7293H15.7151H15.701H15.6868H15.6727H15.6586H15.6445H15.6304H15.6164H15.6023H15.5882H15.5742H15.5602H15.5462H15.5322H15.5182H15.5042H15.4903H15.4763H15.4624H15.4485H15.4345H15.4206H15.4068H15.3929H15.379H15.3651H15.3513H15.3375H15.3236H15.3098H15.296H15.2822H15.2685H15.2547H15.2409H15.2272H15.2135H15.1997H15.186H15.1723H15.1586H15.1449H15.1313H15.1176H15.1039H15.0903H15.0767H15.063H15.0494H15.0358H15.0222H15.0086H14.995H14.9815H14.9679H14.9544H14.9408H14.9273H14.9138H14.9003H14.8868H14.8733H14.8598H14.8463H14.8328H14.8194H14.8059H14.7925H14.779H14.7656H14.7522H14.7388H14.7254H14.712H14.6986H14.6852H14.6719H14.6585H14.6451H14.6318H14.6184H14.6051H14.5918H14.5785H14.5652H14.5519H14.5386H14.5253H14.512H14.4987H14.4854H14.4722H14.4589H14.4457H14.4324H14.4192H14.406H14.3928H14.3795H14.3663H14.3531H14.3399H14.3267H14.3136H14.3004H14.2872H14.274H14.2609H14.2477H14.2346H14.2214H14.2083H14.1952H14.182H14.1689H14.1558H14.1427H14.1296H14.1165H14.1034H14.0903H14.0772H14.0641H14.051H14.0379H14.0249H14.0118H13.9987H13.9857H13.9726H13.9596H13.9465H13.9335H13.9205H13.9074H13.8944H13.8814H13.8684H13.8553H13.8423H13.8293H13.8163H13.8033H13.7903H13.7773H13.7643H13.7513H13.7383H13.7253H13.7124H13.6994H13.6864H13.6734H13.6604H13.6475H13.6345H13.6215H13.6086H13.5956H13.5827H13.5697H13.5568H13.5438H13.5309H13.5179H13.505H13.492H13.4791H13.4661H13.4532H13.4403H13.4273H13.4144H13.4014H13.3885H13.3756H13.3626H13.3497H13.3368H13.3239H13.3109H13.298H13.2851H13.2722H13.2592H13.2463H13.2334H13.2205H13.2075H13.1946H13.1817H13.1688H13.1558H13.1429H13.13H13.1171H13.1041H13.0912H13.0783H13.0654H13.0524H13.0395H13.0266H13.0136H13.0007H12.9878H12.9749H12.9619H12.949H12.936H12.9231H12.9102H12.8972H12.8843H12.8713H12.8584H12.8455H12.8325H12.8196H12.8066H12.7937H12.7807H12.7677H12.7548H12.7418H12.7289H12.7159H12.7029H12.6899H12.677H12.664H12.651H12.638H12.6251H12.6121H12.5991H12.5861H12.5731H12.5601H12.5471H12.5341H12.5211H12.508H12.495H12.482H12.469H12.456H12.4429H12.4299H12.4168H12.4038H12.3908H12.3777H12.3646H12.3516H12.3385H12.3254H12.3124H12.2993H12.2862H12.2731H12.26H12.2469H12.2338H12.2207H12.2076H12.1945H12.1814H12.1682H12.1551H12.142H12.1288H12.1157H12.1025H12.0894H12.0762H12.063H12.0498H12.0367H12.0235H12.0103H11.9971H11.9839H11.9706H11.9574H11.9442H11.931H11.9177H11.9045H11.8912H11.878H11.8647H11.8514H11.8381H11.8249H11.8116H11.7983H11.785H11.7716H11.7583H11.745H11.7316H11.7183H11.7049H11.6916H11.6782H11.6648H11.6514H11.6381H11.6247H11.6112H11.5978H11.5844H11.571H11.5575H11.5441H11.5306H11.5171H11.5037H11.4902H11.4767H11.4632H11.4497H11.4362H11.4226H11.4091H11.3955H11.382H11.3684H11.3548H11.3413H11.3277H11.3141H11.3004H11.2868H11.2732H11.2595H11.2459H11.2322H11.2186H11.2049H11.1912H11.1775H11.1638H11.15H11.1363H11.1226H11.1088H11.095H11.0813H11.0675H11.0537H11.0399H11.026H11.0122H10.9984H10.9845H10.9706H10.9568H10.9429H10.929H10.9151H10.9011H10.8872H10.8733H10.8593H10.8453H10.8313H10.8173H10.8033H10.7893H10.7753H10.7612H10.7472H10.7331H10.719H10.7049H10.6908H10.6767H10.6626H10.6484H10.6343H10.6201H10.6059H10.5917H10.5775H10.5633H10.5491H10.5348H10.5206H10.5063H10.492H10.4777H10.4634H10.449H10.4347H10.4203H10.406H10.3916H10.3772H10.3628H10.3483H10.3339H10.3194H10.3049H10.2905H10.276H10.2614H10.2469H10.2324H10.2178H10.2032H10.1886H10.174H10.1594H10.1448H10.1301H10.1154H10.1008H10.0861H10.0714H10.0566H10.0419H10.0271H10.0123H9.99754H9.98273H9.96791H9.95307H9.93821H9.92334H9.90845H9.89354H9.87862H9.86368H9.84872H9.83375H9.81876H9.80375H9.78873H9.77369H9.75863H9.74356H9.72847H9.71336H9.69824H9.68309H9.66793H9.65275H9.63756H9.62235H9.60712H9.59187H9.5766H9.56132H9.54601H9.53069H9.51536H9.5C4.66751 20.25 0.75 16.3325 0.75 11.5Z" fill="black"/>
</svg>
