<svg width="24" height="24" viewBox="0 0 24 24" fill="none" xmlns="http://www.w3.org/2000/svg">
<path fill-rule="evenodd" clip-rule="evenodd" d="M16.5961 16.75C15.9057 16.75 15.3461 16.1904 15.3461 15.5L15.3461 10.4217L8.28764 17.4802C7.79949 17.9683 7.00803 17.9683 6.51988 17.4802C6.03172 16.992 6.03172 16.2006 6.51988 15.7124L13.5784 8.6539L8.50002 8.65389C7.80966 8.65388 7.25002 8.09424 7.25002 7.40388C7.25002 6.71353 7.80967 6.15388 8.50002 6.15389L16.5962 6.15391C16.9277 6.15391 17.2456 6.28561 17.48 6.52003C17.7145 6.75445 17.8462 7.07239 17.8461 7.40391L17.8461 15.5C17.8461 16.1904 17.2865 16.75 16.5961 16.75Z" fill="black"/>
</svg>
