<svg width="24" height="24" viewBox="0 0 24 24" fill="none" xmlns="http://www.w3.org/2000/svg">
<path fill-rule="evenodd" clip-rule="evenodd" d="M15.2858 4.28571C15.2858 2.47106 13.8147 1 12 1C10.1854 1 8.71433 2.47106 8.71433 4.28571V6.28572C8.71433 6.42526 8.71419 6.5049 8.71217 6.56401C8.7114 6.58653 8.71049 6.59993 8.70995 6.60652C8.69709 6.65732 8.65737 6.69705 8.60656 6.70991C8.59997 6.71044 8.58658 6.71136 8.56405 6.71213C8.50495 6.71415 8.4253 6.71429 8.28576 6.71429C8.24882 6.71429 8.21245 6.71427 8.1766 6.71426C7.48596 6.71404 6.99448 6.71388 6.56465 6.79938C4.80787 7.14882 3.43458 8.52211 3.08514 10.2789C2.99964 10.7087 2.9998 11.2002 3.00002 11.8909C3.00003 11.9267 3.00005 11.9631 3.00005 12V12.8571V17.2856V20.2857L3.00004 20.3426C2.99997 20.8321 2.99989 21.2943 3.0508 21.673C3.10755 22.0951 3.24354 22.5597 3.62767 22.9438C4.01181 23.3279 4.47638 23.4639 4.89849 23.5207C5.27718 23.5716 5.7394 23.5715 6.22884 23.5714L6.28576 23.5714H9.42862L12 23.5714H17.7143L17.7712 23.5714C18.2607 23.5715 18.7229 23.5716 19.1016 23.5207C19.5237 23.4639 19.9883 23.3279 20.3724 22.9438C20.7566 22.5597 20.8925 22.0951 20.9493 21.673C21.0002 21.2943 21.0001 20.8321 21.0001 20.3426L21 20.2857V17.2856V12.8571V12C21 11.9631 21.0001 11.9267 21.0001 11.8908C21.0003 11.2002 21.0005 10.7087 20.915 10.2789C20.5655 8.52211 19.1922 7.14882 17.4354 6.79938C17.0056 6.71388 16.5141 6.71404 15.8235 6.71426C15.7876 6.71427 15.7513 6.71429 15.7143 6.71429C15.5748 6.71429 15.4951 6.71415 15.436 6.71213C15.4135 6.71136 15.4001 6.71044 15.3935 6.70991C15.3427 6.69705 15.303 6.65732 15.2901 6.60652C15.2896 6.59993 15.2887 6.58653 15.2879 6.56401C15.2859 6.5049 15.2858 6.42525 15.2858 6.28571V4.28571ZM12 3C12.7101 3 13.2858 3.57563 13.2858 4.28571V6.28571C13.2858 6.3044 13.2857 6.32336 13.2857 6.34255C13.2853 6.54689 13.2849 6.778 13.3269 6.98948C13.496 7.83953 14.1605 8.50403 15.0106 8.67311C15.222 8.71518 15.4532 8.71474 15.6575 8.71436C15.6767 8.71432 15.6956 8.71429 15.7143 8.71429C16.5588 8.71429 16.835 8.71913 17.0453 8.76095C18.0087 8.95258 18.7618 9.70568 18.9534 10.6691C18.9929 10.8679 18.9994 11.1257 19 11.8673C18.9534 11.8606 18.9057 11.8571 18.8572 11.8571H5.0001C5.00074 11.1233 5.00734 10.867 5.04671 10.6691C5.23834 9.70568 5.99143 8.95258 6.95483 8.76095C7.16507 8.71913 7.44128 8.71429 8.28576 8.71429C8.30444 8.71429 8.3234 8.71432 8.3426 8.71436C8.54694 8.71474 8.77804 8.71518 8.98952 8.67311C9.83958 8.50403 10.5041 7.83953 10.6732 6.98948C10.7152 6.778 10.7148 6.54689 10.7144 6.34255C10.7144 6.32336 10.7143 6.3044 10.7143 6.28572V4.28571C10.7143 3.57563 11.29 3 12 3ZM5.00005 13.8571H18.8572C18.9057 13.8571 18.9534 13.8537 19 13.847V17.2856V20.2857C19 20.8527 18.9979 21.1774 18.9671 21.4065C18.9603 21.4575 18.9531 21.4936 18.9471 21.5185C18.9223 21.5245 18.8861 21.5317 18.8351 21.5385C18.606 21.5693 18.2813 21.5714 17.7143 21.5714H12L10.4286 21.5714V17.2856C10.4286 16.7334 9.9809 16.2856 9.42862 16.2856C8.87633 16.2856 8.42862 16.7334 8.42862 17.2856V21.5714H6.28576C5.71874 21.5714 5.39408 21.5693 5.16498 21.5385C5.11402 21.5317 5.07782 21.5245 5.05299 21.5185C5.04696 21.4936 5.03982 21.4575 5.03297 21.4065C5.00217 21.1774 5.00005 20.8527 5.00005 20.2857V17.2856V13.8571ZM5.06788 21.5653C5.06796 21.5651 5.06711 21.5629 5.06508 21.5593C5.06679 21.5637 5.0678 21.5655 5.06788 21.5653ZM5.01217 21.5064C5.00855 21.5044 5.00636 21.5035 5.00619 21.5036C5.00601 21.5037 5.00782 21.5047 5.01217 21.5064ZM18.9939 21.5036C18.9937 21.5035 18.9915 21.5044 18.9879 21.5064C18.9923 21.5047 18.9941 21.5037 18.9939 21.5036ZM18.935 21.5593C18.933 21.5629 18.9321 21.5651 18.9322 21.5653C18.9323 21.5655 18.9333 21.5637 18.935 21.5593Z" fill="black"/>
</svg>
