<svg width="24" height="24" viewBox="0 0 24 24" fill="none" xmlns="http://www.w3.org/2000/svg">
<path fill-rule="evenodd" clip-rule="evenodd" d="M6 7C6 3.68629 8.6863 1 12 1C15.3137 1 18 3.68629 18 7V8.22019C18.693 8.37607 19.3114 8.65455 19.8284 9.17157C20.4845 9.82768 20.7565 10.6471 20.8813 11.5749C21.0001 12.4587 21 13.5753 21 14.9295V15V16V16.0705C21 17.4247 21.0001 18.5413 20.8813 19.4251C20.7565 20.3529 20.4845 21.1723 19.8284 21.8284C19.1723 22.4845 18.3529 22.7565 17.4251 22.8812C16.5413 23.0001 15.4247 23 14.0705 23H14H10H9.92946C8.57533 23 7.4587 23.0001 6.57494 22.8812C5.64711 22.7565 4.82769 22.4845 4.17158 21.8284C3.51547 21.1723 3.2435 20.3529 3.11876 19.4251C2.99994 18.5413 2.99997 17.4247 3 16.0706L3 16V15L3 14.9294C2.99997 13.5753 2.99994 12.4587 3.11876 11.5749C3.2435 10.6471 3.51547 9.82768 4.17158 9.17157C4.6886 8.65455 5.30703 8.37607 6 8.22019V7ZM8 8.01692C8.5787 7.99996 9.22162 7.99998 9.92943 8L10 8H14L14.0706 8C14.7784 7.99998 15.4213 7.99996 16 8.01692V7C16 4.79086 14.2091 3 12 3C9.79087 3 8 4.79086 8 7V8.01692ZM6.84144 10.1009C6.13538 10.1958 5.80836 10.3632 5.58579 10.5858C5.36322 10.8084 5.19585 11.1354 5.10092 11.8414C5.00213 12.5763 5 13.5575 5 15V16C5 17.4425 5.00213 18.4237 5.10092 19.1586C5.19585 19.8646 5.36322 20.1916 5.58579 20.4142C5.80836 20.6368 6.13538 20.8042 6.84144 20.8991C7.57626 20.9979 8.55752 21 10 21H14C15.4425 21 16.4238 20.9979 17.1586 20.8991C17.8646 20.8042 18.1916 20.6368 18.4142 20.4142C18.6368 20.1916 18.8042 19.8646 18.8991 19.1586C18.9979 18.4237 19 17.4425 19 16V15C19 13.5575 18.9979 12.5763 18.8991 11.8414C18.8042 11.1354 18.6368 10.8084 18.4142 10.5858C18.1916 10.3632 17.8646 10.1958 17.1586 10.1009C16.4238 10.0021 15.4425 10 14 10H10C8.55752 10 7.57626 10.0021 6.84144 10.1009Z" fill="black"/>
</svg>
