<svg width="24" height="24" viewBox="0 0 24 24" fill="none" xmlns="http://www.w3.org/2000/svg">
<path fill-rule="evenodd" clip-rule="evenodd" d="M5.75 7C5.75 3.54822 8.54822 0.75 12 0.75C15.4518 0.75 18.25 3.54822 18.25 7V8.02388C18.8992 8.19498 19.496 8.48563 20.0052 8.9948C20.7155 9.7051 21.0005 10.5861 21.129 11.5416C21.2501 12.4422 21.2501 13.5733 21.25 14.9148L21.25 15V16L21.25 16.0852C21.2501 17.4267 21.2501 18.5578 21.129 19.4584C21.0005 20.4139 20.7155 21.2949 20.0052 22.0052C19.2949 22.7155 18.4139 23.0005 17.4584 23.129C16.5578 23.2501 15.4267 23.2501 14.0852 23.25L14 23.25H10L9.91483 23.25C8.57331 23.2501 7.44222 23.2501 6.54163 23.129C5.58608 23.0005 4.7051 22.7155 3.9948 22.0052C3.2845 21.2949 2.99945 20.4139 2.87098 19.4584C2.7499 18.5578 2.74995 17.4267 2.75 16.0852L2.75 16V15L2.75 14.9148C2.74995 13.5733 2.7499 12.4422 2.87098 11.5416C2.99945 10.5861 3.2845 9.7051 3.9948 8.9948C4.50396 8.48563 5.10083 8.19498 5.75 8.02388V7ZM8.25 7.76062C8.76206 7.74995 9.3176 7.74997 9.91484 7.75L10 7.75H14L14.0852 7.75C14.6824 7.74997 15.2379 7.74995 15.75 7.76062V7C15.75 4.92893 14.0711 3.25 12 3.25C9.92893 3.25 8.25 4.92893 8.25 7V7.76062ZM6.87475 10.3487C6.19642 10.4399 5.93094 10.5942 5.76257 10.7626C5.59419 10.9309 5.43989 11.1964 5.34869 11.8747C5.25266 12.589 5.25 13.5504 5.25 15V16C5.25 17.4496 5.25266 18.411 5.34869 19.1253C5.43989 19.8036 5.59419 20.0691 5.76257 20.2374C5.93094 20.4058 6.19642 20.5601 6.87475 20.6513C7.58904 20.7473 8.55045 20.75 10 20.75H14C15.4496 20.75 16.411 20.7473 17.1253 20.6513C17.8036 20.5601 18.0691 20.4058 18.2374 20.2374C18.4058 20.0691 18.5601 19.8036 18.6513 19.1253C18.7473 18.411 18.75 17.4496 18.75 16V15C18.75 13.5504 18.7473 12.589 18.6513 11.8747C18.5601 11.1964 18.4058 10.9309 18.2374 10.7626C18.0691 10.5942 17.8036 10.4399 17.1253 10.3487C16.411 10.2527 15.4496 10.25 14 10.25H10C8.55045 10.25 7.58904 10.2527 6.87475 10.3487Z" fill="black"/>
</svg>
