<svg width="24" height="24" viewBox="0 0 24 24" fill="none" xmlns="http://www.w3.org/2000/svg">
<rect width="24" height="24" transform="translate(24 24) rotate(-180)" fill="white" fill-opacity="0.02"/>
<path fill-rule="evenodd" clip-rule="evenodd" d="M2 12C2 6.47715 6.47715 2 12 2C17.5228 2 22 6.47715 22 12C22 17.5228 17.5228 22 12 22C6.47715 22 2 17.5228 2 12ZM10.7496 15.4232C10.7496 14.7327 11.3094 14.1729 12 14.1729C12.6906 14.1729 13.2504 14.7327 13.2504 15.4232C13.2504 16.1138 12.6906 16.6736 12 16.6736C11.3094 16.6736 10.7496 16.1138 10.7496 15.4232ZM10.75 11.6465C10.75 12.3368 11.3096 12.8965 12 12.8965C12.6904 12.8965 13.25 12.3368 13.25 11.6465L13.25 8C13.25 7.30964 12.6904 6.75 12 6.75C11.3096 6.75 10.75 7.30964 10.75 8L10.75 11.6465Z" fill="black"/>
</svg>
