<svg width="24" height="24" viewBox="0 0 24 24" fill="none" xmlns="http://www.w3.org/2000/svg">
<path d="M17 12L20.6343 8.36568C21.0627 7.93731 21.2769 7.72312 21.4608 7.70865C21.6203 7.69609 21.7763 7.76068 21.8802 7.88238C22 8.02265 22 8.32555 22 8.93137V15.0686C22 15.6744 22 15.9774 21.8802 16.1176C21.7763 16.2393 21.6203 16.3039 21.4608 16.2914C21.2769 16.2769 21.0627 16.0627 20.6343 15.6343L17 12ZM17 12V11C17 8.17157 17 6.75736 16.1213 5.87868C15.2426 5 13.8284 5 11 5H8C5.17157 5 3.75736 5 2.87868 5.87868C2 6.75736 2 8.17157 2 11V13C2 15.8284 2 17.2426 2.87868 18.1213C3.75736 19 5.17157 19 8 19H11C13.8284 19 15.2426 19 16.1213 18.1213C17 17.2426 17 15.8284 17 13V12Z" stroke="black" stroke-width="2.5" stroke-linecap="round" stroke-linejoin="round"/>
</svg>
