<svg width="24" height="24" viewBox="0 0 24 24" fill="none" xmlns="http://www.w3.org/2000/svg">
<path fill-rule="evenodd" clip-rule="evenodd" d="M8.91484 3.74999C8.94313 3.75 8.97152 3.75 9 3.75H15L15.0852 3.74999C16.4267 3.74994 17.5578 3.7499 18.4584 3.87098C19.4139 3.99945 20.2949 4.28449 21.0052 4.99479C21.7155 5.70509 22.0006 6.58607 22.129 7.54162C22.2501 8.44222 22.2501 9.5733 22.25 10.9148L22.25 11V13L22.25 13.0852C22.2501 14.4267 22.2501 15.5578 22.129 16.4584C22.0006 17.4139 21.7155 18.2949 21.0052 19.0052C20.2949 19.7155 19.4139 20.0005 18.4584 20.129C17.5578 20.2501 16.4267 20.2501 15.0852 20.25L15 20.25H9L8.91483 20.25C7.57331 20.2501 6.44223 20.2501 5.54163 20.129C4.58608 20.0005 3.7051 19.7155 2.9948 19.0052C2.2845 18.2949 1.99946 17.4139 1.87099 16.4584C1.7499 15.5578 1.74995 14.4267 1.75 13.0852L1.75 13V11C1.75 10.9715 1.75 10.9431 1.75 10.9148C1.74995 9.57331 1.7499 8.44222 1.87099 7.54162C1.99946 6.58607 2.2845 5.70509 2.9948 4.99479C3.7051 4.28449 4.58608 3.99945 5.54163 3.87098C6.44223 3.7499 7.57331 3.74994 8.91484 3.74999ZM5.87475 6.34869C5.19642 6.43988 4.93095 6.59418 4.76257 6.76256C4.59419 6.93094 4.43989 7.19641 4.34869 7.87474C4.25266 8.58903 4.25 9.55045 4.25 11V13C4.25 14.4495 4.25266 15.411 4.34869 16.1253C4.43989 16.8036 4.59419 17.0691 4.76257 17.2374C4.93095 17.4058 5.19642 17.5601 5.87475 17.6513C6.58904 17.7473 7.55045 17.75 9 17.75H15C16.4496 17.75 17.411 17.7473 18.1253 17.6513C18.8036 17.5601 19.0691 17.4058 19.2374 17.2374C19.4058 17.0691 19.5601 16.8036 19.6513 16.1253C19.7473 15.411 19.75 14.4495 19.75 13V11C19.75 9.55045 19.7473 8.58903 19.6513 7.87474C19.5601 7.19641 19.4058 6.93094 19.2374 6.76256C19.0691 6.59418 18.8036 6.43988 18.1253 6.34869C17.411 6.25265 16.4496 6.25 15 6.25H9C7.55045 6.25 6.58904 6.25265 5.87475 6.34869ZM6.25 10C6.25 9.30964 6.80965 8.75 7.5 8.75H7.6C8.29036 8.75 8.85 9.30964 8.85 10C8.85 10.6904 8.29036 11.25 7.6 11.25H7.5C6.80965 11.25 6.25 10.6904 6.25 10ZM10.75 10C10.75 9.30964 11.3096 8.75 12 8.75H12.1C12.7904 8.75 13.35 9.30964 13.35 10C13.35 10.6904 12.7904 11.25 12.1 11.25H12C11.3096 11.25 10.75 10.6904 10.75 10ZM15.25 10C15.25 9.30964 15.8096 8.75 16.5 8.75H16.6C17.2904 8.75 17.85 9.30964 17.85 10C17.85 10.6904 17.2904 11.25 16.6 11.25H16.5C15.8096 11.25 15.25 10.6904 15.25 10ZM6.25 14C6.25 13.3096 6.80965 12.75 7.5 12.75H7.6C8.29036 12.75 8.85 13.3096 8.85 14C8.85 14.6904 8.29036 15.25 7.6 15.25H7.5C6.80965 15.25 6.25 14.6904 6.25 14ZM10.75 14C10.75 13.3096 11.3096 12.75 12 12.75H12.1C12.7904 12.75 13.35 13.3096 13.35 14C13.35 14.6904 12.7904 15.25 12.1 15.25H12C11.3096 15.25 10.75 14.6904 10.75 14ZM15.25 14C15.25 13.3096 15.8096 12.75 16.5 12.75H16.6C17.2904 12.75 17.85 13.3096 17.85 14C17.85 14.6904 17.2904 15.25 16.6 15.25H16.5C15.8096 15.25 15.25 14.6904 15.25 14Z" fill="black"/>
</svg>
