<svg width="12" height="12" viewBox="0 0 12 12" fill="none" xmlns="http://www.w3.org/2000/svg">
<rect width="12" height="12" fill="white" fill-opacity="0.02"/>
<path fill-rule="evenodd" clip-rule="evenodd" d="M6 1.5C3.51472 1.5 1.5 3.51472 1.5 6C1.5 8.48528 3.51472 10.5 6 10.5C8.48528 10.5 10.5 8.48528 10.5 6C10.5 3.51472 8.48528 1.5 6 1.5ZM0 6C0 2.68629 2.68629 0 6 0C9.31371 0 12 2.68629 12 6C12 9.31371 9.31371 12 6 12C2.68629 12 0 9.31371 0 6ZM6.75 3.75C6.75 4.16421 6.41421 4.5 6 4.5C5.58579 4.5 5.25 4.16421 5.25 3.75C5.25 3.33579 5.58579 3 6 3C6.41421 3 6.75 3.33579 6.75 3.75ZM6.75 9.01336V5.24854H5.25V9.01336H6.75Z" fill="black"/>
</svg>
