<svg width="24" height="24" viewBox="0 0 24 24" fill="none" xmlns="http://www.w3.org/2000/svg">
<path fill-rule="evenodd" clip-rule="evenodd" d="M12.0009 4.25C7.7202 4.25 4.25 7.7202 4.25 12.0009C4.25 16.2816 7.7202 19.7518 12.0009 19.7518C16.2816 19.7518 19.7518 16.2816 19.7518 12.0009C19.7518 7.7202 16.2816 4.25 12.0009 4.25ZM1.75 12.0009C1.75 6.33948 6.33948 1.75 12.0009 1.75C17.6623 1.75 22.2518 6.33948 22.2518 12.0009C22.2518 17.6623 17.6623 22.2518 12.0009 22.2518C6.33948 22.2518 1.75 17.6623 1.75 12.0009ZM12.0009 5.75C12.6913 5.75 13.2509 6.30964 13.2509 7V9.51562C13.2509 10.8439 13.273 11.1598 13.3841 11.428C13.4952 11.6961 13.7029 11.9352 14.6421 12.8744L15.3839 13.6161C15.872 14.1043 15.872 14.8957 15.3839 15.3839C14.8957 15.872 14.1043 15.872 13.6161 15.3839L12.8744 14.6421C12.8288 14.5965 12.7836 14.5515 12.739 14.5069C12.0048 13.7745 11.4002 13.1713 11.0744 12.3847C10.7486 11.5981 10.7496 10.744 10.7508 9.70697C10.7508 9.64387 10.7509 9.5801 10.7509 9.51562V7C10.7509 6.30964 11.3105 5.75 12.0009 5.75Z" fill="black"/>
</svg>
