<svg width="24" height="24" viewBox="0 0 24 24" fill="none" xmlns="http://www.w3.org/2000/svg">
<path fill-rule="evenodd" clip-rule="evenodd" d="M10.5536 2.25L10.6125 2.25H13.3876L13.4465 2.25C14.2761 2.24997 14.99 2.24994 15.5828 2.31013C16.2179 2.37462 16.8156 2.51559 17.386 2.859C17.9564 3.20242 18.3606 3.66471 18.7147 4.19579C19.0453 4.69155 19.3793 5.32255 19.7675 6.05574L19.795 6.10782L21.1186 8.60782L21.1433 8.65452C21.4861 9.30204 21.7822 9.86119 21.9865 10.3518C22.2057 10.8779 22.3556 11.4057 22.3556 12C22.3556 12.5943 22.2057 13.1221 21.9865 13.6482C21.7822 14.1388 21.4862 14.6979 21.1433 15.3454L21.1186 15.3922L19.795 17.8922L19.7674 17.9444C19.3793 18.6775 19.0453 19.3085 18.7147 19.8042C18.3606 20.3353 17.9564 20.7976 17.386 21.141C16.8156 21.4844 16.2179 21.6254 15.5828 21.6899C14.99 21.7501 14.2761 21.75 13.4466 21.75H13.3876H10.6125H10.5536C9.72399 21.75 9.01006 21.7501 8.41726 21.6899C7.7822 21.6254 7.1845 21.4844 6.61412 21.141C6.04374 20.7976 5.63949 20.3353 5.28536 19.8042C4.9548 19.3085 4.62079 18.6775 4.23267 17.9443L4.20508 17.8922L2.88155 15.3922L2.85678 15.3454C2.51396 14.6979 2.21793 14.1388 2.01357 13.6482C1.79444 13.1221 1.64453 12.5943 1.64453 12C1.64453 11.4057 1.79444 10.8779 2.01357 10.3518C2.21793 9.86121 2.51396 9.30208 2.85678 8.65459L2.88155 8.60782L4.20508 6.10781C4.21431 6.09038 4.22351 6.07301 4.23267 6.05569C4.62079 5.32251 4.9548 4.69153 5.28536 4.19579C5.63949 3.6647 6.04374 3.20242 6.61412 2.859C7.1845 2.51559 7.7822 2.37462 8.41726 2.31013C9.01006 2.24994 9.72399 2.24997 10.5536 2.25ZM8.66982 4.79734C8.24649 4.84033 8.04725 4.9143 7.90364 5.00077C7.76002 5.08724 7.60142 5.22871 7.36536 5.58273C7.11354 5.96038 6.838 6.47768 6.41455 7.27753L5.09102 9.77753C4.71651 10.4849 4.47602 10.9418 4.32137 11.3131C4.17658 11.6607 4.14453 11.8492 4.14453 12C4.14453 12.1508 4.17658 12.3393 4.32137 12.6869C4.47602 13.0582 4.71651 13.5151 5.09102 14.2225L6.41455 16.7225C6.838 17.5223 7.11354 18.0396 7.36536 18.4173C7.60142 18.7713 7.76002 18.9128 7.90364 18.9992C8.04725 19.0857 8.24649 19.1597 8.66982 19.2027C9.12141 19.2485 9.70751 19.25 10.6125 19.25H13.3876C14.2926 19.25 14.8787 19.2485 15.3303 19.2027C15.7536 19.1597 15.9529 19.0857 16.0965 18.9992C16.2401 18.9128 16.3987 18.7713 16.6347 18.4173C16.8866 18.0396 17.1621 17.5223 17.5856 16.7225L18.9091 14.2225C19.2836 13.5151 19.5241 13.0582 19.6787 12.6869C19.8235 12.3393 19.8556 12.1508 19.8556 12C19.8556 11.8492 19.8235 11.6607 19.6787 11.3131C19.5241 10.9418 19.2836 10.4849 18.9091 9.77754L17.5856 7.27754C17.1621 6.47768 16.8866 5.96038 16.6347 5.58273C16.3987 5.22871 16.2401 5.08724 16.0965 5.00077C15.9529 4.9143 15.7536 4.84033 15.3303 4.79734C14.8787 4.75149 14.2926 4.75 13.3876 4.75H10.6125C9.70751 4.75 9.12141 4.75149 8.66982 4.79734ZM12.0001 10.25C11.0336 10.25 10.2501 11.0335 10.2501 12C10.2501 12.9665 11.0336 13.75 12.0001 13.75C12.9665 13.75 13.7501 12.9665 13.7501 12C13.7501 11.0335 12.9665 10.25 12.0001 10.25ZM7.75005 12C7.75005 9.65279 9.65284 7.75 12.0001 7.75C14.3473 7.75 16.2501 9.65279 16.2501 12C16.2501 14.3472 14.3473 16.25 12.0001 16.25C9.65284 16.25 7.75005 14.3472 7.75005 12Z" fill="black"/>
</svg>
