<svg width="24" height="24" viewBox="0 0 24 24" fill="none" xmlns="http://www.w3.org/2000/svg">
<path d="M20.1099 14.0265L19.7622 12.8258L19.762 12.8259L20.1099 14.0265ZM20.9072 13.6923L19.8898 12.9662L19.8892 12.967L20.9072 13.6923ZM20.9072 10.3077L19.8895 11.0336L19.8898 11.0339L20.9072 10.3077ZM20.1099 9.97356L19.7621 11.1742L19.7622 11.1742L20.1099 9.97356ZM17.709 5.62119L18.9239 5.91508L18.924 5.915L17.709 5.62119ZM17.2647 4.23419L16.6139 5.30142L16.614 5.30146L17.2647 4.23419ZM15.7125 3.28765L15.0617 4.35486L15.0617 4.35488L15.7125 3.28765ZM15.0597 3.00297L15.2386 4.24011L15.2387 4.24009L15.0597 3.00297ZM14.4005 3.5699L13.4868 2.71689L13.4866 2.71702L14.4005 3.5699ZM9.60091 3.56982L10.5147 2.71693L10.5147 2.71693L9.60091 3.56982ZM8.94174 3.00288L9.12078 1.76577L9.12071 1.76576L8.94174 3.00288ZM8.28888 3.28756L7.6381 2.22032L7.63808 2.22033L8.28888 3.28756ZM6.73666 4.2341L7.38744 5.30133L7.38745 5.30132L6.73666 4.2341ZM6.1651 4.69738L7.32813 5.15548L7.32815 5.15545L6.1651 4.69738ZM6.29243 5.62112L7.50742 5.32739L7.50742 5.32738L6.29243 5.62112ZM3.89012 9.97358L4.23777 11.1743L4.23782 11.1743L3.89012 9.97358ZM3.09277 10.3076L2.0753 9.58153L2.07501 9.58193L3.09277 10.3076ZM3.09277 13.6923L4.11057 12.9667L4.11028 12.9663L3.09277 13.6923ZM3.89012 14.0265L4.23789 12.8258L4.23776 12.8258L3.89012 14.0265ZM6.29105 18.3789L5.07609 18.085L5.07608 18.085L6.29105 18.3789ZM6.16364 19.3026L5.00054 19.7605L5.00056 19.7605L6.16364 19.3026ZM6.73522 19.7659L7.38604 18.6986L7.38585 18.6985L6.73522 19.7659ZM8.28746 20.7125L7.63664 21.7797L7.6368 21.7798L8.28746 20.7125ZM9.59944 20.4301L10.5133 21.2829L10.5134 21.2829L9.59944 20.4301ZM14.402 20.43L15.3161 19.5774L15.3159 19.5772L14.402 20.43ZM15.0611 20.997L15.2401 19.7599L15.24 19.7599L15.0611 20.997ZM15.7139 20.7124L16.3647 21.7796L16.3648 21.7796L15.7139 20.7124ZM17.2662 19.7658L16.6156 18.6984L16.6153 18.6985L17.2662 19.7658ZM17.8378 19.3025L16.6747 18.8445L16.6744 18.8451L17.8378 19.3025ZM17.7103 18.3788L18.9253 18.0848L18.9253 18.0847L17.7103 18.3788ZM20.4576 15.2272C20.6687 15.166 20.9098 15.0975 21.1038 15.0219C21.2752 14.9551 21.6551 14.7968 21.9252 14.4177L19.8892 12.967C19.9835 12.8346 20.0857 12.7591 20.1417 12.7237C20.1929 12.6913 20.2213 12.6827 20.1961 12.6925C20.1734 12.7014 20.1306 12.7163 20.0521 12.7404C19.9745 12.7643 19.8826 12.791 19.7622 12.8258L20.4576 15.2272ZM21.9247 14.4185C22.1612 14.087 22.2136 13.74 22.2327 13.541C22.2514 13.3464 22.25 13.1184 22.25 12.9346H19.75C19.75 13.0425 19.75 13.1218 19.7488 13.1887C19.7475 13.2562 19.7454 13.2888 19.7441 13.3022C19.7428 13.3164 19.7446 13.2834 19.7615 13.2258C19.7802 13.1619 19.8177 13.0672 19.8898 12.9662L21.9247 14.4185ZM22.25 12.9346V11.0655H19.75V12.9346H22.25ZM22.25 11.0655C22.25 10.8816 22.2514 10.6537 22.2327 10.459C22.2136 10.26 22.1612 9.91305 21.9247 9.58158L19.8898 11.0339C19.8177 10.9329 19.7802 10.8381 19.7615 10.7743C19.7446 10.7167 19.7428 10.6836 19.7441 10.6978C19.7454 10.7113 19.7475 10.7439 19.7488 10.8113C19.75 10.8783 19.75 10.9575 19.75 11.0655H22.25ZM21.9249 9.58194C21.6549 9.20331 21.2753 9.04504 21.1038 8.97819C20.9098 8.9026 20.6688 8.83406 20.4576 8.7729L19.7622 11.1742C19.8826 11.2091 19.9745 11.2357 20.052 11.2596C20.1305 11.2837 20.1733 11.2987 20.196 11.3076C20.2212 11.3174 20.1928 11.3087 20.1417 11.2764C20.0858 11.2411 19.9837 11.1656 19.8895 11.0336L21.9249 9.58194ZM20.4577 8.77291C19.3891 8.4634 18.617 7.18405 18.9239 5.91508L16.494 5.32729C15.8949 7.80422 17.32 10.4669 19.7621 11.1742L20.4577 8.77291ZM18.924 5.915C18.9812 5.67845 19.0425 5.42855 19.0759 5.22098C19.1038 5.04701 19.1617 4.65163 18.9994 4.23946L16.6733 5.15557C16.6163 5.01087 16.6096 4.89438 16.6091 4.84671C16.6086 4.80146 16.6136 4.78669 16.6075 4.8247C16.6018 4.8599 16.5909 4.91528 16.5707 5.00449C16.5507 5.09285 16.5258 5.196 16.494 5.32738L18.924 5.915ZM18.9994 4.23946C18.8486 3.85655 18.5848 3.6237 18.4154 3.49422C18.258 3.37384 18.0626 3.25666 17.9154 3.16692L16.614 5.30146C16.7025 5.35539 16.7656 5.39393 16.8179 5.42726C16.8706 5.46084 16.8918 5.47625 16.8971 5.48034C16.9025 5.48449 16.8698 5.4606 16.8255 5.40954C16.7763 5.35285 16.7176 5.26804 16.6733 5.15557L18.9994 4.23946ZM17.9155 3.16696L16.3633 2.22042L15.0617 4.35488L16.6139 5.30142L17.9155 3.16696ZM16.3633 2.22045C16.2203 2.1332 16.0276 2.01369 15.85 1.92996C15.6649 1.84267 15.3158 1.7029 14.8807 1.76586L15.2387 4.24009C15.0989 4.26032 14.98 4.2467 14.8969 4.22754C14.8578 4.21851 14.8285 4.20869 14.8107 4.20214C14.8017 4.1988 14.7949 4.19601 14.7905 4.19417C14.7862 4.19233 14.7839 4.19122 14.7837 4.19114C14.7835 4.19106 14.7851 4.1918 14.7886 4.19359C14.7921 4.19538 14.7971 4.198 14.8039 4.20165C14.8177 4.20914 14.8362 4.21952 14.861 4.23398C14.9131 4.26433 14.9748 4.30186 15.0617 4.35486L16.3633 2.22045ZM14.8808 1.76584C14.4077 1.83427 14.0873 2.1185 13.9631 2.23071C13.8103 2.36868 13.6401 2.5526 13.4868 2.71689L15.3142 4.42291C15.401 4.32989 15.468 4.25819 15.5258 4.19817C15.5843 4.13741 15.6188 4.104 15.6388 4.0859C15.6478 4.07779 15.6486 4.07758 15.6425 4.08233C15.6366 4.08696 15.619 4.10031 15.5909 4.11739C15.5364 4.15055 15.415 4.21461 15.2386 4.24011L14.8808 1.76584ZM13.4866 2.71702C12.6676 3.59463 11.3339 3.59466 10.5147 2.71693L8.68708 4.4227C10.4945 6.35932 13.5068 6.35947 15.3143 4.42278L13.4866 2.71702ZM10.5147 2.71693C10.3613 2.55256 10.1912 2.36865 10.0384 2.23063C9.9142 2.11843 9.59385 1.83423 9.12078 1.76577L8.7627 4.23999C8.58638 4.21447 8.46494 4.15041 8.4105 4.11726C8.38245 4.10019 8.36485 4.08684 8.35892 4.08222C8.35281 4.07747 8.35361 4.07768 8.36258 4.08579C8.38261 4.10388 8.41707 4.13728 8.47555 4.19802C8.53333 4.25802 8.60028 4.32971 8.68708 4.4227L10.5147 2.71693ZM9.12071 1.76576C8.68569 1.70282 8.3366 1.84254 8.15145 1.92984C7.97389 2.01356 7.78119 2.13307 7.6381 2.22032L8.93965 4.35479C9.02657 4.30179 9.08821 4.26426 9.14031 4.23391C9.16513 4.21945 9.18362 4.20907 9.19746 4.20159C9.20422 4.19794 9.20924 4.19531 9.21275 4.19353C9.21626 4.19173 9.21783 4.191 9.21767 4.19107C9.21751 4.19115 9.21515 4.19226 9.21082 4.1941C9.20649 4.19594 9.19968 4.19872 9.19063 4.20207C9.17291 4.20861 9.14357 4.21843 9.10445 4.22745C9.02145 4.24661 8.90252 4.26022 8.76277 4.24L9.12071 1.76576ZM7.63808 2.22033L6.08586 3.16688L7.38745 5.30132L8.93967 4.35478L7.63808 2.22033ZM6.08587 3.16687C5.93876 3.25658 5.74347 3.37375 5.58606 3.49407C5.41678 3.62346 5.1529 3.85631 5.00206 4.23931L7.32815 5.15545C7.28382 5.268 7.22499 5.35285 7.17584 5.40952C7.13157 5.46057 7.09883 5.48444 7.10428 5.48027C7.10965 5.47617 7.13087 5.46075 7.18357 5.42715C7.23587 5.39381 7.29898 5.35527 7.38744 5.30133L6.08587 3.16687ZM5.00207 4.23928C4.83972 4.65145 4.89763 5.04687 4.92555 5.22079C4.95886 5.42837 5.02023 5.67828 5.07743 5.91487L7.50742 5.32738C7.47566 5.19599 7.45074 5.09283 7.43072 5.00445C7.4105 4.91523 7.39961 4.85984 7.39396 4.82463C7.38785 4.7866 7.3928 4.80136 7.39231 4.8466C7.39179 4.89425 7.38514 5.01075 7.32813 5.15548L5.00207 4.23928ZM5.07743 5.91485C5.38413 7.18351 4.61169 8.46327 3.54242 8.77292L4.23782 11.1743C6.67981 10.4671 8.10634 7.80475 7.50742 5.32739L5.07743 5.91485ZM3.54247 8.7729C3.33124 8.83406 3.09026 8.90258 2.89635 8.97812C2.72499 9.04488 2.3454 9.20305 2.0753 9.58153L4.11025 11.0338C4.01596 11.1659 3.91386 11.2413 3.85804 11.2765C3.80691 11.3088 3.77862 11.3174 3.80384 11.3076C3.82661 11.2987 3.86945 11.2838 3.94793 11.2596C4.02551 11.2358 4.11741 11.2091 4.23777 11.1743L3.54247 8.7729ZM2.07501 9.58193C1.83875 9.91327 1.7864 10.26 1.76731 10.4591C1.74864 10.6537 1.75 10.8816 1.75 11.0655H4.25C4.25 10.9575 4.25004 10.8783 4.25125 10.8113C4.25246 10.7439 4.25459 10.7113 4.25588 10.6978C4.25725 10.6836 4.25543 10.7166 4.23855 10.7741C4.21984 10.8379 4.18249 10.9324 4.11053 11.0334L2.07501 9.58193ZM1.75 11.0655V12.9346H4.25V11.0655H1.75ZM1.75 12.9346C1.75 13.1185 1.74864 13.3464 1.76731 13.541C1.7864 13.74 1.83875 14.087 2.07527 14.4184L4.11028 12.9663C4.18238 13.0673 4.21979 13.162 4.23852 13.2258C4.25542 13.2834 4.25725 13.3165 4.25588 13.3023C4.25459 13.2888 4.25246 13.2562 4.25125 13.1887C4.25004 13.1218 4.25 13.0425 4.25 12.9346H1.75ZM2.07498 14.418C2.34505 14.7968 2.72477 14.9551 2.89625 15.0219C3.09022 15.0975 3.33126 15.166 3.54247 15.2272L4.23776 12.8258C4.1174 12.791 4.0255 12.7643 3.94793 12.7405C3.86947 12.7163 3.82665 12.7014 3.80392 12.6925C3.77874 12.6827 3.8071 12.6913 3.85829 12.7237C3.9142 12.759 4.01632 12.8345 4.11057 12.9667L2.07498 14.418ZM3.54235 15.2271C4.61094 15.5367 5.38302 16.816 5.07609 18.085L7.50601 18.6727C8.10512 16.1959 6.67999 13.5332 4.23789 12.8258L3.54235 15.2271ZM5.07608 18.085C5.01887 18.3215 4.95747 18.5714 4.92414 18.779C4.89619 18.953 4.83828 19.3483 5.00054 19.7605L7.32675 18.8446C7.3837 18.9893 7.39035 19.1058 7.39086 19.1534C7.39135 19.1987 7.3864 19.2134 7.39251 19.1754C7.39816 19.1402 7.40905 19.0848 7.42928 18.9956C7.44931 18.9073 7.47424 18.8041 7.50602 18.6727L5.07608 18.085ZM5.00056 19.7605C5.15137 20.1435 5.4152 20.3764 5.58459 20.5059C5.74209 20.6263 5.93743 20.7435 6.0846 20.8332L7.38585 18.6985C7.29741 18.6446 7.23432 18.6061 7.18204 18.5728C7.12937 18.5392 7.10818 18.5238 7.10285 18.5197C7.09743 18.5156 7.1302 18.5395 7.17448 18.5905C7.22363 18.6472 7.28243 18.7321 7.32673 18.8446L5.00056 19.7605ZM6.08441 20.8331L7.63664 21.7797L8.93827 19.6452L7.38604 18.6986L6.08441 20.8331ZM7.6368 21.7798C7.77984 21.867 7.97254 21.9865 8.15006 22.0702C8.33516 22.1574 8.68426 22.2972 9.11931 22.2342L8.76141 19.76C8.90118 19.7398 9.02011 19.7534 9.1031 19.7726C9.14221 19.7816 9.17155 19.7914 9.18926 19.7979C9.1983 19.8013 9.2051 19.8041 9.20943 19.8059C9.21376 19.8077 9.21611 19.8088 9.21626 19.8089C9.21642 19.809 9.21485 19.8083 9.21133 19.8065C9.20781 19.8047 9.20279 19.802 9.19603 19.7984C9.18217 19.7909 9.16367 19.7805 9.13884 19.766C9.08672 19.7357 9.02506 19.6982 8.93811 19.6451L7.6368 21.7798ZM9.11931 22.2342C9.59263 22.1658 9.91308 21.8813 10.0372 21.7692C10.1899 21.6312 10.36 21.4472 10.5133 21.2829L8.68553 19.5773C8.59873 19.6703 8.53179 19.742 8.474 19.802C8.41551 19.8628 8.38105 19.8962 8.36102 19.9143C8.35204 19.9224 8.35125 19.9227 8.35735 19.9179C8.36329 19.9133 8.38089 19.8999 8.40896 19.8828C8.46342 19.8497 8.58495 19.7855 8.76141 19.76L9.11931 22.2342ZM10.5134 21.2829C11.3332 20.4042 12.6682 20.4042 13.4881 21.2828L15.3159 19.5772C13.5076 17.6393 10.4937 17.6395 8.6855 19.5773L10.5134 21.2829ZM13.488 21.2827C13.6413 21.4471 13.8115 21.6311 13.9643 21.7692C14.0886 21.8815 14.409 22.1657 14.8822 22.2342L15.24 19.7599C15.4163 19.7854 15.5378 19.8494 15.5923 19.8826C15.6204 19.8997 15.638 19.9131 15.644 19.9177C15.6501 19.9225 15.6493 19.9223 15.6404 19.9142C15.6204 19.8962 15.5859 19.8628 15.5275 19.8021C15.4697 19.7421 15.4028 19.6704 15.3161 19.5774L13.488 21.2827ZM14.8821 22.2341C15.3172 22.2971 15.6663 22.1573 15.8513 22.0701C16.0289 21.9863 16.2216 21.8669 16.3647 21.7796L15.0632 19.6451C14.9763 19.6981 14.9147 19.7356 14.8626 19.766C14.8377 19.7804 14.8193 19.7908 14.8054 19.7983C14.7986 19.8019 14.7936 19.8046 14.7901 19.8064C14.7866 19.8081 14.785 19.8089 14.7852 19.8088C14.7853 19.8087 14.7877 19.8076 14.792 19.8058C14.7963 19.804 14.8031 19.8012 14.8122 19.7978C14.8299 19.7913 14.8592 19.7815 14.8983 19.7725C14.9813 19.7533 15.1002 19.7397 15.2401 19.7599L14.8821 22.2341ZM16.3648 21.7796L17.917 20.833L16.6153 18.6985L15.0631 19.6452L16.3648 21.7796ZM17.9167 20.8331C18.0639 20.7434 18.2593 20.6262 18.4168 20.5058C18.5862 20.3763 18.8503 20.1433 19.0011 19.7598L16.6744 18.8451C16.7188 18.7324 16.7776 18.6474 16.8269 18.5906C16.8712 18.5394 16.904 18.5155 16.8986 18.5196C16.8933 18.5237 16.8722 18.5391 16.8195 18.5726C16.7672 18.6059 16.7041 18.6445 16.6156 18.6984L17.9167 20.8331ZM19.0008 19.7604C19.1631 19.3483 19.1052 18.953 19.0773 18.7789C19.0439 18.5713 18.9825 18.3214 18.9253 18.0848L16.4954 18.6728C16.5272 18.8041 16.5521 18.9073 16.5721 18.9956C16.5924 19.0848 16.6033 19.1402 16.6089 19.1754C16.615 19.2133 16.6101 19.1985 16.6105 19.1533C16.6111 19.1056 16.6177 18.9891 16.6747 18.8445L19.0008 19.7604ZM18.9253 18.0847C18.6181 16.8155 19.3898 15.5366 20.4578 15.2271L19.762 12.8259C17.3198 13.5335 15.8961 16.1964 16.4954 18.6728L18.9253 18.0847ZM13.45 12C13.45 12.8008 12.8008 13.45 12 13.45V15.95C14.1815 15.95 15.95 14.1815 15.95 12H13.45ZM12 13.45C11.1992 13.45 10.55 12.8008 10.55 12H8.05C8.05 14.1815 9.81848 15.95 12 15.95V13.45ZM10.55 12C10.55 11.1992 11.1992 10.55 12 10.55V8.05C9.81848 8.05 8.05 9.81847 8.05 12H10.55ZM12 10.55C12.8008 10.55 13.45 11.1992 13.45 12H15.95C15.95 9.81848 14.1815 8.05 12 8.05V10.55Z" fill="black"/>
</svg>
