<svg width="24" height="24" viewBox="0 0 24 24" fill="none" xmlns="http://www.w3.org/2000/svg">
<path fill-rule="evenodd" clip-rule="evenodd" d="M12 4.25C7.71979 4.25 4.25 7.71979 4.25 12C4.25 13.648 4.76436 15.1758 5.6413 16.4317C6.37672 15.6696 7.31288 14.9169 8.40995 14.361C7.62712 13.4997 7.15 12.3556 7.15 11.1C7.15 8.42142 9.32142 6.25 12 6.25C14.6786 6.25 16.85 8.42142 16.85 11.1C16.85 12.3672 16.364 13.5208 15.5683 14.3848C16.4901 14.8665 17.4153 15.5523 18.3293 16.4735C19.2241 15.2097 19.75 13.6663 19.75 12C19.75 7.71979 16.2802 4.25 12 4.25ZM16.5764 18.2552C14.4169 16.0625 12.479 15.7598 10.9652 16.0804C9.54195 16.3818 8.28032 17.2787 7.38379 18.2258C8.67322 19.1834 10.2704 19.75 12 19.75C13.7118 19.75 15.294 19.195 16.5764 18.2552ZM1.75 12C1.75 6.33908 6.33908 1.75 12 1.75C17.6609 1.75 22.25 6.33908 22.25 12C22.25 17.6609 17.6609 22.25 12 22.25C6.33908 22.25 1.75 17.6609 1.75 12ZM12 8.75C10.7021 8.75 9.65 9.80213 9.65 11.1C9.65 12.3979 10.7021 13.45 12 13.45C13.2979 13.45 14.35 12.3979 14.35 11.1C14.35 9.80213 13.2979 8.75 12 8.75Z" fill="black"/>
</svg>
