<svg width="64" height="64" viewBox="0 0 64 64" fill="none" xmlns="http://www.w3.org/2000/svg">
<rect width="64" height="64" fill="white" fill-opacity="0.02"/>
<path fill-rule="evenodd" clip-rule="evenodd" d="M32 62C48.5685 62 62 48.5685 62 32C62 15.4315 48.5685 2 32 2C15.4315 2 2 15.4315 2 32C2 48.5685 15.4315 62 32 62ZM16 32C16 29.7909 17.7909 28 20 28C22.2091 28 24 29.7909 24 32C24 34.2091 22.2091 36 20 36C17.7909 36 16 34.2091 16 32ZM32 28C29.7909 28 28 29.7909 28 32C28 34.2091 29.7909 36 32 36C34.2091 36 36 34.2091 36 32C36 29.7909 34.2091 28 32 28ZM44 28C41.7909 28 40 29.7909 40 32C40 34.2091 41.7909 36 44 36C46.2091 36 48 34.2091 48 32C48 29.7909 46.2091 28 44 28Z" fill="black"/>
</svg>
