<svg width="20" height="20" viewBox="0 0 20 20" fill="none" xmlns="http://www.w3.org/2000/svg">
<rect width="20" height="20" fill="white" fill-opacity="0.02"/>
<path fill-rule="evenodd" clip-rule="evenodd" d="M19 10C19 14.9706 14.9706 19 10 19C5.02944 19 1 14.9706 1 10C1 5.02944 5.02944 1 10 1C14.9706 1 19 5.02944 19 10ZM11 5.75C11 6.30228 10.5523 6.75 10 6.75C9.44771 6.75 9 6.30228 9 5.75C9 5.19772 9.44771 4.75 10 4.75C10.5523 4.75 11 5.19772 11 5.75ZM11 14.25V8.25H9V14.25H11Z" fill="black"/>
</svg>
