<svg width="24" height="24" viewBox="0 0 24 24" fill="none" xmlns="http://www.w3.org/2000/svg">
<path fill-rule="evenodd" clip-rule="evenodd" d="M9.59255 2.13375C10.4708 1.90605 11.3416 1.75 12 1.75C12.6584 1.75 13.5292 1.90605 14.4075 2.13375C15.3084 2.36733 16.3059 2.69973 17.2424 3.10107C18.1678 3.49766 19.0912 3.98599 19.8058 4.55015C20.4533 5.06134 21.25 5.88655 21.25 7C21.25 11.8403 19.3646 15.6054 17.3561 18.1495C16.3532 19.4199 15.3097 20.3992 14.4312 21.071C13.9933 21.4059 13.5815 21.6757 13.2226 21.8686C13.0439 21.9647 12.8617 22.0507 12.6838 22.1157C12.5299 22.1719 12.281 22.25 12 22.25C11.719 22.25 11.4701 22.1719 11.3162 22.1157C11.1384 22.0507 10.9561 21.9647 10.7774 21.8686C10.4185 21.6758 10.0068 21.406 9.56881 21.0711C8.69035 20.3993 7.64683 19.4199 6.6439 18.1496C4.63544 15.6055 2.75 11.8404 2.75 7C2.75 5.88655 3.54669 5.06134 4.19419 4.55015C4.90879 3.98599 5.83222 3.49766 6.7576 3.10107C7.69406 2.69973 8.6916 2.36733 9.59255 2.13375ZM5.25003 7.03333C5.25863 11.1769 6.86921 14.4004 8.6061 16.6004C9.47817 17.7051 10.3721 18.5382 11.0874 19.0852C11.4464 19.3596 11.7456 19.5508 11.9609 19.6665C11.9745 19.6738 11.9875 19.6807 12 19.6872C12.0124 19.6807 12.0255 19.6738 12.0391 19.6665C12.2544 19.5508 12.5536 19.3596 12.9125 19.0852C13.6278 18.5381 14.5218 17.705 15.3939 16.6004C17.1308 14.4003 18.7414 11.1768 18.75 7.03333C18.7418 7.02334 18.6767 6.84392 18.2567 6.51235C17.7838 6.13901 17.0822 5.75234 16.2576 5.39893C15.4441 5.05027 14.5666 4.75767 13.78 4.55375C12.9708 4.34395 12.3416 4.25 12 4.25C11.6584 4.25 11.0292 4.34395 10.22 4.55375C9.4334 4.75767 8.55594 5.05027 7.7424 5.39893C6.91778 5.75234 6.21621 6.13901 5.74331 6.51235C5.32332 6.84392 5.25822 7.02334 5.25003 7.03333ZM11.8059 19.774C11.806 19.7738 11.8101 19.7724 11.8177 19.7704C11.8096 19.7732 11.8058 19.7742 11.8059 19.774ZM12.1823 19.7704C12.19 19.7724 12.194 19.7738 12.1941 19.774C12.1941 19.7742 12.1903 19.7732 12.1823 19.7704Z" fill="black"/>
</svg>
