<svg width="24" height="24" viewBox="0 0 24 24" fill="none" xmlns="http://www.w3.org/2000/svg">
<path fill-rule="evenodd" clip-rule="evenodd" d="M12 4.25C7.71979 4.25 4.25 7.71979 4.25 12C4.25 16.2802 7.71979 19.75 12 19.75C16.2802 19.75 19.75 16.2802 19.75 12C19.75 7.71979 16.2802 4.25 12 4.25ZM1.75 12C1.75 6.33908 6.33908 1.75 12 1.75C17.6609 1.75 22.25 6.33908 22.25 12C22.25 17.6609 17.6609 22.25 12 22.25C6.33908 22.25 1.75 17.6609 1.75 12ZM10.5298 10.5298C9.71784 11.3418 9.71784 12.6582 10.5298 13.4702C11.3418 14.2822 12.6582 14.2822 13.4702 13.4702C13.9584 12.982 14.7498 12.982 15.238 13.4702C15.7261 13.9583 15.7261 14.7498 15.238 15.238C13.4497 17.0262 10.5503 17.0262 8.76204 15.238C6.97376 13.4497 6.97376 10.5503 8.76204 8.76203C10.5503 6.97375 13.4497 6.97375 15.238 8.76203C15.7261 9.25019 15.7261 10.0416 15.238 10.5298C14.7498 11.018 13.9584 11.018 13.4702 10.5298C12.6582 9.71783 11.3418 9.71783 10.5298 10.5298Z" fill="black"/>
</svg>
