<svg width="24" height="24" viewBox="0 0 24 24" fill="none" xmlns="http://www.w3.org/2000/svg">
<path fill-rule="evenodd" clip-rule="evenodd" d="M12 19.75C16.2802 19.75 19.75 16.2802 19.75 12C19.75 7.71979 16.2802 4.25 12 4.25C7.71979 4.25 4.25 7.71979 4.25 12C4.25 16.2802 7.71979 19.75 12 19.75ZM22.25 12C22.25 17.6609 17.6609 22.25 12 22.25C6.33908 22.25 1.75 17.6609 1.75 12C1.75 6.33908 6.33908 1.75 12 1.75C17.6609 1.75 22.25 6.33908 22.25 12ZM10.7496 15.6732C10.7496 14.9827 11.3094 14.4229 12 14.4229C12.6906 14.4229 13.2504 14.9827 13.2504 15.6732C13.2504 16.3638 12.6906 16.9236 12 16.9236C11.3094 16.9236 10.7496 16.3638 10.7496 15.6732ZM10.75 11.9229C10.75 12.6132 11.3096 13.1729 12 13.1729C12.6904 13.1729 13.25 12.6132 13.25 11.9229L13.25 8.27639C13.25 7.58603 12.6904 7.02639 12 7.02639C11.3096 7.02639 10.75 7.58603 10.75 8.27639L10.75 11.9229Z" fill="black"/>
</svg>
