<svg width="24" height="24" viewBox="0 0 24 24" fill="none" xmlns="http://www.w3.org/2000/svg">
<path fill-rule="evenodd" clip-rule="evenodd" d="M12 22.25C11.3096 22.25 10.75 21.6904 10.75 21L10.75 10.0178L6.88388 13.8839C6.39573 14.372 5.60427 14.372 5.11612 13.8839C4.62796 13.3957 4.62796 12.6043 5.11612 12.1161L11.1161 6.11612C11.6043 5.62796 12.3957 5.62796 12.8839 6.11612L18.8839 12.1161C19.372 12.6043 19.372 13.3957 18.8839 13.8839C18.3957 14.372 17.6043 14.372 17.1161 13.8839L13.25 10.0178L13.25 21C13.25 21.6904 12.6904 22.25 12 22.25ZM22.25 3C22.25 3.69036 21.6904 4.25 21 4.25L3 4.25C2.30964 4.25 1.75 3.69035 1.75 3C1.75 2.30964 2.30964 1.75 3 1.75L21 1.75C21.6904 1.75 22.25 2.30964 22.25 3Z" fill="black"/>
</svg>
