<svg width="24" height="24" viewBox="0 0 24 24" fill="none" xmlns="http://www.w3.org/2000/svg">
<path fill-rule="evenodd" clip-rule="evenodd" d="M12 2C6.47715 2 2 6.47715 2 12C2 17.5228 6.47715 22 12 22C17.5228 22 22 17.5228 22 12C22 6.47715 17.5228 2 12 2ZM8.95898 14.6582C9.35742 15.4902 10.3477 16.1875 11.959 16.1875C13.9219 16.1875 15.252 15.168 15.252 13.6328C15.252 12.4668 14.4375 11.7285 13.1777 11.6113V11.5762C14.1738 11.3711 14.9414 10.668 14.9414 9.5957C14.9414 8.24219 13.7344 7.35742 11.9473 7.35742C10.4531 7.35742 9.49219 8.04883 9.11719 8.875C9.0293 9.07422 8.98828 9.24414 8.98828 9.44336C8.98828 9.87109 9.24023 10.1582 9.73242 10.1582C10.1309 10.1582 10.3359 10.0117 10.5293 9.61328C10.8047 9.01562 11.2383 8.7168 11.9531 8.7168C12.8086 8.7168 13.2656 9.16797 13.2656 9.84766C13.2656 10.5391 12.6914 11.0195 11.8066 11.0195H11.4609C11.0332 11.0195 10.7871 11.2773 10.7871 11.6465C10.7871 12.0273 11.0332 12.2793 11.4609 12.2793H11.8301C12.8555 12.2793 13.459 12.7363 13.4531 13.5566C13.4531 14.2598 12.8555 14.7637 11.9883 14.7637C11.1094 14.7637 10.6523 14.4121 10.3535 13.8203C10.1777 13.498 9.95508 13.3574 9.60352 13.3574C9.11719 13.3574 8.82422 13.6445 8.82422 14.1016C8.82422 14.2773 8.86523 14.4648 8.95898 14.6582Z" fill="black"/>
</svg>
