<svg width="64" height="64" viewBox="0 0 64 64" fill="none" xmlns="http://www.w3.org/2000/svg">
<rect width="64" height="64" fill="white" fill-opacity="0.02"/>
<path fill-rule="evenodd" clip-rule="evenodd" d="M62 32C62 48.5685 48.5685 62 32 62C15.4315 62 2 48.5685 2 32C2 15.4315 15.4315 2 32 2C48.5685 2 62 15.4315 62 32ZM29 21C29 19.3431 30.3431 18 32 18C33.6569 18 35 19.3431 35 21V35C35 36.6569 33.6569 38 32 38C30.3431 38 29 36.6569 29 35V21ZM32 40C30.3431 40 29 41.3431 29 43C29 44.6569 30.3431 46 32 46C33.6569 46 35 44.6569 35 43C35 41.3431 33.6569 40 32 40Z" fill="black"/>
</svg>
