<svg width="40" height="40" viewBox="0 0 40 40" fill="none" xmlns="http://www.w3.org/2000/svg">
<g clip-path="url(#clip0_8788_10422)">
<path fill-rule="evenodd" clip-rule="evenodd" d="M20.5 40C24.4 40 39 29.9994 39 10C39 6.66667 24.9 0 21 0C17.1 0 0 6.66667 0 10C0 30 16.6 40 20.5 40Z" fill="#1C8CC9"/>
<path fill-rule="evenodd" clip-rule="evenodd" d="M21 40C24.7 40 39.5 29.9994 39.5 10C39.5 6.66667 24.7 0 21 0C17.3 0 2.5 6.66667 2.5 10C2.5 30 17.3 40 21 40Z" fill="url(#paint0_linear_8788_10422)"/>
<mask id="mask0_8788_10422" style="mask-type:alpha" maskUnits="userSpaceOnUse" x="20" y="-7" width="25" height="54">
<rect x="20.5" y="-7" width="24" height="54" fill="#D9D9D9"/>
</mask>
<g mask="url(#mask0_8788_10422)">
<path fill-rule="evenodd" clip-rule="evenodd" d="M21 40C24.7 40 39.5 29.9994 39.5 10C39.5 6.66667 24.7 0 21 0C17.3 0 2.5 6.66667 2.5 10C2.5 30 17.3 40 21 40Z" fill="url(#paint1_linear_8788_10422)" fill-opacity="0.3"/>
</g>
<mask id="mask1_8788_10422" style="mask-type:alpha" maskUnits="userSpaceOnUse" x="2" y="0" width="38" height="40">
<path d="M38.5 10C38.5 19.7374 34.9013 27.0163 30.869 31.86C28.8497 34.2856 26.7267 36.0939 24.9035 37.2885C23.9915 37.8861 23.1658 38.3226 22.4764 38.6066C21.7672 38.8987 21.2722 39 21 39C20.7278 39 20.2328 38.8987 19.5236 38.6066C18.8342 38.3227 18.0085 37.8861 17.0965 37.2886C15.2733 36.094 13.1503 34.2857 11.131 31.8602C7.09874 27.0166 3.5 19.7377 3.5 10C3.5 9.93294 3.5526 9.69015 3.91579 9.24814C4.25822 8.8314 4.78289 8.35147 5.47376 7.82866C6.85097 6.78644 8.75678 5.67192 10.8101 4.64425C12.8576 3.61944 15.0168 2.69845 16.8829 2.03616C18.7967 1.35696 20.267 1 21 1C21.733 1 23.2033 1.35696 25.1171 2.03616C26.9832 2.69845 29.1424 3.61944 31.1899 4.64425C33.2432 5.67192 35.149 6.78644 36.5262 7.82866C37.2171 8.35147 37.7418 8.8314 38.0842 9.24814C38.4474 9.69015 38.5 9.93294 38.5 10Z" fill="#4BBFFF" stroke="#87D4FF" stroke-width="2"/>
</mask>
<g mask="url(#mask1_8788_10422)">
<path d="M27.1836 18.6755C27.1836 22.3623 24.1912 25.351 20.5 25.351C16.8088 25.351 13.8164 22.3623 13.8164 18.6755C13.8164 14.9887 16.8088 12 20.5 12C24.1912 12 27.1836 14.9887 27.1836 18.6755Z" fill="#DDF3FF" fill-opacity="0.92"/>
<path d="M20.5 25.351C16.4445 25.351 11.8535 28.9303 9.5 33L8 36L12 42L28 42.5L31.5 33C29.1465 28.9303 24.5555 25.351 20.5 25.351Z" fill="#DDF3FF" fill-opacity="0.92"/>
</g>
<path d="M39.625 10C39.625 19.9667 35.9128 27.4389 31.7386 32.4195C29.651 34.9102 27.4486 36.777 25.5385 38.0202C24.5833 38.6418 23.7027 39.1066 22.9474 39.4155C22.1897 39.7255 21.567 39.875 21.125 39.875C20.683 39.875 20.0603 39.7255 19.3026 39.4156C18.5473 39.1066 17.6667 38.6418 16.7115 38.0202C14.8014 36.7771 12.599 34.9104 10.5114 32.4197C6.33716 27.4392 2.625 19.967 2.625 10C2.625 9.62732 2.8352 9.18692 3.24383 8.69296C3.6498 8.2022 4.23786 7.67506 4.96144 7.13117C6.408 6.04382 8.37944 4.90187 10.4713 3.86193C12.5624 2.82235 14.7694 1.88689 16.6849 1.21164C18.6063 0.5343 20.2176 0.125 21.125 0.125C22.0324 0.125 23.6437 0.5343 25.5651 1.21164C27.4806 1.88689 29.6876 2.82235 31.7787 3.86193C33.8706 4.90187 35.842 6.04382 37.2886 7.13117C38.0121 7.67506 38.6002 8.2022 39.0062 8.69296C39.4148 9.18692 39.625 9.62732 39.625 10Z" stroke="url(#paint2_linear_8788_10422)" stroke-opacity="0.5" stroke-width="0.25"/>
</g>
<defs>
<linearGradient id="paint0_linear_8788_10422" x1="16" y1="2.16216" x2="21.824" y2="39.8727" gradientUnits="userSpaceOnUse">
<stop stop-color="#42BCFF"/>
<stop offset="1" stop-color="#6ACAFF"/>
</linearGradient>
<linearGradient id="paint1_linear_8788_10422" x1="16" y1="2.16216" x2="21.824" y2="39.8727" gradientUnits="userSpaceOnUse">
<stop stop-color="#82D2FF"/>
<stop offset="1" stop-color="#87D4FF"/>
</linearGradient>
<linearGradient id="paint2_linear_8788_10422" x1="21.125" y1="0" x2="21.125" y2="40" gradientUnits="userSpaceOnUse">
<stop/>
<stop offset="1"/>
</linearGradient>
<clipPath id="clip0_8788_10422">
<rect width="40" height="40" fill="white"/>
</clipPath>
</defs>
</svg>
