<svg width="24" height="24" viewBox="0 0 24 24" fill="none" xmlns="http://www.w3.org/2000/svg">
<path d="M0 12C0 8.27247 0 6.4087 0.608964 4.93853C1.42092 2.97831 2.97831 1.42092 4.93853 0.608964C6.4087 0 8.27247 0 12 0C15.7275 0 17.5913 0 19.0615 0.608964C21.0217 1.42092 22.5791 2.97831 23.391 4.93853C24 6.4087 24 8.27247 24 12C24 15.7275 24 17.5913 23.391 19.0615C22.5791 21.0217 21.0217 22.5791 19.0615 23.391C17.5913 24 15.7275 24 12 24C8.27247 24 6.4087 24 4.93853 23.391C2.97831 22.5791 1.42092 21.0217 0.608964 19.0615C0 17.5913 0 15.7275 0 12Z" fill="white" fill-opacity="0.02"/>
<path d="M1 12C1 10.1226 1.00054 8.76455 1.0738 7.69083C1.14645 6.62609 1.28724 5.91414 1.53284 5.32122C2.2433 3.60602 3.60602 2.2433 5.32122 1.53284C5.91414 1.28724 6.62609 1.14645 7.69083 1.0738C8.76455 1.00054 10.1226 1 12 1C13.8774 1 15.2355 1.00054 16.3092 1.0738C17.3739 1.14645 18.0859 1.28724 18.6788 1.53284C20.394 2.2433 21.7567 3.60602 22.4672 5.32122C22.7128 5.91414 22.8536 6.62609 22.9262 7.69083C22.9995 8.76455 23 10.1226 23 12C23 13.8774 22.9995 15.2355 22.9262 16.3092C22.8536 17.3739 22.7128 18.0859 22.4672 18.6788C21.7567 20.394 20.394 21.7567 18.6788 22.4672C18.0859 22.7128 17.3739 22.8536 16.3092 22.9262C15.2355 22.9995 13.8774 23 12 23C10.1226 23 8.76455 22.9995 7.69083 22.9262C6.62609 22.8536 5.91414 22.7128 5.32122 22.4672C3.60602 21.7567 2.2433 20.394 1.53284 18.6788C1.28724 18.0859 1.14645 17.3739 1.0738 16.3092C1.00054 15.2355 1 13.8774 1 12Z" stroke="black" stroke-opacity="0.2" stroke-width="2"/>
</svg>
