<svg width="24" height="24" viewBox="0 0 24 24" fill="none" xmlns="http://www.w3.org/2000/svg">
<path fill-rule="evenodd" clip-rule="evenodd" d="M12.9613 18.1463C12.9613 18.6986 12.5136 19.1463 11.9613 19.1463H11.9457C11.3934 19.1463 10.9457 18.6986 10.9457 18.1463C10.9457 17.594 11.3934 17.1463 11.9457 17.1463H11.9613C12.5136 17.1463 12.9613 17.594 12.9613 18.1463ZM10.9564 13.5592C10.7744 13.0385 11.0484 12.4689 11.5685 12.286C11.5691 12.2857 11.5698 12.2855 11.5704 12.2853L11.8915 13.2039C11.5704 12.2853 11.5702 12.2854 11.5699 12.2855L11.5695 12.2856L11.5711 12.285L11.5905 12.2779C11.6095 12.2708 11.64 12.2592 11.6804 12.243C11.7615 12.2107 11.8814 12.1604 12.0271 12.0926C12.3211 11.9555 12.7062 11.7529 13.0846 11.4884C13.8914 10.9244 14.4146 10.2639 14.4146 9.54422L14.4146 9.54279C14.4155 8.89588 14.1977 8.27572 13.8091 7.79156C13.4212 7.3084 12.8909 6.99406 12.3175 6.89092C11.7448 6.78792 11.153 6.89964 10.6445 7.21304C10.1346 7.52724 9.73687 8.02747 9.53343 8.63391C9.35778 9.15752 8.79091 9.43959 8.26731 9.26394C7.7437 9.08829 7.46163 8.52142 7.63728 7.99782C7.98464 6.96237 8.67404 6.07809 9.59518 5.5104C10.5176 4.94191 11.6083 4.73127 12.6715 4.92251C13.7341 5.11363 14.6876 5.69116 15.3687 6.53954C16.0488 7.38673 16.416 8.45158 16.4146 9.54494C16.4143 11.2816 15.1806 12.4634 14.2305 13.1276C13.7303 13.4773 13.2368 13.7353 12.8719 13.9053C12.6881 13.991 12.5335 14.0559 12.4224 14.1003C12.3667 14.1226 12.3218 14.1397 12.2892 14.1519L12.2499 14.1663L12.2376 14.1707L12.2333 14.1722L12.2317 14.1728L12.231 14.173C12.2307 14.1732 12.2304 14.1733 11.9004 13.2293L12.2304 14.1733C11.709 14.3555 11.1387 14.0806 10.9564 13.5592ZM16.4146 9.54494C16.4146 9.54517 16.4146 9.5454 16.4146 9.54564L15.4146 9.54422L16.4146 9.54422C16.4146 9.54446 16.4146 9.5447 16.4146 9.54494Z" fill="black"/>
</svg>
