<svg width="24" height="24" viewBox="0 0 24 24" fill="none" xmlns="http://www.w3.org/2000/svg">
<path fill-rule="evenodd" clip-rule="evenodd" d="M1.75 13L1.75 13.0852C1.74995 14.4267 1.7499 15.5578 1.87098 16.4584C1.99945 17.4139 2.2845 18.2949 2.9948 19.0052C3.7051 19.7155 4.58608 20.0006 5.54163 20.129C6.44222 20.2501 7.5733 20.2501 8.91481 20.25H8.91484L9 20.25H15L15.0852 20.25H15.0852C16.4267 20.2501 17.5578 20.2501 18.4584 20.129C19.4139 20.0006 20.2949 19.7155 21.0052 19.0052C21.7155 18.2949 22.0005 17.4139 22.129 16.4584C22.2501 15.5578 22.2501 14.4267 22.25 13.0853V13.0852L22.25 13V11L22.25 10.9148V10.9147C22.2501 9.57326 22.2501 8.44221 22.129 7.54163C22.0005 6.58608 21.7155 5.7051 21.0052 4.9948C20.2949 4.2845 19.4139 3.99946 18.4584 3.87098C17.5578 3.7499 16.4267 3.74995 15.0852 3.75L15 3.75L9 3.75L8.91483 3.75C7.57331 3.74995 6.44222 3.7499 5.54163 3.87098C4.58607 3.99946 3.7051 4.2845 2.9948 4.9948C2.2845 5.7051 1.99945 6.58608 1.87098 7.54163C1.7499 8.44223 1.74995 9.57331 1.75 10.9148L1.75 11L1.75 13ZM4.76257 17.2374C4.59419 17.0691 4.43989 16.8036 4.34869 16.1253C4.25266 15.411 4.25 14.4496 4.25 13V11C4.25 9.55045 4.25266 8.58904 4.34869 7.87475C4.43989 7.19642 4.59419 6.93095 4.76257 6.76257C4.93094 6.59419 5.19642 6.43989 5.87475 6.34869C6.58904 6.25266 7.55045 6.25 9 6.25L15 6.25C16.4496 6.25 17.411 6.25266 18.1253 6.34869C18.8036 6.43989 19.0691 6.59419 19.2374 6.76257C19.4058 6.93094 19.5601 7.19642 19.6513 7.87475C19.7473 8.58904 19.75 9.55045 19.75 11V13C19.75 14.4496 19.7473 15.411 19.6513 16.1253C19.5601 16.8036 19.4058 17.0691 19.2374 17.2374C19.0691 17.4058 18.8036 17.5601 18.1253 17.6513C17.411 17.7473 16.4496 17.75 15 17.75L9 17.75C7.55045 17.75 6.58904 17.7473 5.87475 17.6513C5.19642 17.5601 4.93094 17.4058 4.76257 17.2374ZM7.5 13C6.67157 13 6 13.6716 6 14.5C6 15.3284 6.67157 16 7.5 16H9.5C10.3284 16 11 15.3284 11 14.5C11 13.6716 10.3284 13 9.5 13H7.5Z" fill="black"/>
</svg>
