<svg width="58" height="58" viewBox="0 0 58 58" fill="none" xmlns="http://www.w3.org/2000/svg">
<path d="M31.579 25.9822H26.42L27.4303 21.4088H31.7981C33.5839 21.4088 34.6169 22.2228 34.6169 23.5704C34.6169 25.1672 33.3648 25.9822 31.579 25.9822ZM29.731 35.2859H24.3643L25.5479 29.9296H29.9189C32.0805 29.9296 33.396 30.837 33.396 32.466C33.396 34.1262 32.0494 35.2859 29.731 35.2859ZM39.6607 22.7876C39.6607 19.8089 37.3942 17.8757 34.2785 17.3171L34.8204 14.7392C34.9357 14.1858 34.5141 13.6667 33.9493 13.6667H30.6664C30.2459 13.6667 29.8836 13.9594 29.7964 14.3706L29.2046 17.1489H23.813C23.5005 17.1489 23.2295 17.3659 23.1621 17.6711L18.516 38.7038C18.4246 39.1201 18.7402 39.5146 19.1669 39.5146H24.2387L23.731 41.8994C23.6147 42.4507 24.0321 42.9709 24.5948 42.9751L27.8829 43C28.3065 43.0031 28.6741 42.7072 28.7613 42.2919L29.3437 39.5146H29.8556C35.1184 39.5146 38.4698 36.6325 38.4698 32.9052C38.4698 30.7124 37.28 28.9267 35.4319 28.0182C37.7503 27.361 39.6607 25.5119 39.6607 22.7876Z" fill="white"/>
</svg>
