<svg width="24" height="24" viewBox="0 0 24 24" fill="none" xmlns="http://www.w3.org/2000/svg">
<path fill-rule="evenodd" clip-rule="evenodd" d="M11.5 4.25C13.6414 4.25 15.578 5.11686 16.982 6.52182C17.6156 7.15583 18.3251 7.98445 18.9472 8.75H15.5C14.8096 8.75 14.25 9.30964 14.25 10C14.25 10.6904 14.8096 11.25 15.5 11.25H21.5C22.1904 11.25 22.75 10.6904 22.75 10V4C22.75 3.30964 22.1904 2.75 21.5 2.75C20.8096 2.75 20.25 3.30964 20.25 4V6.40464C19.7631 5.83012 19.2441 5.24871 18.7504 4.75466C16.8966 2.89968 14.3314 1.75 11.5 1.75C5.83908 1.75 1.25 6.33908 1.25 12C1.25 17.6609 5.83908 22.25 11.5 22.25C16.1748 22.25 20.1156 19.1215 21.3492 14.8466C21.5406 14.1833 21.1581 13.4904 20.4948 13.299C19.8315 13.1076 19.1386 13.4901 18.9472 14.1534C18.0141 17.387 15.0314 19.75 11.5 19.75C7.21979 19.75 3.75 16.2802 3.75 12C3.75 7.71979 7.21979 4.25 11.5 4.25Z" fill="black"/>
</svg>
