<svg width="24" height="24" viewBox="0 0 24 24" fill="none" xmlns="http://www.w3.org/2000/svg">
<path fill-rule="evenodd" clip-rule="evenodd" d="M12 2C6.47715 2 2 6.47715 2 12C2 17.5228 6.47715 22 12 22C17.5228 22 22 17.5228 22 12C22 6.47715 17.5228 2 12 2ZM8.96484 15.2441C8.96484 15.6895 9.24023 16 9.79688 16H14.4785C14.9355 16 15.2109 15.7129 15.2109 15.2969C15.2109 14.8691 14.9355 14.5938 14.4785 14.5938H11.291V14.5586L13.1191 12.8008C14.502 11.4941 15.0059 10.8496 15.0059 9.81836C15.0059 8.36523 13.7988 7.35742 12.0059 7.35742C10.4062 7.35742 9.3457 8.23047 9.05859 9.16797C9.01758 9.29102 8.99414 9.41406 8.99414 9.54883C8.99414 9.98828 9.27539 10.2695 9.75 10.2695C10.1309 10.2695 10.3359 10.1055 10.5352 9.75391C10.8398 9.07422 11.3086 8.73438 11.9883 8.73438C12.7441 8.73438 13.2832 9.23242 13.2832 9.92969C13.2832 10.5391 13.0137 10.9492 11.9707 11.9512L9.45117 14.3594C9.09375 14.6875 8.96484 14.9102 8.96484 15.2441Z" fill="black"/>
</svg>
