<svg width="24" height="24" viewBox="0 0 24 24" fill="none" xmlns="http://www.w3.org/2000/svg">
<g clip-path="url(#clip0_2633_1036)">
<path d="M18.3545 18.7734H6.1377C2.95605 18.7734 0.486328 16.4355 0.486328 13.6143C0.486328 11.3379 1.74316 9.47461 3.79102 9.05273C3.94043 6.54785 6.26074 4.86035 8.59863 5.39648C9.78516 3.71777 11.6221 2.61035 13.8984 2.61035C17.7217 2.61035 20.6572 5.53711 20.666 9.59766C22.4502 10.3359 23.5137 12.085 23.5137 13.9922C23.5137 16.6553 21.2285 18.7734 18.3545 18.7734ZM18.3545 16.5059C19.9541 16.5059 21.2021 15.3896 21.2021 13.9922C21.2021 12.5068 20.1826 11.4434 18.5918 11.2061C18.46 11.1885 18.4072 11.1182 18.4248 10.9863C18.4775 10.5381 18.5215 9.9668 18.4951 9.39551C18.3633 6.92578 16.4648 4.87793 13.8721 4.87793C11.8242 4.87793 10.5938 5.95898 9.69727 7.49707C9.63574 7.60254 9.55664 7.62891 9.44238 7.59375C7.4209 6.99609 5.6543 8.00684 5.80371 10.4941C5.8125 10.6348 5.75098 10.7051 5.61035 10.7051C3.92285 10.7051 2.80664 11.874 2.80664 13.6143C2.80664 15.1787 4.23926 16.5059 6.14648 16.5059H18.3545ZM12.0088 12.3574C11.4727 12.3574 11.1738 12.0674 11.1387 11.5225L11.0156 8.94727C10.9893 8.3584 11.3936 7.96289 12 7.96289C12.5977 7.96289 13.0195 8.36719 12.9932 8.94727L12.8613 11.5225C12.8262 12.0762 12.5361 12.3574 12.0088 12.3574ZM12.0088 15.1787C11.3496 15.1787 10.9102 14.7744 10.9102 14.1943C10.9102 13.6143 11.3496 13.21 12.0088 13.21C12.6416 13.21 13.0898 13.6143 13.0898 14.1943C13.0898 14.7744 12.6504 15.1787 12.0088 15.1787Z" fill="#111111"/>
</g>
<defs>
<clipPath id="clip0_2633_1036">
<rect width="24" height="24" fill="white"/>
</clipPath>
</defs>
</svg>
