<svg width="24" height="24" viewBox="0 0 24 24" fill="none" xmlns="http://www.w3.org/2000/svg">
<path fill-rule="evenodd" clip-rule="evenodd" d="M12 22C17.5228 22 22 17.5228 22 12C22 6.47715 17.5228 2 12 2C6.47715 2 2 6.47715 2 12C2 17.5228 6.47715 22 12 22ZM8.88388 7.11612C8.39573 6.62796 7.60427 6.62796 7.11612 7.11612C6.62796 7.60427 6.62796 8.39573 7.11612 8.88388L10.2322 12L7.11612 15.1161C6.62796 15.6043 6.62796 16.3957 7.11612 16.8839C7.60427 17.372 8.39573 17.372 8.88388 16.8839L12 13.7678L15.1161 16.8839C15.6043 17.372 16.3957 17.372 16.8839 16.8839C17.372 16.3957 17.372 15.6043 16.8839 15.1161L13.7678 12L16.8839 8.88388C17.372 8.39573 17.372 7.60427 16.8839 7.11612C16.3957 6.62796 15.6043 6.62796 15.1161 7.11612L12 10.2322L8.88388 7.11612Z" fill="black"/>
</svg>
