<svg width="24" height="24" viewBox="0 0 24 24" fill="none" xmlns="http://www.w3.org/2000/svg">
<path fill-rule="evenodd" clip-rule="evenodd" d="M11 3C12.1046 3 13 3.89543 13 5V9.7375C13 10.734 13.0027 11.3238 13.0499 11.7627C13.0906 12.1419 13.1499 12.2305 13.1625 12.2493C13.1629 12.2499 13.1632 12.2504 13.1635 12.2509C13.1638 12.2513 13.1642 12.2518 13.1645 12.2524C13.1768 12.2715 13.2343 12.3612 13.5656 12.55C13.9492 12.7686 14.4889 13.0066 15.4024 13.4046L18.2988 14.6664C19.3115 15.1076 19.7747 16.2862 19.3336 17.2988C18.8924 18.3114 17.7139 18.7747 16.7012 18.3336L13.8048 17.0717C13.7771 17.0597 13.7495 17.0476 13.722 17.0356C12.919 16.6859 12.1781 16.3632 11.5852 16.0253C10.93 15.652 10.2982 15.1765 9.81761 14.4428C9.33698 13.7092 9.15341 12.9401 9.07279 12.1903C8.99984 11.5118 8.99992 10.7036 9.00001 9.82782C9.00001 9.7978 9.00001 9.76769 9.00001 9.7375V5C9.00001 3.89543 9.89544 3 11 3Z" fill="#0C9ADA"/>
</svg>
