<svg width="212" height="37" viewBox="0 0 212 37" fill="none" xmlns="http://www.w3.org/2000/svg">
<path d="M18 2.64929V34.6493M2 18.6493H34M29.3137 7.33559L18 18.6493M18 18.6493L6.68629 29.963M18 18.6493L6.68629 7.33559M18 18.6493L29.3137 29.963" stroke="#C6C6C6" stroke-width="3.91558" stroke-miterlimit="10" stroke-linecap="round" stroke-linejoin="round"/>
<path d="M62 2.64929V34.6493M46 18.6493H78M73.3137 7.33559L62 18.6493M62 18.6493L50.6863 29.963M62 18.6493L50.6863 7.33559M62 18.6493L73.3137 29.963" stroke="#C6C6C6" stroke-width="3.91558" stroke-miterlimit="10" stroke-linecap="round" stroke-linejoin="round"/>
<path d="M106 2.64929V34.6493M90 18.6493H122M117.314 7.33559L106 18.6493M106 18.6493L94.6863 29.963M106 18.6493L94.6863 7.33559M106 18.6493L117.314 29.963" stroke="#C6C6C6" stroke-width="3.91558" stroke-miterlimit="10" stroke-linecap="round" stroke-linejoin="round"/>
<path d="M150 2.64929V34.6493M134 18.6493H166M161.314 7.33559L150 18.6493M150 18.6493L138.686 29.963M150 18.6493L138.686 7.33559M150 18.6493L161.314 29.963" stroke="#C6C6C6" stroke-width="3.91558" stroke-miterlimit="10" stroke-linecap="round" stroke-linejoin="round"/>
<path d="M194 2.64929V34.6493M178 18.6493H210M205.314 7.33559L194 18.6493M194 18.6493L182.686 29.963M194 18.6493L182.686 7.33559M194 18.6493L205.314 29.963" stroke="#C6C6C6" stroke-width="3.91558" stroke-miterlimit="10" stroke-linecap="round" stroke-linejoin="round"/>
</svg>
