<svg width="24" height="24" viewBox="0 0 24 24" fill="none" xmlns="http://www.w3.org/2000/svg">
<path fill-rule="evenodd" clip-rule="evenodd" d="M16.0394 3.81747C16.6925 3.59373 17.4033 3.94178 17.6271 4.59488C18.7391 7.84076 18.694 10.9688 18.3502 13.5407C18.2177 14.5311 18.0399 15.4458 17.8649 16.2545L19.8067 14.9599C20.3811 14.577 21.1572 14.7322 21.5401 15.3066C21.9231 15.881 21.7679 16.6571 21.1935 17.0401L16.6935 20.0401C16.1415 20.4081 15.3981 20.2807 15.0001 19.75L12.0001 15.75C11.5859 15.1977 11.6978 14.4142 12.2501 14C12.8024 13.5858 13.5859 13.6977 14.0001 14.25L15.3502 16.0501C15.5408 15.1943 15.7343 14.2411 15.8722 13.2093C16.1857 10.8645 16.2055 8.15925 15.262 5.40513C15.0383 4.75203 15.3863 4.04122 16.0394 3.81747ZM7.3067 3.95994C7.8587 3.59194 8.60203 3.71927 9.00008 4.25L12.0001 8.25C12.4143 8.80229 12.3024 9.58579 11.7501 10C11.1978 10.4142 10.4143 10.3023 10.0001 9.75L8.64999 7.94988C8.45937 8.80573 8.2659 9.75889 8.12794 10.7907C7.81442 13.1355 7.79462 15.8408 8.73816 18.5949C8.96191 19.248 8.61385 19.9588 7.96076 20.1825C7.30767 20.4063 6.59685 20.0582 6.37311 19.4051C5.26109 16.1592 5.30611 13.0312 5.65 10.4593C5.78243 9.4689 5.96022 8.5542 6.13525 7.74553L4.19346 9.04006C3.61904 9.42301 2.84296 9.26779 2.46002 8.69338C2.07708 8.11897 2.23229 7.34288 2.8067 6.95994L7.3067 3.95994Z" fill="black"/>
</svg>
