<svg width="24" height="24" viewBox="0 0 24 24" fill="none" xmlns="http://www.w3.org/2000/svg">
<path fill-rule="evenodd" clip-rule="evenodd" d="M6.5 1.75L6.44226 1.74999C5.78954 1.74995 5.20848 1.74992 4.73042 1.79855C4.21742 1.85073 3.68625 1.96908 3.1944 2.29772C2.83953 2.53484 2.53484 2.83953 2.29773 3.19439C1.96909 3.68624 1.85074 4.21741 1.79856 4.73042C1.74992 5.20848 1.74996 5.78953 1.75 6.44225L1.75 6.5L1.75 6.55775C1.74996 7.21046 1.74992 7.79152 1.79856 8.26958C1.85074 8.78259 1.96909 9.31376 2.29773 9.8056C2.53484 10.1605 2.83953 10.4652 3.1944 10.7023C3.68625 11.0309 4.21742 11.1493 4.73042 11.2014C5.20849 11.2501 5.78955 11.25 6.44227 11.25L6.5 11.25L6.55774 11.25C7.21046 11.25 7.79152 11.2501 8.26959 11.2014C8.78259 11.1493 9.31376 11.0309 9.80561 10.7023C10.1605 10.4652 10.4652 10.1605 10.7023 9.8056C11.0309 9.31376 11.1493 8.78259 11.2015 8.26958C11.2501 7.79151 11.25 7.21045 11.25 6.55773L11.25 6.5L11.25 6.44226C11.25 5.78954 11.2501 5.20848 11.2015 4.73042C11.1493 4.21741 11.0309 3.68624 10.7023 3.19439C10.4652 2.83953 10.1605 2.53484 9.80561 2.29772C9.31376 1.96908 8.78259 1.85073 8.26959 1.79855C7.79152 1.74992 7.21047 1.74995 6.55775 1.74999L6.5 1.75ZM4.58333 4.3764L4.58373 4.37612C4.59743 4.36695 4.67133 4.31746 4.98344 4.28571C5.31966 4.25151 5.77176 4.25 6.5 4.25C7.22825 4.25 7.68035 4.25151 8.01657 4.28571C8.32868 4.31746 8.40258 4.36695 8.41628 4.37612L8.41668 4.3764C8.49857 4.43111 8.56889 4.50143 8.62361 4.58332L8.62388 4.58373C8.63305 4.59742 8.68254 4.67132 8.71429 4.98343C8.74849 5.31965 8.75 5.77175 8.75 6.5C8.75 7.22824 8.74849 7.68034 8.71429 8.01657C8.68254 8.32867 8.63305 8.40257 8.62388 8.41627L8.62361 8.41667C8.56889 8.49857 8.49857 8.56888 8.41668 8.6236L8.41628 8.62387C8.40258 8.63305 8.32868 8.68253 8.01657 8.71428C7.68035 8.74849 7.22825 8.75 6.5 8.75C5.77176 8.75 5.31966 8.74849 4.98344 8.71428C4.67133 8.68253 4.59743 8.63305 4.58373 8.62387L4.58333 8.6236C4.50143 8.56888 4.43112 8.49857 4.3764 8.41667L4.37613 8.41627C4.36696 8.40257 4.31747 8.32868 4.28572 8.01657C4.25152 7.68034 4.25001 7.22824 4.25001 6.5C4.25001 5.77175 4.25152 5.31965 4.28572 4.98343C4.31747 4.67132 4.36696 4.59742 4.37613 4.58373L4.3764 4.58332C4.43112 4.50143 4.50143 4.43111 4.58333 4.3764ZM17.5 1.75L17.4423 1.74999C16.7895 1.74995 16.2085 1.74992 15.7304 1.79855C15.2174 1.85073 14.6862 1.96908 14.1944 2.29772C13.8395 2.53484 13.5348 2.83953 13.2977 3.19439C12.9691 3.68624 12.8507 4.21741 12.7986 4.73042C12.7499 5.20848 12.75 5.78954 12.75 6.44226L12.75 6.5L12.75 6.55773C12.75 7.21045 12.7499 7.79151 12.7986 8.26958C12.8507 8.78259 12.9691 9.31376 13.2977 9.8056C13.5348 10.1605 13.8395 10.4652 14.1944 10.7023C14.6862 11.0309 15.2174 11.1493 15.7304 11.2014C16.2085 11.2501 16.7895 11.25 17.4423 11.25L17.5 11.25L17.5577 11.25C18.2105 11.25 18.7915 11.2501 19.2696 11.2014C19.7826 11.1493 20.3138 11.0309 20.8056 10.7023C21.1605 10.4652 21.4652 10.1605 21.7023 9.8056C22.0309 9.31376 22.1493 8.78259 22.2015 8.26958C22.2501 7.79151 22.25 7.21045 22.25 6.55773L22.25 6.5L22.25 6.44227C22.25 5.78954 22.2501 5.20848 22.2015 4.73042C22.1493 4.21741 22.0309 3.68624 21.7023 3.19439C21.4652 2.83953 21.1605 2.53484 20.8056 2.29772C20.3138 1.96908 19.7826 1.85073 19.2696 1.79855C18.7915 1.74992 18.2105 1.74995 17.5578 1.74999L17.5 1.75ZM15.5833 4.3764L15.5837 4.37612C15.5974 4.36695 15.6713 4.31746 15.9834 4.28571C16.3197 4.25151 16.7718 4.25 17.5 4.25C18.2283 4.25 18.6803 4.25151 19.0166 4.28571C19.3287 4.31746 19.4026 4.36695 19.4163 4.37612L19.4167 4.3764C19.4986 4.43111 19.5689 4.50143 19.6236 4.58332L19.6239 4.58373C19.6331 4.59742 19.6825 4.67132 19.7143 4.98343C19.7485 5.31965 19.75 5.77175 19.75 6.5C19.75 7.22824 19.7485 7.68034 19.7143 8.01657C19.6825 8.32867 19.6331 8.40257 19.6239 8.41627L19.6236 8.41667C19.5689 8.49857 19.4986 8.56888 19.4167 8.6236L19.4163 8.62387C19.4026 8.63304 19.3287 8.68253 19.0166 8.71428C18.6803 8.74849 18.2283 8.75 17.5 8.75C16.7718 8.75 16.3197 8.74849 15.9834 8.71428C15.6713 8.68253 15.5974 8.63305 15.5837 8.62387L15.5833 8.6236C15.5014 8.56888 15.4311 8.49857 15.3764 8.41667L15.3761 8.41627C15.367 8.40257 15.3175 8.32867 15.2857 8.01657C15.2515 7.68034 15.25 7.22824 15.25 6.5C15.25 5.77175 15.2515 5.31965 15.2857 4.98343C15.3175 4.67132 15.367 4.59742 15.3761 4.58373L15.3764 4.58332C15.4311 4.50143 15.5014 4.43111 15.5833 4.3764ZM6.5 12.75L6.44227 12.75C5.78955 12.75 5.20849 12.7499 4.73042 12.7985C4.21742 12.8507 3.68625 12.9691 3.1944 13.2977C2.83953 13.5348 2.53484 13.8395 2.29773 14.1944C1.96909 14.6862 1.85074 15.2174 1.79856 15.7304C1.74992 16.2085 1.74996 16.7895 1.75 17.4422L1.75 17.5L1.75 17.5577C1.74996 18.2105 1.74992 18.7915 1.79856 19.2696C1.85074 19.7826 1.96909 20.3138 2.29773 20.8056C2.53484 21.1605 2.83953 21.4652 3.1944 21.7023C3.68625 22.0309 4.21742 22.1493 4.73042 22.2014C5.20849 22.2501 5.78955 22.25 6.44227 22.25L6.5 22.25L6.55774 22.25C7.21046 22.25 7.79152 22.2501 8.26959 22.2014C8.78259 22.1493 9.31376 22.0309 9.80561 21.7023C10.1605 21.4652 10.4652 21.1605 10.7023 20.8056C11.0309 20.3138 11.1493 19.7826 11.2015 19.2696C11.2501 18.7915 11.25 18.2105 11.25 17.5577L11.25 17.5L11.25 17.4423C11.25 16.7895 11.2501 16.2085 11.2015 15.7304C11.1493 15.2174 11.0309 14.6862 10.7023 14.1944C10.4652 13.8395 10.1605 13.5348 9.80561 13.2977C9.31376 12.9691 8.78259 12.8507 8.26959 12.7985C7.79152 12.7499 7.21046 12.75 6.55774 12.75L6.5 12.75ZM4.58333 15.3764L4.58373 15.3761C4.59743 15.367 4.67133 15.3175 4.98344 15.2857C5.31966 15.2515 5.77176 15.25 6.5 15.25C7.22825 15.25 7.68035 15.2515 8.01657 15.2857C8.32869 15.3175 8.40258 15.367 8.41628 15.3761L8.41668 15.3764C8.49858 15.4311 8.56889 15.5014 8.62361 15.5833L8.62388 15.5837C8.63305 15.5974 8.68254 15.6713 8.71429 15.9834C8.74849 16.3197 8.75 16.7718 8.75 17.5C8.75 18.2282 8.74849 18.6803 8.71429 19.0166C8.68254 19.3287 8.63305 19.4026 8.62388 19.4163L8.62361 19.4167C8.56889 19.4986 8.49858 19.5689 8.41668 19.6236L8.41628 19.6239C8.40258 19.633 8.32869 19.6825 8.01657 19.7143C7.68035 19.7485 7.22825 19.75 6.5 19.75C5.77176 19.75 5.31966 19.7485 4.98344 19.7143C4.67133 19.6825 4.59743 19.633 4.58373 19.6239L4.58333 19.6236C4.50143 19.5689 4.43112 19.4986 4.3764 19.4167L4.37613 19.4163C4.36696 19.4026 4.31747 19.3287 4.28572 19.0166C4.25152 18.6803 4.25001 18.2282 4.25001 17.5C4.25001 16.7718 4.25152 16.3197 4.28572 15.9834C4.31747 15.6713 4.36696 15.5974 4.37613 15.5837L4.3764 15.5833C4.43112 15.5014 4.50143 15.4311 4.58333 15.3764ZM13 15C13 14.535 13 14.3025 13.0511 14.1118C13.1898 13.5941 13.5941 13.1898 14.1118 13.0511C14.3025 13 14.535 13 15 13C15.465 13 15.6975 13 15.8882 13.0511C16.4059 13.1898 16.8102 13.5941 16.9489 14.1118C17 14.3025 17 14.535 17 15C17 15.465 17 15.6975 16.9489 15.8882C16.8102 16.4059 16.4059 16.8102 15.8882 16.9489C15.6975 17 15.465 17 15 17C14.535 17 14.3025 17 14.1118 16.9489C13.5941 16.8102 13.1898 16.4059 13.0511 15.8882C13 15.6975 13 15.465 13 15ZM13 20C13 19.535 13 19.3025 13.0511 19.1118C13.1898 18.5941 13.5941 18.1898 14.1118 18.0511C14.3025 18 14.535 18 15 18C15.465 18 15.6975 18 15.8882 18.0511C16.4059 18.1898 16.8102 18.5941 16.9489 19.1118C17 19.3025 17 19.535 17 20C17 20.465 17 20.6975 16.9489 20.8882C16.8102 21.4059 16.4059 21.8102 15.8882 21.9489C15.6975 22 15.465 22 15 22C14.535 22 14.3025 22 14.1118 21.9489C13.5941 21.8102 13.1898 21.4059 13.0511 20.8882C13 20.6975 13 20.465 13 20ZM18.0511 14.1118C18 14.3025 18 14.535 18 15C18 15.465 18 15.6975 18.0511 15.8882C18.1898 16.4059 18.5941 16.8102 19.1118 16.9489C19.3025 17 19.535 17 20 17C20.465 17 20.6975 17 20.8882 16.9489C21.4059 16.8102 21.8102 16.4059 21.9489 15.8882C22 15.6975 22 15.465 22 15C22 14.535 22 14.3025 21.9489 14.1118C21.8102 13.5941 21.4059 13.1898 20.8882 13.0511C20.6975 13 20.465 13 20 13C19.535 13 19.3025 13 19.1118 13.0511C18.5941 13.1898 18.1898 13.5941 18.0511 14.1118ZM18 20C18 19.535 18 19.3025 18.0511 19.1118C18.1898 18.5941 18.5941 18.1898 19.1118 18.0511C19.3025 18 19.535 18 20 18C20.465 18 20.6975 18 20.8882 18.0511C21.4059 18.1898 21.8102 18.5941 21.9489 19.1118C22 19.3025 22 19.535 22 20C22 20.465 22 20.6975 21.9489 20.8882C21.8102 21.4059 21.4059 21.8102 20.8882 21.9489C20.6975 22 20.465 22 20 22C19.535 22 19.3025 22 19.1118 21.9489C18.5941 21.8102 18.1898 21.4059 18.0511 20.8882C18 20.6975 18 20.465 18 20Z" fill="black"/>
</svg>
