<svg width="24" height="24" viewBox="0 0 24 24" fill="none" xmlns="http://www.w3.org/2000/svg">
<path fill-rule="evenodd" clip-rule="evenodd" d="M11.9148 1.75C11.9431 1.75 11.9715 1.75 12 1.75C12.0285 1.75 12.0569 1.75 12.0852 1.75C13.4267 1.74995 14.5578 1.7499 15.4584 1.87098C16.4139 1.99945 17.2949 2.2845 18.0052 2.9948C18.7155 3.7051 19.0005 4.58608 19.129 5.54163C19.2501 6.44222 19.2501 7.57331 19.25 8.91483L19.25 9V15L19.25 15.0852C19.2501 16.4267 19.2501 17.5578 19.129 18.4584C19.0005 19.4139 18.7155 20.2949 18.0052 21.0052C17.2949 21.7155 16.4139 22.0005 15.4584 22.129C14.5578 22.2501 13.4267 22.2501 12.0852 22.25L12 22.25L11.9148 22.25C10.5733 22.2501 9.44222 22.2501 8.54163 22.129C7.58608 22.0005 6.7051 21.7155 5.9948 21.0052C5.2845 20.2949 4.99945 19.4139 4.87098 18.4584C4.7499 17.5578 4.74995 16.4267 4.75 15.0852L4.75 15V9C4.75 8.97152 4.75 8.94313 4.75 8.91484C4.74995 7.57331 4.7499 6.44223 4.87098 5.54163C4.99945 4.58607 5.2845 3.7051 5.9948 2.9948C6.7051 2.2845 7.58608 1.99945 8.54163 1.87098C9.44223 1.7499 10.5733 1.74995 11.9148 1.75ZM8.87475 4.34869C8.19642 4.43989 7.93094 4.59419 7.76257 4.76257C7.59419 4.93094 7.43989 5.19642 7.34869 5.87475C7.25266 6.58904 7.25 7.55045 7.25 9V15C7.25 16.4496 7.25266 17.411 7.34869 18.1253C7.43989 18.8036 7.59419 19.0691 7.76257 19.2374C7.93094 19.4058 8.19642 19.5601 8.87475 19.6513C9.58904 19.7473 10.5505 19.75 12 19.75C13.4496 19.75 14.411 19.7473 15.1253 19.6513C15.8036 19.5601 16.0691 19.4058 16.2374 19.2374C16.4058 19.0691 16.5601 18.8036 16.6513 18.1253C16.7473 17.411 16.75 16.4496 16.75 15V9C16.75 7.55045 16.7473 6.58904 16.6513 5.87475C16.5601 5.19642 16.4058 4.93094 16.2374 4.76257C16.0691 4.59419 15.8036 4.43989 15.1253 4.34869C14.411 4.25266 13.4496 4.25 12 4.25C10.5505 4.25 9.58904 4.25266 8.87475 4.34869ZM9.75 6.5C9.75 5.80965 10.3096 5.25 11 5.25H13C13.6904 5.25 14.25 5.80965 14.25 6.5C14.25 7.19036 13.6904 7.75 13 7.75H11C10.3096 7.75 9.75 7.19036 9.75 6.5Z" fill="black"/>
</svg>
