<svg width="24" height="24" viewBox="0 0 24 24" fill="none" xmlns="http://www.w3.org/2000/svg">
<path fill-rule="evenodd" clip-rule="evenodd" d="M8.91484 1.75C8.94313 1.75 8.97152 1.75 9 1.75H12C12.6904 1.75 13.25 2.30965 13.25 3C13.25 3.69036 12.6904 4.25 12 4.25H9C7.55045 4.25 6.58904 4.25266 5.87475 4.34869C5.19642 4.43989 4.93094 4.59419 4.76257 4.76257C4.59419 4.93094 4.43989 5.19642 4.34869 5.87475C4.25266 6.58904 4.25 7.55045 4.25 9V15C4.25 16.4496 4.25266 17.411 4.34869 18.1253C4.43989 18.8036 4.59419 19.0691 4.76257 19.2374C4.93094 19.4058 5.19642 19.5601 5.87475 19.6513C6.58904 19.7473 7.55045 19.75 9 19.75H15C16.4496 19.75 17.411 19.7473 18.1253 19.6513C18.8036 19.5601 19.0691 19.4058 19.2374 19.2374C19.4058 19.0691 19.5601 18.8036 19.6513 18.1253C19.7473 17.411 19.75 16.4496 19.75 15V12C19.75 11.3096 20.3096 10.75 21 10.75C21.6904 10.75 22.25 11.3096 22.25 12V15L22.25 15.0852C22.2501 16.4267 22.2501 17.5578 22.129 18.4584C22.0005 19.4139 21.7155 20.2949 21.0052 21.0052C20.2949 21.7155 19.4139 22.0005 18.4584 22.129C17.5578 22.2501 16.4267 22.2501 15.0852 22.25L15 22.25H9L8.91483 22.25C7.57331 22.2501 6.44222 22.2501 5.54163 22.129C4.58607 22.0005 3.7051 21.7155 2.9948 21.0052C2.2845 20.2949 1.99945 19.4139 1.87098 18.4584C1.7499 17.5578 1.74995 16.4267 1.75 15.0852L1.75 15V9C1.75 8.97152 1.75 8.94313 1.75 8.91484C1.74995 7.57331 1.7499 6.44223 1.87098 5.54163C1.99945 4.58607 2.2845 3.7051 2.9948 2.9948C3.7051 2.2845 4.58608 1.99945 5.54163 1.87098C6.44223 1.7499 7.57331 1.74995 8.91484 1.75ZM18.5 4.25C17.8096 4.25 17.25 4.80965 17.25 5.5C17.25 6.19036 17.8096 6.75 18.5 6.75C19.1904 6.75 19.75 6.19036 19.75 5.5C19.75 4.80965 19.1904 4.25 18.5 4.25ZM14.75 5.5C14.75 3.42893 16.4289 1.75 18.5 1.75C20.5711 1.75 22.25 3.42893 22.25 5.5C22.25 7.57107 20.5711 9.25 18.5 9.25C16.4289 9.25 14.75 7.57107 14.75 5.5Z" fill="black"/>
</svg>
