<svg width="24" height="24" viewBox="0 0 24 24" fill="none" xmlns="http://www.w3.org/2000/svg">
<path fill-rule="evenodd" clip-rule="evenodd" d="M10.7149 0.550024C10.7432 0.550025 10.7716 0.550027 10.8001 0.550027H13.2001L13.2852 0.550024C14.6267 0.549971 15.7578 0.549926 16.6584 0.671008C17.614 0.799479 18.495 1.08452 19.2053 1.79482C19.9156 2.50512 20.2006 3.3861 20.3291 4.34165C20.4502 5.24225 20.4501 6.37333 20.4501 7.71485L20.4501 7.80003V16.2L20.4501 16.2852C20.4501 17.6267 20.4502 18.7578 20.3291 19.6584C20.2006 20.614 19.9156 21.4949 19.2053 22.2052C18.495 22.9155 17.614 23.2006 16.6584 23.329C15.7578 23.4501 14.6267 23.4501 13.2852 23.45L13.2001 23.45H10.8001L10.7149 23.45C9.37336 23.4501 8.24228 23.4501 7.34168 23.329C6.38613 23.2006 5.50515 22.9155 4.79485 22.2052C4.08455 21.4949 3.79951 20.614 3.67103 19.6584C3.54995 18.7578 3.55 17.6267 3.55005 16.2852L3.55005 16.2V7.80002C3.55005 7.77154 3.55005 7.74315 3.55005 7.71486C3.55 6.37333 3.54995 5.24225 3.67103 4.34165C3.79951 3.3861 4.08455 2.50512 4.79485 1.79482C5.50515 1.08452 6.38613 0.799479 7.34168 0.671008C8.24228 0.549926 9.37336 0.549971 10.7149 0.550024ZM7.6748 3.14872C6.99647 3.23991 6.731 3.39421 6.56262 3.56259C6.39424 3.73097 6.23994 3.99644 6.14874 4.67477C6.05271 5.38906 6.05005 6.35047 6.05005 7.80002V16.2C6.05005 17.6496 6.05271 18.611 6.14874 19.3253C6.23994 20.0036 6.39424 20.2691 6.56262 20.4375C6.731 20.6058 6.99647 20.7601 7.6748 20.8513C8.38909 20.9474 9.3505 20.95 10.8001 20.95H13.2001C14.6496 20.95 15.611 20.9474 16.3253 20.8513C17.0036 20.7601 17.2691 20.6058 17.4375 20.4375C17.6059 20.2691 17.7602 20.0036 17.8514 19.3253C17.9474 18.611 17.9501 17.6496 17.9501 16.2V7.80003C17.9501 6.35048 17.9474 5.38906 17.8514 4.67477C17.7602 3.99644 17.6059 3.73097 17.4375 3.56259C17.2691 3.39421 17.0036 3.23991 16.3253 3.14872C15.611 3.05268 14.6496 3.05003 13.2001 3.05003H10.8001C9.3505 3.05003 8.38909 3.05268 7.6748 3.14872ZM11.8266 7.48674C11.7435 7.53261 11.648 7.58771 11.5229 7.65988L11.1847 7.85518C11.0597 7.92735 10.9642 7.98254 10.8829 8.03155C10.8566 8.04741 10.8337 8.06149 10.8137 8.07403C10.8129 8.09762 10.8121 8.1245 10.8115 8.1552C10.8097 8.25007 10.8097 8.36036 10.8097 8.5047V8.8953C10.8097 9.03964 10.8097 9.14993 10.8115 9.24481C10.8121 9.2755 10.8129 9.30237 10.8137 9.32597C10.8337 9.33851 10.8566 9.35259 10.8829 9.36845C10.9642 9.41746 11.0597 9.47265 11.1847 9.54482L11.898 9.95662L12.6112 9.54482C12.7362 9.47265 12.8317 9.41746 12.913 9.36845C12.9393 9.3526 12.9622 9.33851 12.9822 9.32597C12.983 9.30238 12.9838 9.2755 12.9844 9.24481C12.9862 9.14993 12.9862 9.03964 12.9862 8.8953V8.5047C12.9862 8.36036 12.9862 8.25007 12.9844 8.1552C12.9838 8.1245 12.983 8.09762 12.9822 8.07403C12.9622 8.06149 12.9393 8.04741 12.913 8.03155C12.8317 7.98254 12.7362 7.92735 12.6112 7.85518L12.273 7.65988C12.1479 7.58771 12.0524 7.53261 11.9693 7.48674C11.9425 7.4719 11.9188 7.45911 11.8979 7.44807C11.8771 7.45911 11.8534 7.4719 11.8266 7.48674ZM10.6479 12.1217L9.93468 11.7099C9.92317 11.7032 9.9116 11.6966 9.89997 11.6899C9.68647 11.5667 9.45567 11.4335 9.26572 11.2974C9.04307 11.1378 8.79806 10.9214 8.61112 10.5977C8.42419 10.2739 8.35933 9.95351 8.33246 9.68091C8.30953 9.44832 8.30961 9.18186 8.30967 8.93536C8.30968 8.92195 8.30968 8.90859 8.30968 8.8953V8.5047C8.30968 8.49141 8.30968 8.47806 8.30967 8.46464C8.30961 8.21814 8.30953 7.95168 8.33246 7.7191C8.35933 7.44649 8.42419 7.12613 8.61112 6.80235C8.79806 6.47858 9.04307 6.26222 9.26572 6.10265C9.45567 5.9665 9.68647 5.83333 9.89998 5.71015C9.9116 5.70344 9.92317 5.69676 9.93468 5.69012L10.2729 5.49482C10.2845 5.48818 10.296 5.48149 10.3076 5.47478C10.5211 5.35147 10.7518 5.21818 10.9647 5.12174C11.2142 5.00871 11.5241 4.9047 11.898 4.9047C12.2718 4.9047 12.5817 5.00871 12.8312 5.12174C13.0441 5.21818 13.2748 5.35147 13.4883 5.47478C13.4999 5.48149 13.5114 5.48817 13.523 5.49482L13.8612 5.69012C13.8727 5.69676 13.8843 5.70343 13.8959 5.71014C14.1094 5.83333 14.3402 5.9665 14.5302 6.10265C14.7528 6.26222 14.9978 6.47858 15.1848 6.80235C15.3717 7.12613 15.4366 7.44649 15.4634 7.7191C15.4864 7.95168 15.4863 8.21815 15.4862 8.46465C15.4862 8.47806 15.4862 8.49141 15.4862 8.5047V8.8953C15.4862 8.90859 15.4862 8.92194 15.4862 8.93536C15.4863 9.18186 15.4864 9.44832 15.4634 9.6809C15.4366 9.95351 15.3717 10.2739 15.1848 10.5977C14.9978 10.9214 14.7528 11.1378 14.5302 11.2974C14.3402 11.4335 14.1094 11.5667 13.8959 11.6899C13.8843 11.6966 13.8727 11.7032 13.8612 11.7099L13.1479 12.1217L13.1479 13.45H13.3981C14.0884 13.45 14.6481 14.0096 14.6481 14.7C14.6481 15.3904 14.0884 15.95 13.3981 15.95H13.1482C13.1485 16.0784 13.1495 16.1903 13.1521 16.2918C13.1535 16.3478 13.1553 16.3971 13.1575 16.4404C13.2009 16.4426 13.2501 16.4444 13.3062 16.4458C13.4685 16.4499 13.6576 16.45 13.8979 16.45H13.9979C14.6883 16.45 15.2479 17.0096 15.2479 17.7C15.2479 18.3904 14.6883 18.95 13.9979 18.95H13.8979C13.8772 18.95 13.8564 18.95 13.8356 18.95C13.4189 18.9501 12.9912 18.9503 12.6341 18.9022C12.2232 18.847 11.7243 18.7084 11.3069 18.291C10.8895 17.8736 10.7509 17.3747 10.6957 16.9638C10.6477 16.6067 10.6478 16.179 10.6479 15.7623C10.6479 15.7415 10.6479 15.7207 10.6479 15.7L10.6479 12.1217Z" fill="black"/>
</svg>
